<?xml version="1.0" standalone="no"?>
<!DOCTYPE svg PUBLIC "-//W3C//DTD SVG 1.1//EN" "http://www.w3.org/Graphics/SVG/1.1/DTD/svg11.dtd">
<svg xmlns="http://www.w3.org/2000/svg">
<metadata>Copyright (C) 2019 by original authors @ fontello.com</metadata>
<defs>
<font id="bespoke" horiz-adv-x="1000" >
<font-face font-family="bespoke" font-weight="400" font-stretch="normal" units-per-em="1000" ascent="850" descent="-150" />
<missing-glyph horiz-adv-x="1000" />
<glyph glyph-name="search" unicode="&#xe800;" d="M643 386q0 103-73 176t-177 74-177-74-73-176 73-177 177-73 177 73 73 177z m286-465q0-29-22-50t-50-21q-30 0-50 21l-191 191q-100-69-223-69-80 0-153 31t-125 84-84 125-31 153 31 152 84 126 125 84 153 31 153-31 125-84 84-126 31-152q0-123-69-223l191-191q21-21 21-51z" horiz-adv-x="928.6" />

<glyph glyph-name="attach" unicode="&#xe801;" d="M784 77q0-65-45-109t-109-44q-75 0-131 55l-434 434q-63 64-63 151 0 89 62 150t150 62q88 0 152-63l338-338q5-5 5-12 0-9-17-26t-26-17q-7 0-12 5l-339 339q-44 43-101 43-59 0-100-42t-40-101q0-58 42-101l433-433q35-36 81-36 36 0 59 24t24 59q0 46-35 81l-325 324q-14 14-33 14-16 0-27-11t-11-27q0-18 14-33l229-228q6-6 6-13 0-9-18-26t-26-17q-6 0-12 5l-229 229q-35 34-35 83 0 46 32 78t77 32q49 0 84-35l324-325q56-54 56-131z" horiz-adv-x="785.7" />

<glyph glyph-name="heart-o" unicode="&#xe802;" d="M929 517q0 46-12 80t-31 55-46 33-52 18-55 4-62-14-62-36-48-40-34-34q-10-13-27-13t-27 13q-14 15-34 34t-48 40-62 36-62 14-55-4-52-18-46-33-31-55-12-80q0-93 105-198l324-312 324 312q105 105 105 198z m71 0q0-123-128-251l-347-335q-10-10-25-10t-25 10l-348 336q-5 5-15 15t-31 37-38 54-30 67-13 77q0 123 71 192t196 70q34 0 70-12t67-33 54-38 42-38q20 20 42 38t54 38 67 33 70 12q125 0 196-70t71-192z" horiz-adv-x="1000" />

<glyph glyph-name="star-0" unicode="&#xe803;" d="M635 290l170 166-235 34-106 213-105-213-236-34 171-166-41-235 211 111 211-111z m294 199q0-12-15-27l-202-197 48-279q0-4 0-12 0-28-23-28-10 0-22 7l-251 132-250-132q-12-7-23-7-11 0-17 9t-6 19q0 4 1 12l48 279-203 197q-14 15-14 27 0 21 31 26l280 40 126 254q11 23 27 23t28-23l125-254 280-40q32-5 32-26z" horiz-adv-x="928.6" />

<glyph glyph-name="star" unicode="&#xe804;" d="M929 489q0-12-15-27l-202-197 48-279q0-4 0-12 0-11-6-19t-17-9q-10 0-22 7l-251 132-250-132q-12-7-23-7-11 0-17 9t-6 19q0 4 1 12l48 279-203 197q-14 15-14 27 0 21 31 26l280 40 126 254q11 23 27 23t28-23l125-254 280-40q32-5 32-26z" horiz-adv-x="928.6" />

<glyph glyph-name="star-half" unicode="&#xe805;" d="M464 832v-747l-250-132q-12-7-23-7-11 0-17 9t-6 19q0 4 1 12l48 279-203 197q-14 15-14 27 0 21 31 26l280 40 126 254q11 23 27 23z" horiz-adv-x="500" />

<glyph glyph-name="bookmark" unicode="&#xe806;" d="M650 779q12 0 24-5 19-8 29-23t11-35v-719q0-19-11-35t-29-23q-10-4-24-4-27 0-47 18l-246 236-246-236q-20-19-46-19-13 0-25 5-18 7-29 23t-11 35v719q0 19 11 35t29 23q12 5 25 5h585z" horiz-adv-x="714.3" />

<glyph glyph-name="spin4" unicode="&#xe807;" d="M498 850c-114 0-228-39-320-116l0 0c173 140 428 130 588-31 134-134 164-332 89-495-10-29-5-50 12-68 21-20 61-23 84 0 3 3 12 15 15 24 71 180 33 393-112 539-99 98-228 147-356 147z m-409-274c-14 0-29-5-39-16-3-3-13-15-15-24-71-180-34-393 112-539 185-185 479-195 676-31l0 0c-173-140-428-130-589 31-134 134-163 333-89 495 11 29 6 50-12 68-11 11-27 17-44 16z" horiz-adv-x="1001" />

<glyph glyph-name="video" unicode="&#xe808;" d="M214-43v72q0 14-10 25t-25 10h-72q-14 0-25-10t-11-25v-72q0-14 11-25t25-11h72q14 0 25 11t10 25z m0 214v72q0 14-10 25t-25 11h-72q-14 0-25-11t-11-25v-72q0-14 11-25t25-10h72q14 0 25 10t10 25z m0 215v71q0 15-10 25t-25 11h-72q-14 0-25-11t-11-25v-71q0-15 11-25t25-11h72q14 0 25 11t10 25z m572-429v286q0 14-11 25t-25 11h-429q-14 0-25-11t-10-25v-286q0-14 10-25t25-11h429q15 0 25 11t11 25z m-572 643v71q0 15-10 26t-25 10h-72q-14 0-25-10t-11-26v-71q0-14 11-25t25-11h72q14 0 25 11t10 25z m786-643v72q0 14-11 25t-25 10h-71q-15 0-25-10t-11-25v-72q0-14 11-25t25-11h71q15 0 25 11t11 25z m-214 429v285q0 15-11 26t-25 10h-429q-14 0-25-10t-10-26v-285q0-15 10-25t25-11h429q15 0 25 11t11 25z m214-215v72q0 14-11 25t-25 11h-71q-15 0-25-11t-11-25v-72q0-14 11-25t25-10h71q15 0 25 10t11 25z m0 215v71q0 15-11 25t-25 11h-71q-15 0-25-11t-11-25v-71q0-15 11-25t25-11h71q15 0 25 11t11 25z m0 214v71q0 15-11 26t-25 10h-71q-15 0-25-10t-11-26v-71q0-14 11-25t25-11h71q15 0 25 11t11 25z m71 89v-750q0-37-26-63t-63-26h-893q-36 0-63 26t-26 63v750q0 37 26 63t63 27h893q37 0 63-27t26-63z" horiz-adv-x="1071.4" />

<glyph glyph-name="picture" unicode="&#xe809;" d="M357 529q0-45-31-76t-76-32-76 32-31 76 31 76 76 31 76-31 31-76z m572-215v-250h-786v107l178 179 90-89 285 285z m53 393h-893q-7 0-12-5t-6-13v-678q0-7 6-13t12-5h893q7 0 13 5t5 13v678q0 8-5 13t-13 5z m89-18v-678q0-37-26-63t-63-27h-893q-36 0-63 27t-26 63v678q0 37 26 63t63 27h893q37 0 63-27t26-63z" horiz-adv-x="1071.4" />

<glyph glyph-name="phone" unicode="&#xe80a;" d="M786 158q0-15-6-39t-12-38q-11-28-68-60-52-28-103-28-15 0-30 2t-32 7-26 8-31 11-28 10q-54 20-97 47-71 44-148 120t-120 148q-27 43-46 97-2 5-10 28t-12 31-8 26-7 32-2 29q0 52 29 104 31 57 59 68 14 6 38 12t39 6q8 0 12-2 10-3 30-42 6-11 16-31t20-35 17-30q2-2 10-14t12-20 4-16q0-11-16-27t-35-31-34-30-16-25q0-5 3-13t4-11 8-14 7-10q42-77 97-132t131-97q1 0 10-6t14-8 11-5 13-2q10 0 25 16t30 34 31 35 28 16q7 0 15-4t20-12 14-10q14-8 30-17t36-20 30-17q39-19 42-29 2-4 2-12z" horiz-adv-x="785.7" />

<glyph glyph-name="th-list" unicode="&#xe80b;" d="M286 154v-108q0-22-16-37t-38-16h-178q-23 0-38 16t-16 37v108q0 22 16 38t38 15h178q23 0 38-15t16-38z m0 285v-107q0-22-16-38t-38-15h-178q-23 0-38 15t-16 38v107q0 23 16 38t38 16h178q23 0 38-16t16-38z m714-285v-108q0-22-16-37t-38-16h-535q-23 0-38 16t-16 37v108q0 22 16 38t38 15h535q23 0 38-15t16-38z m-714 571v-107q0-22-16-38t-38-16h-178q-23 0-38 16t-16 38v107q0 22 16 38t38 16h178q23 0 38-16t16-38z m714-286v-107q0-22-16-38t-38-15h-535q-23 0-38 15t-16 38v107q0 23 16 38t38 16h535q23 0 38-16t16-38z m0 286v-107q0-22-16-38t-38-16h-535q-23 0-38 16t-16 38v107q0 22 16 38t38 16h535q23 0 38-16t16-38z" horiz-adv-x="1000" />

<glyph glyph-name="th-large" unicode="&#xe80c;" d="M429 279v-215q0-29-22-50t-50-21h-286q-29 0-50 21t-21 50v215q0 29 21 50t50 21h286q29 0 50-21t22-50z m0 428v-214q0-29-22-50t-50-22h-286q-29 0-50 22t-21 50v214q0 29 21 50t50 22h286q29 0 50-22t22-50z m500-428v-215q0-29-22-50t-50-21h-286q-29 0-50 21t-21 50v215q0 29 21 50t50 21h286q29 0 50-21t22-50z m0 428v-214q0-29-22-50t-50-22h-286q-29 0-50 22t-21 50v214q0 29 21 50t50 22h286q29 0 50-22t22-50z" horiz-adv-x="928.6" />

<glyph glyph-name="cog-alt" unicode="&#xe80d;" d="M500 350q0 59-42 101t-101 42-101-42-42-101 42-101 101-42 101 42 42 101z m429-286q0 29-22 51t-50 21-50-21-21-51q0-29 21-50t50-21 51 21 21 50z m0 572q0 29-22 50t-50 21-50-21-21-50q0-30 21-51t50-21 51 21 21 51z m-215-235v-103q0-6-4-11t-8-6l-87-14q-6-19-18-42 19-27 50-64 4-6 4-11 0-7-4-11-12-17-46-50t-43-33q-7 0-12 4l-64 50q-21-11-43-17-6-60-13-87-4-13-17-13h-104q-6 0-11 4t-5 10l-13 85q-19 6-42 18l-66-50q-4-4-11-4-6 0-12 4-80 75-80 90 0 5 4 10 5 8 23 30t26 34q-13 24-20 46l-85 13q-5 1-9 5t-4 11v104q0 5 4 10t9 6l86 14q7 19 18 42-19 27-50 64-4 6-4 11 0 7 4 12 12 16 46 49t44 33q6 0 12-4l64-50q19 10 43 18 6 60 13 86 3 13 16 13h104q6 0 11-4t6-10l13-85q19-6 42-17l65 49q5 4 12 4 6 0 11-4 81-75 81-90 0-4-4-10-7-9-24-30t-25-34q13-27 19-46l85-12q6-2 9-6t4-11z m357-298v-78q0-9-83-17-6-15-16-29 28-63 28-77 0-2-2-4-68-40-69-40-5 0-26 27t-29 37q-11-1-17-1t-17 1q-7-11-29-37t-25-27q-1 0-69 40-3 2-3 4 0 14 29 77-10 14-17 29-83 8-83 17v78q0 9 83 18 7 16 17 29-29 63-29 77 0 2 3 4 2 1 19 11t33 19 17 9q4 0 25-26t29-38q12 1 17 1t17-1q28 40 51 63l4 1q2 0 69-39 2-2 2-4 0-14-28-77 9-13 16-29 83-9 83-18z m0 572v-78q0-9-83-18-6-15-16-29 28-63 28-77 0-2-2-4-68-39-69-39-5 0-26 26t-29 38q-11-1-17-1t-17 1q-7-12-29-38t-25-26q-1 0-69 39-3 2-3 4 0 14 29 77-10 14-17 29-83 9-83 18v78q0 9 83 17 7 16 17 29-29 63-29 77 0 2 3 4 2 1 19 11t33 19 17 9q4 0 25-26t29-37q12 1 17 1t17-1q28 39 51 62l4 1q2 0 69-39 2-2 2-4 0-14-28-77 9-13 16-29 83-8 83-17z" horiz-adv-x="1071.4" />

<glyph glyph-name="heart" unicode="&#xe80e;" d="M500-79q-14 0-25 10l-348 336q-5 5-15 15t-31 37-38 54-30 67-13 77q0 123 71 192t196 70q34 0 70-12t67-33 54-38 42-38q20 20 42 38t54 38 67 33 70 12q125 0 196-70t71-192q0-123-128-251l-347-335q-10-10-25-10z" horiz-adv-x="1000" />

<glyph glyph-name="thumbs-up" unicode="&#xe80f;" d="M143 100q0 15-11 25t-25 11-25-11-11-25 11-25 25-11 25 11 11 25z m643 321q0 29-22 50t-50 22h-196q0 32 27 89t26 89q0 55-17 81t-72 27q-14-15-21-48t-17-70-33-61q-13-13-43-51-2-3-13-16t-18-23-19-24-22-25-22-19-22-15-20-6h-18v-357h18q7 0 18-1t18-4 21-6 20-7 20-6 16-6q118-41 191-41h67q107 0 107 93 0 15-2 31 16 9 26 30t10 41-10 38q29 28 29 67 0 14-5 31t-14 26q18 1 30 26t12 45z m71 1q0-50-27-91 5-18 5-38 0-43-21-81 1-12 1-24 0-56-33-99 0-78-48-123t-126-45h-72q-54 0-106 13t-121 36q-65 23-77 23h-161q-29 0-50 21t-21 50v357q0 30 21 51t50 21h153q20 13 77 86 32 42 60 72 13 14 19 48t17 70 35 60q22 21 50 21 47 0 84-18t57-57 20-104q0-51-27-107h98q58 0 101-42t42-100z" horiz-adv-x="857.1" />

<glyph glyph-name="truck" unicode="&#xe810;" d="M357 64q0 29-21 51t-50 21-50-21-22-51 22-50 50-21 50 21 21 50z m-214 286h214v143h-88q-7 0-12-5l-109-109q-5-5-5-12v-17z m714-286q0 29-21 51t-50 21-50-21-22-51 22-50 50-21 50 21 21 50z m143 607v-571q0-8-2-15t-8-10-9-6-13-4-13-1-14 0-12 0q0-59-42-101t-101-42-101 42-42 101h-214q0-59-42-101t-101-42-101 42-42 101h-36q-1 0-12 0t-15 0-12 1-13 4-9 6-8 10-2 15q0 15 10 25t25 11v178q0 5 0 20t0 21 2 19 3 21 8 17 13 17l110 110q11 11 28 18t33 7h89v107q0 15 11 26t25 10h571q15 0 25-10t11-26z" horiz-adv-x="1000" />

<glyph glyph-name="fire" unicode="&#xe811;" d="M786-96v-36q0-7-6-13t-12-5h-750q-7 0-13 5t-5 13v36q0 7 5 12t13 5h750q7 0 12-5t6-12z m-143 589q0-44-14-80t-35-63-49-49-54-44-49-40-35-45-14-54q0-54 37-125l-2 0 1 0q-51 23-90 46t-77 56-63 68-41 84-15 103q0 44 14 80t35 63 49 49 54 44 49 40 35 45 14 54q0 53-37 125l2-1-1 1q50-23 89-46t78-56 63-68 41-84 15-103z" horiz-adv-x="785.7" />

<glyph glyph-name="check" unicode="&#xe812;" d="M786 331v-177q0-67-47-114t-114-47h-464q-67 0-114 47t-47 114v464q0 66 47 113t114 48h464q35 0 65-14 9-4 10-13 2-10-5-16l-27-28q-6-5-13-5-1 0-5 1-13 3-25 3h-464q-37 0-63-26t-27-63v-464q0-37 27-63t63-27h464q37 0 63 27t26 63v141q0 8 5 13l36 35q6 6 13 6 3 0 7-2 11-4 11-16z m129 273l-455-454q-13-14-31-14t-32 14l-240 240q-14 13-14 31t14 32l61 62q14 13 32 13t32-13l147-147 361 361q13 13 31 13t32-13l62-61q13-14 13-32t-13-32z" horiz-adv-x="928.6" />

<glyph glyph-name="road" unicode="&#xe813;" d="M620 294v2l-13 179q-1 7-7 13t-12 5h-104q-7 0-13-5t-6-13l-13-179v-2q-1-6 4-11t12-4h136q7 0 12 4t4 11z m424-260q0-41-26-41h-393q7 0 12 5t5 13l-11 143q-1 7-7 12t-12 5h-152q-7 0-13-5t-6-12l-11-143q-1-7 4-13t12-5h-392q-26 0-26 41 0 30 14 64l233 583q5 11 15 18t21 8h189q-7 0-13-5t-6-13l-8-107q-1-8 4-13t12-5h93q7 0 12 5t5 13l-9 107q0 8-6 13t-13 5h190q11 0 21-8t14-18l233-583q15-34 15-64z" horiz-adv-x="1071.4" />

<glyph glyph-name="umbrella" unicode="&#xe814;" d="M500 388v-324q0-58-42-100t-101-43-100 43-43 100q0 15 11 25t25 11 25-11 11-25q0-28 22-49t49-22 50 22 22 49v324q18 6 35 6t36-6z m429-15q0-7-6-13t-12-5q-6 0-13 6-27 25-52 38t-57 13q-38 0-71-21t-58-54q-4-5-10-15t-8-14q-6-9-15-9-10 0-16 9-3 4-9 14t-9 15q-24 34-58 54t-71 21-71-21-57-54q-4-5-10-15t-8-14q-6-9-16-9-10 0-16 9-2 4-8 14t-10 15q-24 34-57 54t-71 21q-33 0-57-13t-52-38q-7-6-13-6-7 0-13 5t-5 13q0 3 1 4 25 102 96 178t166 114 201 38q78 0 154-22t137-63 109-105 64-140q1-1 1-4z m-429 406v-55q-23 1-36 1t-35-1v55q0 14 10 25t25 10 25-10 11-25z" horiz-adv-x="928.6" />

<glyph glyph-name="flash" unicode="&#xe815;" d="M494 534q10-11 4-24l-302-646q-7-14-23-14-2 0-8 1-9 3-14 11t-3 16l110 451-226-56q-2-1-7-1-10 0-17 7-10 8-7 21l112 461q2 8 9 13t15 5h183q11 0 18-7t7-17q0-4-2-10l-96-258 221 54q5 2 7 2 11 0 19-9z" horiz-adv-x="500" />

<glyph glyph-name="cloud" unicode="&#xe816;" d="M1071 207q0-89-62-151t-152-63h-607q-103 0-177 73t-73 177q0 74 40 135t104 91q-1 16-1 24 0 118 84 202t202 84q88 0 159-49t105-129q39 35 93 35 59 0 101-42t42-101q0-42-23-77 72-17 119-75t46-134z" horiz-adv-x="1071.4" />

<glyph glyph-name="globe" unicode="&#xe817;" d="M429 779q116 0 215-58t156-156 57-215-57-215-156-156-215-58-216 58-155 156-58 215 58 215 155 156 216 58z m153-291q-2-1-6-5t-7-6q1 0 2 3t3 6 2 4q3 4 12 8 8 4 29 7 19 5 29-6-1 1 5 7t8 7q2 1 8 3t9 4l1 12q-7-1-10 4t-3 12q0-2-4-5 0 4-2 5t-7-1-5-1q-5 2-8 5t-5 9-2 8q-1 3-5 6t-5 6q-1 1-2 3t-1 4-3 3-3 1-4-3-4-5-2-3q-2 1-4 1t-2-1-3-1-3-2q-1-2-4-2t-5-1q8 3-1 6-5 2-9 2 6 2 5 6t-5 8h3q-1 2-5 5t-10 5-7 3q-5 3-19 5t-18 1q-3-4-3-6t2-8 2-7q1-3-3-7t-3-7q0-4 7-9t6-12q-2-4-9-9t-9-6q-3-5-1-11t6-9q1-1 1-2t-2-3-3-2-4-2l-1-1q-7-3-12 3t-7 15q-4 14-9 17-13 4-16-1-3 7-23 15-14 5-33 2 4 0 0 8-4 9-10 7 1 3 2 10t0 7q2 8 7 13 1 1 4 5t5 7 1 4q19-3 28 6 2 3 6 9t6 10q5 3 8 3t8-3 8-3q8-1 8 6t-4 11q7 0 2 10-2 4-5 5-6 2-15-3-4-2 2-4-1 0-6-6t-9-10-9 3q0 0-3 7t-5 8q-5 0-9-9 1 5-6 9t-14 4q11 7-4 15-4 3-12 3t-11-2q-2-4-3-7t3-4 6-3 6-2 5-2q8-6 5-8-1 0-5-2t-6-2-4-2q-1-3 0-8t-1-8q-3 3-5 10t-4 9q4-5-14-3l-5 0q-3 0-9-1t-12-1-7 5q-3 4 0 11 0 2 2 1-2 2-6 5t-6 5q-25-8-52-23 3 0 6 1 3 1 8 4t5 3q19 7 24 4l3 2q7-9 11-14-4 3-17 1-11-3-12-7 4-6 2-10-2 2-6 6t-8 6-8 3q-9 0-13-1-81-45-131-124 4-4 7-4 2-1 3-5t1-6 6 1q5-4 2-10 1 0 25-15 10-10 11-12 2-6-5-10-1 1-5 5t-5 2q-2-3 0-10t6-7q-4 0-5-9t-2-20 0-13l1-1q-2-6 3-19t12-11q-7-1 11-24 3-4 4-5 2-1 7-4t9-6 5-5q2-3 6-13t8-13q-2-3 5-11t6-13q-1 0-2-1t-1 0q2-4 9-8t8-7q1-2 1-6t2-6 4-1q2 11-13 35-8 13-9 16-2 2-4 8t-2 8q1 0 3 0t5-2 4-3 1-1q-1-4 1-10t7-10 10-11 6-7q4-4 8-11t0-8q5 0 11-5t10-11q3-5 4-15t3-13q1-4 5-8t7-5l9-5t7-3q3-2 10-6t12-7q6-2 9-2t8 1 8 2q8 1 16-8t12-12q20-10 30-6-1 0 1-4t4-9 5-8 3-5q3-3 10-8t10-8q4 2 4 5-1-5 4-11t10-6q8 2 8 18-17-8-27 10 0 0-2 3t-2 5-1 4 0 5 2 1q5 0 6 2t-1 7-2 8q-1 4-6 11t-7 8q-3-5-9-4t-9 5q0-1-1-3t-1-4q-7 0-8 0 1 2 1 10t2 13q1 2 3 6t5 9 2 7-3 5-9 1q-11 0-15-11-1-2-2-6t-2-6-5-4q-4-2-14-1t-13 3q-8 4-13 16t-5 20q0 6 1 15t2 14-3 14q2 1 5 5t5 6q2 1 3 1t3 0 2 1 1 3q0 1-2 2-1 1-2 1 4-1 16 1t15-1q9-6 12 1 0 1-1 6t0 7q3-15 16-5 2-1 9-3t9-2q2-1 4-3t3-3 3 0 5 4q5-8 7-13 6-23 10-25 4-2 6-1t3 5 0 8-1 7l-1 5v10l0 4q-8 2-10 7t0 10 9 10q0 1 4 2t9 4 7 4q12 11 8 20 4 0 6 5 0 0-2 2t-5 2-2 2q5 2 1 8 3 2 4 7t4 5q5-6 12-1 5 5 1 9 2 4 11 6t10 5q4-1 5 1t0 7 2 7q2 2 9 5t7 2l9 7q2 2 0 2 10-1 18 6 5 6-4 11 2 4-1 5t-9 4q2 0 7 0t5 1q9 5-3 9-10 2-24-7z m-91-490q115 21 195 106-1 2-7 2t-7 2q-10 4-13 5 1 4-1 7t-5 5-7 5-6 4q-1 1-4 3t-4 3-4 2-5 2-5-1l-2-1q-2 0-3-1t-3-2-2-1 0-2q-12 10-20 13-3 0-6 3t-6 4-6 0-6-3q-3-3-4-9t-1-7q-4 3 0 10t1 10q-1 3-6 2t-6-2-7-5-5-3-4-3-5-5q-2-2-4-6t-2-6q-1 2-7 3t-5 3q1-5 2-19t3-22q4-17-7-26-15-14-16-23-2-12 7-14 0-4-5-12t-4-12q0-3 2-9z" horiz-adv-x="857.1" />

<glyph glyph-name="signal" unicode="&#xe818;" d="M143 46v-107q0-8-5-13t-13-5h-107q-8 0-13 5t-5 13v107q0 8 5 13t13 5h107q8 0 13-5t5-13z m214 72v-179q0-8-5-13t-13-5h-107q-8 0-13 5t-5 13v179q0 8 5 13t13 5h107q8 0 13-5t5-13z m214 143v-322q0-8-5-13t-12-5h-108q-7 0-12 5t-5 13v322q0 8 5 13t12 5h108q7 0 12-5t5-13z m215 214v-536q0-8-5-13t-13-5h-107q-8 0-13 5t-5 13v536q0 8 5 13t13 5h107q8 0 13-5t5-13z m214 286v-822q0-8-5-13t-13-5h-107q-8 0-13 5t-5 13v822q0 8 5 13t13 5h107q8 0 13-5t5-13z" horiz-adv-x="1000" />

<glyph glyph-name="location-1" unicode="&#xe819;" d="M429 493q0 59-42 101t-101 42-101-42-42-101 42-101 101-42 101 42 42 101z m142 0q0-61-18-100l-203-432q-9-18-27-29t-37-11-38 11-26 29l-204 432q-18 39-18 100 0 118 84 202t202 84 202-84 83-202z" horiz-adv-x="571.4" />

<glyph glyph-name="right-dir" unicode="&#xe81a;" d="M321 350q0-14-10-25l-250-250q-11-11-25-11t-25 11-11 25v500q0 15 11 25t25 11 25-11l250-250q10-10 10-25z" horiz-adv-x="357.1" />

<glyph glyph-name="left-dir" unicode="&#xe81b;" d="M357 600v-500q0-14-10-25t-26-11-25 11l-250 250q-10 11-10 25t10 25l250 250q11 11 25 11t26-11 10-25z" horiz-adv-x="357.1" />

<glyph glyph-name="up-dir" unicode="&#xe81c;" d="M571 171q0-14-10-25t-25-10h-500q-15 0-25 10t-11 25 11 26l250 250q10 10 25 10t25-10l250-250q10-11 10-26z" horiz-adv-x="571.4" />

<glyph glyph-name="down-dir" unicode="&#xe81d;" d="M571 457q0-14-10-25l-250-250q-11-11-25-11t-25 11l-250 250q-11 11-11 25t11 25 25 11h500q14 0 25-11t10-25z" horiz-adv-x="571.4" />

<glyph glyph-name="down-open" unicode="&#xe81e;" d="M939 399l-414-413q-10-11-25-11t-25 11l-414 413q-11 11-11 26t11 25l93 92q10 11 25 11t25-11l296-296 296 296q11 11 25 11t26-11l92-92q11-11 11-25t-11-26z" horiz-adv-x="1000" />

<glyph glyph-name="left-open" unicode="&#xe81f;" d="M654 682l-297-296 297-297q10-10 10-25t-10-25l-93-93q-11-10-25-10t-25 10l-414 415q-11 10-11 25t11 25l414 414q10 11 25 11t25-11l93-93q10-10 10-25t-10-25z" horiz-adv-x="714.3" />

<glyph glyph-name="right-open" unicode="&#xe820;" d="M618 361l-414-415q-11-10-25-10t-25 10l-93 93q-11 11-11 25t11 25l296 297-296 296q-11 11-11 25t11 25l93 93q10 11 25 11t25-11l414-414q10-11 10-25t-10-25z" horiz-adv-x="714.3" />

<glyph glyph-name="up-open" unicode="&#xe821;" d="M939 107l-92-92q-11-10-26-10t-25 10l-296 297-296-297q-11-10-25-10t-25 10l-93 92q-11 11-11 26t11 25l414 414q11 10 25 10t25-10l414-414q11-11 11-25t-11-26z" horiz-adv-x="1000" />

<glyph glyph-name="cancel" unicode="&#xe822;" d="M724 112q0-22-15-38l-76-76q-16-15-38-15t-38 15l-164 165-164-165q-16-15-38-15t-38 15l-76 76q-16 16-16 38t16 38l164 164-164 164q-16 16-16 38t16 38l76 76q16 16 38 16t38-16l164-164 164 164q16 16 38 16t38-16l76-76q15-15 15-38t-15-38l-164-164 164-164q15-15 15-38z" horiz-adv-x="785.7" />

<glyph glyph-name="home" unicode="&#xe823;" d="M786 296v-267q0-15-11-25t-25-11h-214v214h-143v-214h-214q-15 0-25 11t-11 25v267q0 1 0 2t0 2l321 264 321-264q1-1 1-4z m124 39l-34-41q-5-5-12-6h-2q-7 0-12 3l-386 322-386-322q-7-4-13-3-7 1-12 6l-35 41q-4 6-3 13t6 12l401 334q18 15 42 15t43-15l136-113v108q0 8 5 13t13 5h107q8 0 13-5t5-13v-227l122-102q6-4 6-12t-4-13z" horiz-adv-x="928.6" />

<glyph glyph-name="link" unicode="&#xe824;" d="M813 171q0 23-16 38l-116 116q-16 16-38 16-24 0-40-18 1-1 10-10t12-12 9-11 7-14 2-15q0-23-16-38t-38-16q-8 0-15 2t-14 7-11 9-12 12-10 10q-19-17-19-40 0-23 16-38l115-116q15-15 38-15 22 0 38 15l82 81q16 16 16 37z m-393 394q0 22-15 38l-115 115q-16 16-38 16-22 0-38-15l-82-82q-16-15-16-37 0-22 16-38l116-116q15-15 38-15 23 0 40 17-2 2-11 11t-12 12-8 10-7 14-2 16q0 22 15 38t38 15q9 0 16-2t14-7 11-8 12-12 10-11q18 17 18 41z m500-394q0-66-48-113l-82-81q-46-47-113-47-68 0-114 48l-115 115q-46 47-46 114 0 68 49 116l-49 49q-48-49-116-49-67 0-114 47l-116 116q-47 47-47 114t47 113l82 82q47 46 114 46 67 0 114-47l115-116q46-46 46-113 0-69-49-117l49-49q48 49 116 49 67 0 114-47l116-116q47-47 47-114z" horiz-adv-x="928.6" />

<glyph glyph-name="lock" unicode="&#xe825;" d="M179 421h285v108q0 59-42 101t-101 41-101-41-41-101v-108z m464-53v-322q0-22-16-37t-38-16h-535q-23 0-38 16t-16 37v322q0 22 16 38t38 15h17v108q0 102 74 176t176 74 177-74 73-176v-108h18q23 0 38-15t16-38z" horiz-adv-x="642.9" />

<glyph glyph-name="lock-open" unicode="&#xe826;" d="M929 529v-143q0-15-11-25t-25-11h-36q-14 0-25 11t-11 25v143q0 59-41 101t-101 41-101-41-42-101v-108h53q23 0 38-15t16-38v-322q0-22-16-37t-38-16h-535q-23 0-38 16t-16 37v322q0 22 16 38t38 15h375v108q0 103 73 176t177 74 176-74 74-176z" horiz-adv-x="928.6" />

<glyph glyph-name="tags" unicode="&#xe827;" d="M250 600q0 30-21 51t-50 20-51-20-21-51 21-50 51-21 50 21 21 50z m595-321q0-30-20-51l-274-274q-22-21-51-21-30 0-50 21l-399 399q-21 21-36 57t-15 65v232q0 29 21 50t50 22h233q29 0 65-15t57-36l399-399q20-21 20-50z m215 0q0-30-21-51l-274-274q-22-21-51-21-20 0-33 8t-29 25l262 262q21 21 21 51 0 29-21 50l-399 399q-21 21-57 36t-65 15h125q29 0 65-15t57-36l399-399q21-21 21-50z" horiz-adv-x="1071.4" />

<glyph glyph-name="forward" unicode="&#xe828;" d="M1000 493q0-15-11-25l-285-286q-11-11-25-11t-25 11-11 25v143h-125q-55 0-98-3t-86-12-74-24-59-39-45-56-27-77-10-101q0-31 3-69 0-4 2-13t1-15q0-8-5-14t-13-6q-9 0-15 10-4 5-8 12t-7 17-6 13q-71 159-71 252 0 111 30 186 90 225 488 225h125v143q0 14 11 25t25 10 25-10l285-286q11-11 11-25z" horiz-adv-x="1000" />

<glyph glyph-name="calendar" unicode="&#xe829;" d="M71-79h161v161h-161v-161z m197 0h178v161h-178v-161z m-197 197h161v178h-161v-178z m197 0h178v178h-178v-178z m-197 214h161v161h-161v-161z m411-411h179v161h-179v-161z m-214 411h178v161h-178v-161z m428-411h161v161h-161v-161z m-214 197h179v178h-179v-178z m-196 482v161q0 7-6 12t-12 6h-36q-7 0-12-6t-6-12v-161q0-7 6-13t12-5h36q7 0 12 5t6 13z m410-482h161v178h-161v-178z m-214 214h179v161h-179v-161z m214 0h161v161h-161v-161z m18 268v161q0 7-5 12t-13 6h-35q-7 0-13-6t-5-12v-161q0-7 5-13t13-5h35q8 0 13 5t5 13z m215 36v-715q0-29-22-50t-50-21h-786q-29 0-50 21t-21 50v715q0 29 21 50t50 21h72v54q0 37 26 63t63 26h36q37 0 63-26t26-63v-54h214v54q0 37 27 63t63 26h35q37 0 64-26t26-63v-54h71q29 0 50-21t22-50z" horiz-adv-x="928.6" />

<glyph glyph-name="thumbs-down" unicode="&#xe82a;" d="M143 600q0 15-11 25t-25 11-25-11-11-25 11-25 25-11 25 11 11 25z m643-321q0 19-12 45t-30 26q8 10 14 27t5 31q0 38-29 66 10 17 10 38 0 21-10 41t-26 30q2 16 2 31 0 47-27 70t-76 23h-71q-73 0-191-41-3-1-16-5t-20-7-20-7-21-6-18-4-18-1h-18v-357h18q9 0 20-5t22-15 22-20 22-25 19-24 18-22 13-17q30-38 43-51 23-24 33-61t17-70 21-48q54 0 72 27t17 81q0 33-26 89t-27 89h196q28 0 50 22t22 50z m71-1q0-57-42-100t-101-42h-98q27-55 27-107 0-66-20-104-19-39-57-57t-84-18q-28 0-50 21-19 18-30 45t-14 51-10 47-17 36q-27 28-60 71-57 73-77 86h-153q-29 0-50 21t-21 51v357q0 29 21 50t50 21h161q12 0 77 23 72 24 125 36t111 13h63q78 0 126-44t48-121v-3q33-43 33-99 0-12-1-24 21-38 21-80 0-21-5-39 27-41 27-91z" horiz-adv-x="857.1" />

<glyph glyph-name="bell" unicode="&#xe82b;" d="M509-96q0 8-9 8-33 0-57 24t-23 57q0 9-9 9t-9-9q0-41 29-70t69-28q9 0 9 9z m-372 160h726q-149 168-149 465 0 28-13 58t-39 58-67 45-95 17-95-17-67-45-39-58-13-58q0-297-149-465z m827 0q0-29-21-50t-50-21h-250q0-59-42-101t-101-42-101 42-42 101h-250q-29 0-50 21t-21 50q28 24 51 49t47 67 42 89 27 115 11 145q0 84 66 157t171 89q-5 10-5 21 0 23 16 38t38 16 38-16 16-38q0-11-5-21 106-16 171-89t66-157q0-78 11-145t28-115 41-89 48-67 50-49z" horiz-adv-x="1000" />

<glyph glyph-name="print" unicode="&#xe82c;" d="M214-7h500v143h-500v-143z m0 357h500v214h-89q-22 0-38 16t-16 38v89h-357v-357z m643-36q0 15-10 25t-26 11-25-11-10-25 10-25 25-10 26 10 10 25z m72 0v-232q0-7-6-12t-12-6h-125v-89q0-22-16-38t-38-16h-536q-22 0-37 16t-16 38v89h-125q-7 0-13 6t-5 12v232q0 44 32 76t75 31h36v304q0 22 16 38t37 16h375q23 0 50-12t42-26l85-85q15-16 27-43t11-49v-143h35q45 0 76-31t32-76z" horiz-adv-x="928.6" />

<glyph glyph-name="edit" unicode="&#xe82d;" d="M496 189l64 65-85 85-64-65v-31h53v-54h32z m245 402q-9 9-18 0l-196-196q-9-9 0-18t18 0l196 196q9 9 0 18z m45-331v-106q0-67-47-114t-114-47h-464q-67 0-114 47t-47 114v464q0 66 47 113t114 48h464q35 0 65-14 9-4 10-13 2-10-5-16l-27-28q-8-8-18-4-13 3-25 3h-464q-37 0-63-26t-27-63v-464q0-37 27-63t63-27h464q37 0 63 27t26 63v70q0 7 5 12l36 36q8 8 20 4t11-16z m-54 411l161-160-375-375h-161v160z m248-73l-51-52-161 161 51 52q16 15 38 15t38-15l85-85q16-16 16-38t-16-38z" horiz-adv-x="1000" />

<glyph glyph-name="doc" unicode="&#xe82e;" d="M819 638q16-16 27-42t11-50v-642q0-23-15-38t-38-16h-750q-23 0-38 16t-16 38v892q0 23 16 38t38 16h500q22 0 49-11t42-27z m-248 136v-210h210q-5 17-12 23l-175 175q-6 7-23 12z m215-853v572h-232q-23 0-38 16t-16 37v233h-429v-858h715z" horiz-adv-x="857.1" />

<glyph glyph-name="basket" unicode="&#xe82f;" d="M357-7q0-29-21-50t-50-22-50 22-22 50 22 50 50 21 50-21 21-50z m500 0q0-29-21-50t-50-22-50 22-22 50 22 50 50 21 50-21 21-50z m72 607v-286q0-13-10-23t-22-12l-583-68q7-34 7-40 0-8-13-35h513q15 0 26-11t10-25-10-25-26-11h-571q-14 0-25 11t-11 25q0 6 5 18t9 20 12 22 8 17l-98 459h-114q-15 0-25 10t-11 25 11 26 25 10h143q9 0 16-3t10-9 8-14 4-14 3-17 3-14h670q14 0 25-11t11-25z" horiz-adv-x="928.6" />

<glyph glyph-name="volume-off" unicode="&#xe830;" d="M429 654v-608q0-14-11-25t-25-10-25 10l-186 186h-146q-15 0-25 11t-11 25v214q0 15 11 25t25 11h146l186 186q10 10 25 10t25-10 11-25z" horiz-adv-x="428.6" />

<glyph glyph-name="volume-down" unicode="&#xe831;" d="M429 654v-608q0-14-11-25t-25-10-25 10l-186 186h-146q-15 0-25 11t-11 25v214q0 15 11 25t25 11h146l186 186q10 10 25 10t25-10 11-25z m214-304q0-42-24-79t-63-52q-5-3-14-3-14 0-25 10t-10 26q0 12 6 20t17 14 19 12 16 21 6 31-6 32-16 20-19 13-17 13-6 20q0 15 10 26t25 10q9 0 14-3 39-15 63-52t24-79z" horiz-adv-x="642.9" />

<glyph glyph-name="volume-up" unicode="&#xe832;" d="M429 654v-608q0-14-11-25t-25-10-25 10l-186 186h-146q-15 0-25 11t-11 25v214q0 15 11 25t25 11h146l186 186q10 10 25 10t25-10 11-25z m214-304q0-42-24-79t-63-52q-5-3-14-3-14 0-25 10t-10 26q0 12 6 20t17 14 19 12 16 21 6 31-6 32-16 20-19 13-17 13-6 20q0 15 10 26t25 10q9 0 14-3 39-15 63-52t24-79z m143 0q0-85-48-158t-125-105q-7-3-14-3-15 0-26 11t-10 25q0 22 21 33 32 16 43 25 41 30 64 75t23 97-23 97-64 75q-11 9-43 25-21 11-21 33 0 14 10 25t25 11q8 0 15-3 78-33 125-105t48-158z m143 0q0-128-71-236t-189-158q-7-3-14-3-15 0-25 11t-11 25q0 20 22 33 4 2 12 6t13 6q25 14 46 28 68 51 107 127t38 161-38 161-107 127q-21 15-46 28-4 3-13 6t-12 6q-22 13-22 33 0 15 11 25t25 11q7 0 14-3 118-51 189-158t71-236z" horiz-adv-x="928.6" />

<glyph glyph-name="gift" unicode="&#xe833;" d="M518 93v400h-179v-400q0-14 10-21t26-8h107q16 0 26 8t10 21z m-255 471h109l-70 90q-15 17-39 17-22 0-38-15t-15-38 15-38 38-16z m384 54q0 22-15 38t-38 15q-24 0-39-17l-69-90h108q22 0 38 16t15 38z m210-143v-179q0-7-5-12t-13-5h-53v-233q0-22-16-37t-38-16h-607q-22 0-38 16t-16 37v233h-53q-8 0-13 5t-5 12v179q0 8 5 13t13 5h245q-51 0-88 36t-37 89 37 88 88 37q60 0 94-43l72-92 71 92q34 43 94 43 52 0 88-37t37-88-37-89-88-36h245q8 0 13-5t5-13z" horiz-adv-x="857.1" />

<glyph glyph-name="camera" unicode="&#xe834;" d="M536 475q66 0 113-47t47-114-47-113-113-47-114 47-47 113 47 114 114 47z m393 232q59 0 101-42t41-101v-500q0-59-41-101t-101-42h-786q-59 0-101 42t-42 101v500q0 59 42 101t101 42h125l28 76q11 27 39 47t58 20h286q29 0 57-20t39-47l29-76h125z m-393-643q103 0 176 74t74 176-74 177-176 73-177-73-73-177 73-176 177-74z" horiz-adv-x="1071.4" />

<glyph glyph-name="chart-bar" unicode="&#xe835;" d="M357 350v-286h-143v286h143z m214 286v-572h-142v572h142z m572-643v-72h-1143v858h71v-786h1072z m-357 500v-429h-143v429h143z m214 214v-643h-143v643h143z" horiz-adv-x="1142.9" />

<glyph glyph-name="spin3" unicode="&#xe836;" d="M494 850c-266 0-483-210-494-472-1-19 13-20 13-20l84 0c16 0 19 10 19 18 10 199 176 358 378 358 107 0 205-45 273-118l-58-57c-11-12-11-27 5-31l247-50c21-5 46 11 37 44l-58 227c-2 9-16 22-29 13l-65-60c-89 91-214 148-352 148z m409-508c-16 0-19-10-19-18-10-199-176-358-377-358-108 0-205 45-274 118l59 57c10 12 10 27-5 31l-248 50c-21 5-46-11-37-44l58-227c2-9 16-22 30-13l64 60c89-91 214-148 353-148 265 0 482 210 493 473 1 18-13 19-13 19l-84 0z" horiz-adv-x="1000" />

<glyph glyph-name="spin2" unicode="&#xe837;" d="M46 144l0 0c0 0-1 0-1 0-8 18-15 37-21 55-6 19-11 38-15 58-19 99-8 203 35 298 3 6 10 8 15 5 1 0 2 0 2-1l0 0 80-59c5-3 6-9 4-14-5-12-9-25-12-37-4-13-7-26-9-40-11-67-3-137 23-201 2-5 0-10-4-13l0 0-80-56c-5-4-12-2-16 3-1 0-1 1-1 2l0 0z m120 574l0 0c0 1 0 1 0 1 15 13 30 25 46 37 16 11 33 22 51 31 89 50 192 72 297 60 6-1 10-6 10-13 0-1-1-1-1-2l0 0-31-94c-2-5-8-8-13-7-13 0-27 0-40 0-14-1-27-2-40-4-68-11-133-40-186-84-4-3-10-3-14 0l0 0-79 58c-5 3-6 11-2 16 0 0 1 1 2 1l0 0z m588 65l0 0c0 0 1 0 1 0 17-10 34-21 50-32 16-12 31-25 46-38 74-69 127-160 148-262 2-6-2-12-9-13-1 0-1 0-2 0l0 0-100 1c-5 0-10 4-11 9-3 13-8 26-12 38-5 12-10 25-17 36-31 61-78 113-137 150-5 3-6 8-5 13l0 0 31 92c2 6 9 9 15 7 1 0 2-1 2-1l0 0z m244-535l0 0c0 0 0 0 0 0-4-20-9-39-15-57-7-19-14-37-22-55-44-92-114-170-205-221-6-3-13-1-16 4 0 1-1 2-1 2l0 0-30 94c-2 6 1 12 6 14 11 7 22 15 32 23 11 9 21 18 30 27 49 48 84 109 101 176 2 5 6 8 11 8l0 0 98-1c6 0 11-5 11-11 0-1 0-2 0-3l0 0z m-438-395l0 0c0 0 0 0 0 0-20-2-40-3-60-3-20 0-40 1-59 4-102 12-198 54-276 125-5 4-5 11 0 16 0 0 1 1 1 1l0 0 81 58c5 3 12 2 16-2 10-8 20-16 32-23 11-7 22-14 34-20 62-31 131-45 200-41 6 0 10-3 12-8l0 0 29-92c2-6-1-12-7-14-1-1-2-1-3-1l0 0z" horiz-adv-x="1000" />

<glyph glyph-name="spin5" unicode="&#xe838;" d="M462 850c-6 0-11-5-11-11l0-183 0 0c0-6 5-11 11-11l69 0c1 0 1 0 1 0 7 0 12 5 12 11l0 183 0 0c0 6-5 11-12 11l-69 0c0 0 0 0-1 0z m250-47c-4 1-8-2-10-5l-91-158 0 0c-4-6-2-13 4-16l60-34c0-1 0-1 0-1 6-3 13-1 16 4l91 158c3 6 2 13-4 16l-61 35c-1 1-3 1-5 1z m-428-2c-2 0-4-1-6-2l-61-35c-5-3-7-10-4-16l91-157c0 0 0 0 0 0 3-6 10-8 16-5l61 35c5 4 7 11 4 16l-91 157c0 1 0 1 0 1-2 4-6 6-10 6z m620-163c-2 0-4 0-6-1l-157-91c0 0 0 0 0 0-6-3-8-10-5-16l35-61c4-5 11-7 16-4l157 91c1 0 1 0 1 0 6 3 7 11 4 16l-35 61c-2 4-6 6-10 5z m-810-4c-5 0-9-2-11-6l-35-61c-3-5-1-12 4-15l158-91 0 0c6-4 13-2 16 4l35 60c0 0 0 0 0 0 3 6 1 13-4 16l-158 91c-2 1-4 2-5 2z m712-235l0 0c-6 0-11-5-11-11l0-69c0-1 0-1 0-1 0-7 5-12 11-12l183 0 0 0c6 0 11 5 11 12l0 69c0 0 0 0 0 1 0 6-5 11-11 11l-183 0z m-794-5l0 0c-7 0-12-5-12-12l0-69c0 0 0 0 0-1 0-6 5-11 12-11l182 0 0 0c6 0 11 5 11 11l0 69c0 1 0 1 0 1 0 7-5 12-11 12l-182 0z m772-153c-4 0-8-2-10-6l-34-60c-1 0-1 0-1 0-3-6-1-13 4-16l158-91c6-3 13-1 16 4l35 61c3 5 1 12-4 15l-158 92 0 0c-2 1-4 1-6 1z m-566-5c-1 0-3 0-5-1l-157-91c0 0-1 0-1 0-5-3-7-10-4-16l35-61c3-5 10-7 16-4l157 91c0 0 0 0 0 0 6 3 8 10 5 16l-35 61c-3 3-7 6-11 5z m468-121c-2 0-4 0-6-1l-61-35c-5-4-7-11-4-16l91-157c0-1 0-1 0-1 3-6 11-7 16-4l61 35c5 3 7 10 4 16l-91 157c0 0 0 0 0 0-2 4-6 6-10 6z m-367-2c-4 0-8-2-10-6l-91-158c-3-6-1-13 4-16l61-35c5-3 12-1 15 4l92 158 0 0c3 6 1 13-5 16l-60 35c0 0 0 0 0 0-2 1-4 1-6 2z m149-58c-7 0-12-5-12-11l0-183 0 0c0-6 5-11 12-11l69 0c0 0 0 0 1 0 6 0 11 5 11 11l0 183 0 0c0 6-5 11-11 11l-69 0c-1 0-1 0-1 0z" horiz-adv-x="1000" />

<glyph glyph-name="spin6" unicode="&#xe839;" d="M855 9c-189-190-520-172-705 13-190 190-200 494-28 695 11 13 21 26 35 34 36 23 85 18 117-13 30-31 35-76 16-112-5-9-9-15-16-22-140-151-145-379-8-516 153-153 407-121 542 34 106 122 142 297 77 451-83 198-305 291-510 222l0 1c236 82 492-24 588-252 71-167 37-355-72-493-11-15-23-29-36-42z" horiz-adv-x="1000" />

<glyph glyph-name="spin1" unicode="&#xe83a;" d="M496 850c-176 0-331-90-421-226-18-27-33-55-46-85-12-29-21-60-28-92 0 0 0-1 0-1l0 0 0 0c0-1 0-2 0-2 0-7 5-12 11-12l101 0c5 0 10 4 11 9 29 113 109 206 214 253 20 10 41 17 63 23 31 7 62 11 95 11l0 0 0 0 0 0c25 0 50-2 74-7 5-1 10-2 14-3 6-1 10-3 14-4l0 0c5-1 11 1 13 6l51 87c0 0 1 1 1 2 2 6-1 13-7 15-22 7-43 13-65 17-5 1-9 1-13 2-27 5-54 7-82 7l0 0 0 0z m327-114c-5 0-9-2-11-6l-50-87c-3-4-2-10 2-14 29-29 54-63 73-101 4-7 7-14 11-22 19-46 30-97 30-151l0 0 0 0c0-77-22-149-62-209-7-11-15-23-24-33-9-11-18-21-28-31l0 0 0 0 0 0c-4-4-5-10-2-14l50-87c0-1 1-2 2-3 4-5 11-5 16-1 58 52 104 117 134 190 6 15 11 29 15 44 14 46 21 94 21 144 0 108-34 209-92 291-11 16-23 31-37 46-13 14-26 28-41 41l0 0c-1 1-1 1-2 1-2 1-4 2-5 2z m-811-468l0 0c-1 0-2 0-3 0-6-1-10-8-9-14 34-166 149-302 302-366 30-12 61-21 93-28 32-6 66-10 100-10l0 0 0 0c40 0 79 5 117 14 7 1 14 3 22 5 6 2 13 5 20 7 1 0 2 1 3 1 6 3 8 10 4 16l-50 87c-3 5-8 7-13 6-14-4-28-7-42-9-3-1-6-1-8-2-18-2-35-3-53-3l0 0 0 0c-128 0-242 63-311 160-1 0-1 0-1 0-13 19-25 40-35 61-10 21-18 43-24 65-1 6-6 10-11 10l-101 0z" horiz-adv-x="1000" />

<glyph glyph-name="mail" unicode="&#xe83b;" d="M929 11v428q-18-20-39-36-149-115-238-189-28-24-46-37t-48-28-57-13h-2q-26 0-57 13t-48 28-46 37q-88 74-238 189-21 16-39 36v-428q0-7 6-13t12-5h822q7 0 12 5t6 13z m0 586v14t-1 7-1 7-3 5-5 4-8 2h-822q-7 0-12-6t-6-12q0-94 83-159 107-84 223-176 4-3 20-17t25-21 25-17 28-16 24-5h2q11 0 24 5t28 16 25 17 25 21 20 17q116 92 224 176 30 24 56 65t26 73z m71 21v-607q0-37-26-63t-63-27h-822q-36 0-63 27t-26 63v607q0 37 26 63t63 26h822q37 0 63-26t26-63z" horiz-adv-x="1000" />

<glyph glyph-name="user" unicode="&#xe83c;" d="M714 69q0-60-35-104t-84-44h-476q-49 0-84 44t-35 104q0 48 5 90t17 85 33 73 52 50 76 19q73-72 174-72t175 72q42 0 75-19t52-50 33-73 18-85 4-90z m-143 495q0-88-62-151t-152-63-151 63-63 151 63 152 151 63 152-63 62-152z" horiz-adv-x="714.3" />

<glyph glyph-name="users" unicode="&#xe83d;" d="M331 350q-90-3-148-71h-75q-45 0-77 22t-31 66q0 197 69 197 4 0 25-11t54-24 66-12q38 0 75 13-3-21-3-37 0-78 45-143z m598-356q0-66-41-105t-108-39h-488q-68 0-108 39t-41 105q0 30 2 58t8 61 14 61 24 54 35 45 48 30 62 11q6 0 24-12t41-26 59-27 76-12 75 12 60 27 41 26 24 12q34 0 62-11t47-30 35-45 24-54 15-61 8-61 2-58z m-572 713q0-59-42-101t-101-42-101 42-42 101 42 101 101 42 101-42 42-101z m393-214q0-89-63-152t-151-62-152 62-63 152 63 151 152 63 151-63 63-151z m321-126q0-43-31-66t-77-22h-75q-57 68-147 71 45 65 45 143 0 16-3 37 37-13 74-13 33 0 67 12t54 24 24 11q69 0 69-197z m-71 340q0-59-42-101t-101-42-101 42-42 101 42 101 101 42 101-42 42-101z" horiz-adv-x="1071.4" />

<glyph glyph-name="ok" unicode="&#xe83e;" d="M933 534q0-22-16-38l-404-404-76-76q-16-15-38-15t-38 15l-76 76-202 202q-15 16-15 38t15 38l76 76q16 16 38 16t38-16l164-165 366 367q16 16 38 16t38-16l76-76q16-15 16-38z" horiz-adv-x="1000" />

<glyph glyph-name="trash-empty" unicode="&#xe83f;" d="M286 439v-321q0-8-5-13t-13-5h-36q-8 0-13 5t-5 13v321q0 8 5 13t13 5h36q8 0 13-5t5-13z m143 0v-321q0-8-5-13t-13-5h-36q-8 0-13 5t-5 13v321q0 8 5 13t13 5h36q8 0 13-5t5-13z m142 0v-321q0-8-5-13t-12-5h-36q-8 0-13 5t-5 13v321q0 8 5 13t13 5h36q7 0 12-5t5-13z m72-404v529h-500v-529q0-12 4-22t8-15 6-5h464q2 0 6 5t8 15 4 22z m-375 601h250l-27 65q-4 5-9 6h-177q-6-1-10-6z m518-18v-36q0-8-5-13t-13-5h-54v-529q0-46-26-80t-63-34h-464q-37 0-63 33t-27 79v531h-53q-8 0-13 5t-5 13v36q0 8 5 13t13 5h172l39 93q9 21 31 35t44 15h178q23 0 44-15t30-35l39-93h173q8 0 13-5t5-13z" horiz-adv-x="785.7" />

<glyph glyph-name="firefox" unicode="&#xe840;" d="M504-137c-216 0-387 126-466 306-87 200-17 521 139 663l-6-156c8 9 68 12 78-1 32 62 136 109 220 110-32-26-106-124-99-174 40-13 103-13 136-15 10-6 8-40-12-68-27-36-97-49-97-49l8-106-77 38c-26-64 35-120 97-110 69 12 94 57 142 54 49-2 68-29 61-54-7-30-59-25-59-25-44-70-103-100-198-92 144-119 338-11 387 86 50 97 7 242-43 283 59-25 99-51 120-107 11 124-46 266-149 349 193-56 311-205 314-444 3-239-211-488-496-488z" horiz-adv-x="1000" />

<glyph glyph-name="chrome" unicode="&#xe841;" d="M498 850c-147-1-291-67-387-186l154-237c39 111 150 182 267 170l414-22c-42 84-108 157-196 208-79 46-166 67-252 67z m-416-226c-52-79-82-173-82-274 0-250 183-457 423-494l128 252c-116-22-233 39-281 146l-188 370z m885-94l-282-15c76-89 82-221 13-317l-226-347c94-6 190 15 278 66 216 125 304 387 217 613z m-467-11c-93 0-169-76-169-169s76-169 169-169 169 76 169 169-76 169-169 169z" horiz-adv-x="1000" />

<glyph glyph-name="opera" unicode="&#xe842;" d="M426-150c-568 0-568 1000 0 1000s567-1000 0-1000z m0 92c237 0 237 816 0 816s-238-816 0-816z" horiz-adv-x="851" />

<glyph glyph-name="ie" unicode="&#xe843;" d="M844 850c-81-1-181-46-281-106-239 35-498-103-509-386 60 93 224 257 367 301l0-13c-179-90-571-612-360-773 90-69 310 37 344 76 29-5 59-8 89-8 201 0 371 124 424 292l-301 0c-13-56-56-92-121-92-102 0-126 68-126 151l561 0c29 204-114 385-306 439 174 115 363 161 299-104l20 0c35 109 21 191-38 213-18 7-37 10-58 10-1 0-3 0-4 0z m-352-303c79 0 128-48 128-129l-252 0c0 77 46 129 124 129z m-367-422c58-83 149-145 256-171-77-58-226-84-266-52-48 40-36 124 10 223z" horiz-adv-x="944" />

<glyph glyph-name="leaf" unicode="&#xe844;" d="M714 457q0 15-10 25t-25 11q-96 0-178-28t-145-74-131-123q-11-12-11-25 0-15 11-25t25-11q13 0 25 11 15 13 41 39t38 37q76 69 150 98t175 29q14 0 25 11t10 25z m286 111q0-53-11-108-26-125-103-214t-200-149q-119-61-244-61-83 0-160 27-8 2-49 23t-53 21q-9 0-22-18t-25-39-30-39-33-18q-24 0-36 10t-25 33q-1 2-3 6t-3 6-2 5-1 7q0 20 17 41t38 37 38 31 18 27q0 2-8 21t-9 25q-5 28-5 58 0 64 24 123t66 103 96 77 113 53q31 10 81 15t101 5 99 3 91 13 64 32l16 16t17 16 15 11 20 9 24 3q22 0 40-26t26-63 14-69 4-53z" horiz-adv-x="1000" />

<glyph glyph-name="arrow-left" unicode="&#xe845;" d="M14 368c-4-5-7-11-7-18 0-7 3-13 7-17l444-469c4-4 10-7 17-7 14 0 25 11 25 25 0 7-3 13-7 17l-427 451 427 451c4 4 7 11 7 17 0 14-11 25-25 25-7 0-13-3-17-7l-444-468" horiz-adv-x="507" />

<glyph glyph-name="camera-1" unicode="&#xe846;" d="M623 26c150 0 272 122 272 271 0 149-122 271-272 271-149 0-271-122-271-271 0-149 122-271 271-271z m0 442c100 0 181-77 181-171 0-94-81-171-181-171-99 0-180 77-180 171 0 94 81 171 180 171z m-86-172c0 49 38 87 86 87 49 0 87-38 87-87 0-49-38-87-87-87-48 0-86 38-86 87z m412 244c0 46 35 81 81 81 44 0 82-38 82-81 0-46-36-81-82-81-46 0-81 35-81 81z m271-570v651c0 60-49 109-108 109h-109c-81 0-81 108-190 108h-190-189c-109 0-109-108-190-108h-109c-59 0-108-49-108-109v-651c0-59 49-108 108-108h977c59 0 108 49 108 108z m-1139 0v651c0 30 24 55 54 55h109c108 0 108 108 190 108h189 190c82 0 82-108 190-108h109c30 0 54-25 54-55v-651c0-30-24-54-54-54h-977c-30 0-54 24-54 54z" horiz-adv-x="1247" />

<glyph glyph-name="plane" unicode="&#xe847;" d="M307 739l370-441h1691c42 0 82-19 105-54l1-3c11-17 24-33 39-46l12-11 1-1c11-9 22-17 34-24 22-13 33-35 33-58 0-23-11-45-32-58-13-7-27-14-40-20-17-7-33-13-50-17-31-9-63-13-96-13h-567c-4-20-19-35-39-35h-461c-20 0-37 15-39 35h-275c-60 0-119 8-176 24l-532 149c-49 13-68 66-48 107h-94c-23 0-41 18-41 41 0 22 18 41 41 41h107l-86 383h142m45 98h-45-141-122l27-118 60-265c-70-7-125-66-125-137 0-76 62-137 138-137h1l4-8c20-46 61-81 111-95l532-149c66-19 135-28 203-28h223c23-22 56-35 91-35h460c36 0 67 12 92 35h516c41 0 82 5 121 16 22 6 42 13 63 22 18 8 34 16 50 26 51 30 81 82 81 141 0 59-32 113-82 142-7 4-14 9-20 14l-2 1-7 6c-8 9-17 18-23 29l-5 7c-41 60-109 95-183 95h-1648l-340 405-30 33z m1795-678c-3 0-5 0-8 1-3 1-5 2-8 2-2 1-5 3-6 4-3 1-5 3-6 5-8 8-13 18-13 29 0 11 5 21 13 29 1 2 4 4 6 5 2 2 4 3 6 4 3 0 5 1 8 2 5 1 10 1 16 0 3-1 5-2 8-2 3-1 5-3 7-4 2-1 4-3 6-5 8-8 12-18 12-29 0-11-4-21-12-29-2-2-5-4-6-5-3-2-4-3-7-4-3 0-5-1-8-2-3-1-6-1-8-1l0 0z m-132 0c-3 0-5 0-8 1-2 1-5 2-7 2-3 1-6 3-7 4-2 1-5 3-6 5-2 2-4 4-5 6-2 3-3 4-4 7-1 2-2 5-2 8-1 2-1 5-1 7 0 3 0 5 1 8 0 2 1 5 2 8 1 2 3 5 4 6 0 2 3 5 5 6 1 2 4 4 6 6 2 1 4 2 7 3 2 1 5 2 7 3 5 0 11 0 17 0 2-1 5-2 7-3 3-1 5-3 7-3 3-2 4-4 6-6 2-1 3-4 5-6 2-1 3-4 4-6 1-3 1-6 2-8 1-3 1-5 1-8 0-2 0-5-1-7 0-3-1-6-2-8-1-3-3-5-4-7-2-3-3-4-5-6-2-2-4-4-6-5-3-2-4-3-7-4-2 0-5-1-7-2-4-1-6-1-9-1l0 0z m-131 0c-11 0-21 4-29 12-2 2-3 4-5 6-2 3-3 4-4 7 0 2-1 5-2 8-1 2-1 5-1 7 0 11 4 22 12 29 9 10 23 14 37 11 2-1 5-1 7-2 3-1 6-3 7-4 3-1 5-3 6-5 8-7 12-18 12-29 0-2 0-5-1-7 0-3 0-6-2-8-1-3-3-5-4-7-1-3-3-4-5-6-7-8-18-12-28-12l0 0z m-132 0c-2 0-5 0-7 1-3 1-6 2-8 2-3 1-5 3-7 4-3 1-4 3-6 5-2 2-3 4-5 6-2 3-3 4-4 7 0 2-1 5-2 8-1 2-1 5-1 7 0 3 0 5 1 8 1 2 1 5 2 8 1 2 3 5 4 6 2 3 3 5 5 6 2 2 3 4 6 6 2 1 4 2 7 3 2 1 5 2 8 3 12 2 27-2 36-12 2-1 4-4 5-6 2-1 3-4 4-6 1-3 2-6 2-8 1-3 1-5 1-8 0-2 0-5-1-7 0-3-1-6-2-8-1-3-3-5-4-7-1-3-3-4-5-6-7-8-18-12-29-12l0 0z m-656 0c-3 0-5 0-8 1-2 1-5 2-7 2-3 1-6 3-7 4-3 1-5 3-6 5-2 2-4 4-5 6-2 3-3 4-4 7-1 2-2 5-2 8-1 2-1 5-1 7 0 11 4 22 12 29 1 2 4 4 6 5 2 2 4 3 7 4 2 1 5 2 7 2 13 3 28-1 37-11 8-7 12-18 12-29 0-2 0-5-1-7-1-3-2-6-2-8-1-3-3-5-4-7-1-3-3-4-5-6-8-8-18-12-29-12l0 0z m-131 0c-2 0-5 0-8 1-2 1-5 2-7 2-3 1-5 3-7 4-2 1-4 3-6 5-2 2-4 4-5 6-2 3-3 4-4 7-1 2-1 5-2 8-1 2-1 5-1 7 0 3 0 5 1 8 1 2 1 5 2 8 1 2 3 5 4 6 1 3 3 5 5 6 2 2 4 4 6 6 2 1 4 2 7 3 2 1 5 2 7 3 6 0 11 0 17 0 2-1 5-2 7-3 3-1 5-3 7-3 3-2 4-4 6-6 2-1 4-4 5-6 2-1 3-4 4-6 1-3 1-6 2-8 1-3 1-5 1-8 0-2 0-5-1-7-1-3-1-6-2-8-1-3-3-5-4-7-1-3-3-4-5-6-2-2-4-4-6-5-2-2-4-3-7-4-2 0-5-1-7-2-4-1-6-1-9-1l0 0z m656 0c-2 0-5 0-7 1-3 1-6 2-8 2-3 1-5 3-7 4-2 1-4 3-6 5-8 8-12 18-12 29 0 3 0 5 1 8 1 2 2 5 3 7 0 3 2 6 3 7 2 3 3 5 5 6 8 8 18 12 29 12 11 0 22-4 29-12 2-1 4-4 5-6 2-1 3-4 4-7 1-2 2-5 2-7 1-3 1-5 1-8 0-3 0-5-1-8 0-2 0-5-2-7-2-3-3-5-4-7-1-3-3-5-5-6-8-9-18-13-30-13l0 0z m-131 0c-11 0-21 4-29 12-1 2-3 4-5 6-1 3-2 4-3 7-1 2-2 5-3 8-1 2-1 5-1 7 0 3 0 5 1 8 1 2 2 5 3 8 1 2 2 5 3 6 2 3 4 5 5 6 8 8 18 12 29 12 12 0 22-4 30-12 1-1 3-4 5-6 1-2 2-4 3-6 1-3 2-6 3-8 1-3 1-5 1-8 0-2 0-5-1-7-1-3-1-6-3-8-2-3-2-5-3-7-2-3-4-4-5-6-8-8-19-12-30-12l0 0z m-131 0c-3 0-5 0-8 1-3 1-5 2-8 2-2 1-5 3-7 4-1 1-4 3-6 5-1 2-3 4-5 6-1 3-2 4-3 7-1 2-2 5-3 8-1 2-1 5-1 7 0 3 0 5 1 8 1 2 2 5 3 8 1 2 2 5 3 6 2 3 4 5 5 6 2 2 5 4 6 6 3 1 5 2 7 3 3 1 5 2 8 3 5 0 10 0 16 0 3-1 5-2 8-3 3-1 5-3 7-3 2-2 4-4 6-6 2-1 3-4 5-6 2-1 2-4 3-6 1-3 2-6 3-8 1-3 1-5 1-8 0-2 0-5-1-7-1-3-2-6-3-8-1-3-2-5-3-7-2-3-3-4-5-6-2-2-5-4-6-5-3-2-4-3-7-4-3 0-5-1-8-2-2-1-6-1-8-1l0 0z m-131 0c-11 0-22 4-29 12-2 2-4 4-5 6-2 3-3 4-4 7-1 2-2 5-2 8-1 2-1 5-1 7 0 3 0 5 1 8 0 2 1 5 2 8 1 2 3 5 4 6 1 3 3 5 5 6 9 10 24 14 36 11 3 0 6-1 8-2 3-1 5-3 7-3 3-2 4-4 6-6 2-1 3-4 5-6 2-2 3-4 4-6 0-3 1-6 2-8 1-3 1-5 1-8 0-2 0-5-1-7-1-3-2-6-2-8-1-3-3-5-4-7-2-3-3-4-5-6-2-2-4-4-6-5-2-2-4-3-7-4-2 0-5-1-8-2-2-1-5-1-7-1l0 0z" horiz-adv-x="2698" />

<glyph glyph-name="city" unicode="&#xe848;" d="M31 1322m600-1364c-7 7-16 11-26 11l0 0h-23c-17 23-47 67-77 125 0 2-1 4-2 6l-13 25-4 8c-20 44-37 81-49 133l-4 18-1 5c-1 2-1 5-2 8l0 2-2 12c-10 60-18 103-24 159l-1 8c-7 77-11 124-12 167l0 8-1 17v3c10 7 16 18 16 31v13c0 15-7 27-19 33-2 13-8 24-18 32v25c0 21-17 38-37 38h-8c-21 0-38-17-38-38v-25c-9-8-16-19-18-32-11-6-19-18-19-33v-13c0-13 6-24 16-31 0-6 0-12 0-20l-1-7c-1-44-5-91-12-168l-1-8c-5-56-13-99-23-160l-3-11c0-3-1-6-1-8 0-2-1-4-1-6l-4-19c-12-52-30-90-50-135l-3-6-13-25c-1-1-2-4-2-5-30-58-60-102-77-125h-23c-21 0-37-17-37-38v-39c0-21 16-38 37-38h554c21 0 38 17 38 38v39c-1 9-5 19-12 26z m-26-66h-555v39h42c15 20 56 75 94 151h0l13 26c22 47 42 90 56 149l4 19c1 5 2 10 3 15 12 68 20 114 26 174l1 8c8 80 11 127 13 170l0 8c1 18 1 31 1 36-2 2-5 5-6 8-2 4-10 8-10 8v13h19v25c0 9 8 16 18 17v48h8v-48c10-1 19-8 19-17v-25h18v-13c0 0-8-5-10-8-2-3-4-6-6-8 0-5 0-18 1-36l0-8c2-43 5-90 13-170l0-8c6-60 15-106 27-174 1-5 2-10 3-15l4-19c13-60 34-102 56-149l13-26h-1c39-77 80-131 95-151h42v-39h-1z m-240 386c0 4-1 8-2 11l0 0 0 0c-9 69-15 116-18 177l-1 9h-24-9l-1-9c-3-61-9-108-18-177l0 0c-1-4-1-8-2-11l-2-11h78l-1 11z m-54 9c7 59 13 103 17 154 3-51 9-95 17-154l0 0c0 0 0-1 0-1h-35c1 0 1 0 1 1l-10 1 10-1z m53-57h-72c-10-50-23-82-38-122h147c-14 40-27 72-37 122z m-57-19h42c7-33 16-58 25-84h-92c9 26 17 51 25 84z m21-151c-49 0-94-24-120-59-17-34-32-58-41-70h321c-9 12-24 36-41 70-23 30-70 59-119 59z m-126-110c6 11 14 25 22 41 23 31 63 50 104 50 43 0 83-26 103-51 8-15 16-29 22-40h-251v0z" horiz-adv-x="657" />

<glyph glyph-name="cigar" unicode="&#xe849;" d="M288 676c45-50 75-120 80-153 7-49-1-96-25-155-13-31-45-58-79-86-30-24-60-49-85-81-26-33-37-80-39-131l-3 5c-22 40-47 86-56 110-17 47-20 79-11 121 7 32 43 55 81 80 22 14 45 29 65 47 41 39 57 97 69 148 7 33 7 65 3 95m-138 163c0 0 110-121 82-245-9-37-22-91-53-121-51-47-145-76-162-155-12-57-6-100 12-151 19-51 87-160 107-207 19-46 39-82 49-93 3-4 7-6 12-6 7 0 14 9 12 34-1 18-41 204 12 272 53 67 141 106 172 179 31 74 37 129 29 184-9 55-59 166-137 221-60 42-135 88-135 88z m315-636c-6-21-15-30-34-44 12 12 23 26 34 44m-9 175c-4 0-7-1-7-1s30-27-18-123c-29-59-63-78-92-101-30-22-84-51-83-108 1-57 0-167 0-167s20 68 69 125c49 58 67 58 133 108 38 29 57 48 67 113 11 65-21 126-40 142-12 10-23 12-29 12z" horiz-adv-x="538" />

<glyph glyph-name="uk" unicode="&#xe84a;" d="M551 839c-14-3-47-26-94-71-96-91-144-211-96-241 17-11 18-33 2-53-31-41 45-128 112-128 24 0 46-37 51-86 7-65-8-92-58-113-36-15-54-27-40-29 15-1 10-22-11-47-31-38-28-46 25-46 104 0 109-62 8-101-128-48-119-85 13-48 58 16 123 27 144 24 142-18 218 18 249 117 16 51 9 69-25 69-52 0-78 34-95 127-13 66-117 202-190 249-29 19-25 43 16 105 51 79 51 81-16 63-96-25-113 25-39 119 48 63 62 93 44 90l0 0z m-365-466c-16-1-28-9-40-24-18-21-23-48-11-60 12-12-9-30-47-39-51-14-59-28-35-58 23-27 23-45 1-59-28-17-48-139-23-139 6 0 65 28 133 61 104 50 127 77 137 166 10 86 0 112-55 137-25 11-44 17-60 15l0 0 0 0z" horiz-adv-x="884" />

<glyph glyph-name="spa" unicode="&#xe84b;" d="M1237-12c0-47-88-89-227-116-9-2-14 7-6 10 74 29 143 66 143 106 0 40-68 77-143 105-8 4-3 13 6 11 139-28 227-70 227-116l0 0z m-1000-127c-139 28-227 69-227 116 0 46 88 88 227 116 9 2 14-8 6-11-75-29-143-65-143-106 0-40 68-76 143-105 8-3 3-12-6-10l0 0z m642 229v42c0 50-41 90-91 90h-101c-18 0-31 17-26 34 8 28 31 45 51 64 19 19 30 40 43 64 6 11 14 16 22 25 9 10 17 21 24 33 13 24 21 51 21 79 0 31-9 60-23 84 0 16-2 47-14 81-15 38-46 86-115 106-30 29-70 48-116 48-90 0-164-74-164-165 0-11 1-22 4-32-9-25-13-51-12-78 1-45 16-89 36-128 10-19 13-39 21-58 10-24 25-46 44-63 20-17 40-34 47-60 5-17-8-34-25-34h-90c-50 0-90-40-90-90v-42c-90-21-147-79-147-114 0-37 62-70 159-91 4-1 7 5 2 6-54 23-86 53-86 85 0 29 27 83 72 104v-78c0-35 124-63 277-63 153 0 277 28 277 63v78c45-21 73-75 73-104 0-32-33-62-87-85-4-1-2-7 2-6 97 21 159 54 159 91 0 35-57 93-147 114z m-325 718c17 0 34-3 49-9-34-2-69-13-101-30-31-18-58-41-78-68 12 61 66 107 130 107z m-126-271c-13 33-16 52-14 77 1 7 2 13 4 20 1 7 4 14 6 20 3 7 6 13 10 19 14 25 40 41 67 56 24 13 95 39 131 37 8-1 16-1 24-3 2 0 4 0 6-1 7-2 14-4 21-7 7-2 13-6 19-10 19-13 32-30 41-52 2-8 5-16 6-23 2-7 2-10 2-16 1-3 1-9 1-11 0 0-110 6-181 0-28-2-34-4-44-6-7-2-14-4-19-6-8-3-14-6-20-10-8-5-16-11-22-18-1-1-2-2-3-3-2-2-4-4-6-6-2-3-5-7-7-10-4-6-7-12-10-18-5-10-9-21-11-31l-1 2z m99-205c-6 6-12 12-18 17-16 14-27 31-35 50-7 15-10 31-17 46-8 16-15 32-20 49 2 8 6 16 10 25 3 7 8 15 12 22 3 5 6 9 9 13 2 3 5 5 7 8 1 1 3 3 4 4 8 8 18 16 29 23 7 4 15 8 24 12 8 3 16 5 25 7 13 3 32 4 42 4 82 7 150 0 150 0 2-4 6-9 8-13 1-9 1-16 1-21 12-19 18-42 18-66 0-22-5-44-16-63-5-9-11-18-19-26-7-7-13-11-18-20-9-19-18-36-34-50-7-8-14-14-21-21-22-9-42-38-66-38-25 0-53 29-75 38z m287-263l0 0v-49c0-27-98-50-219-50-120 0-218 23-218 50v49 12 21c0 39 31 71 71 71h70c11 0 19 8 21 17h103c2-9 10-17 20-17h81c39 0 71-31 71-71l0-33 0 0z" horiz-adv-x="1247" />

<glyph glyph-name="rectangle-results" unicode="&#xe84c;" d="M18 300h1116v-438h-1116v438z m0 538h1116v-438h-1116v438z" horiz-adv-x="1152" />

<glyph glyph-name="cog" unicode="&#xe84d;" d="M571 350q0 59-41 101t-101 42-101-42-42-101 42-101 101-42 101 42 41 101z m286 61v-124q0-7-4-13t-11-7l-104-16q-10-30-21-51 19-27 59-77 6-6 6-13t-5-13q-15-21-55-61t-53-39q-7 0-14 5l-77 60q-25-13-51-21-9-76-16-104-4-16-20-16h-124q-8 0-14 5t-6 12l-16 103q-27 9-50 21l-79-60q-6-5-14-5-8 0-14 6-70 64-92 94-4 5-4 13 0 6 5 12 8 12 28 37t30 40q-15 28-23 55l-102 15q-7 1-11 7t-5 13v124q0 7 5 13t10 7l104 16q8 25 22 51-23 32-60 77-6 7-6 14 0 5 5 12 15 20 55 60t53 40q7 0 15-5l77-60q24 13 50 21 9 76 17 104 3 16 20 16h124q7 0 13-5t7-12l15-103q28-9 51-20l79 59q5 5 13 5 7 0 14-5 72-67 92-95 4-5 4-12 0-7-4-13-9-12-29-37t-30-40q15-28 23-54l102-16q7-1 12-7t4-13z" horiz-adv-x="857.1" />

<glyph glyph-name="scenic" unicode="&#xe84e;" d="M718 197c-94 0-171-77-171-171 0-94 77-170 171-170 94 0 170 76 170 170 0 94-76 171-170 171z m95-266c-25-24-58-39-95-39-38 0-71 15-95 39-25 24-40 58-40 95 0 38 15 71 40 95 24 25 57 40 95 40 37 0 70-15 95-40 24-24 39-57 39-95 0-37-15-71-39-95z m-625 544c-4 4-9 6-14 5-6-1-11-4-13-9l-151-257c-3-5-4-10-2-15 2-5 6-9 11-11l443-102c8-3 17 0 21 8l40 67c5 7 4 16-3 22l-332 292z m272-350l-408 89 129 220 305-267-26-42z m103 78l64 46c7 5 9 14 6 22l-230 511c-2 5-7 8-12 10-5 1-11 0-15-3l-238-176c-4-3-7-8-7-13-1-6 1-11 5-15l405-381c6-6 15-6 22-1z m-387 394l203 150 215-478-40-29-378 357z m1254-368l-151 258c-3 4-8 8-13 8-6 1-11 0-15-4l-332-306c-7-6-8-15-4-23l41-67c4-7 13-11 21-7l443 116c5 2 9 6 11 11 2 4 1 10-1 14z m-477-61l306 281 129-219-409-104-26 42z m-157 81l63-47c7-5 17-4 23 2l404 381c4 4 6 9 6 14 0 6-3 11-7 14l-238 176c-5 3-10 4-16 3-5-2-9-5-11-10l-230-511c-4-8-1-17 6-22z m247 498l203-150-378-357-40 29 215 478z m-372-487h79c8 0 16 6 17 14l115 549c1 5 0 10-4 14-3 5-8 7-14 7h-293c-6 0-11-2-14-6-3-4-5-10-4-15l101-548c1-9 9-15 17-15z m64 36h-48l-95 512h251l-108-512z" horiz-adv-x="1439" />

<glyph glyph-name="train" unicode="&#xe84f;" d="M167 409c11-13 26-22 42-25 3-1 6-2 8-3l0 0c4-1 7-2 12-2h275c9 0 19 2 28 6 8 4 16 8 24 15l2 1c6 6 11 13 16 20 6 9 10 20 10 31v205c0 10-3 21-9 30-4 9-10 17-18 23l0 0c-7 5-13 10-20 13l0 0c-10 5-19 8-30 8h-280c-12 0-23-3-33-8h0c-9-5-17-11-23-19l0 0c-6-7-11-14-15-22l-2-4c-3-10-5-19-5-28h0v-191c0-18 7-35 18-49l0-1z m62 18l0 0h0l0 0z m-21 248c1 2 4 4 8 6h0c4 2 7 3 11 3h280 0c1 0 4-1 9-3l0 0c3-1 7-4 13-9l0 0c2-1 3-2 4-5l3-5c0-1 0-1 1-5v-205c0-2-1-3-2-5-3-4-6-8-9-11-5-4-9-6-12-8l-2 0c-1-1-3-2-8-2h-274c-3 2-6 4-10 4-7 1-11 3-16 9l0 0c-6 8-8 13-8 20v190h0c0 3 0 7 2 11 3 5 6 10 10 14l0 1z m78-477h0c-14-16-36-24-57-24-22 0-43 8-57 25v0c-14 15-22 36-21 57-1 20 8 41 23 55l0 0c14 15 34 23 55 23 21 0 41-7 56-21 16-15 24-36 24-57 0-22-8-42-23-58m-34 33c7 7 9 14 10 25-1 11-3 17-9 22-6 6-13 9-24 9-10 0-15-2-22-9-7-7-9-13-9-22 0-12 3-19 9-26v0c6-6 11-9 22-9 11 0 16 3 23 10m0 0l0 0c0 0 0 0 0 0l0 0z m470-330l-130 197c14 7 26 14 38 23 21 16 35 40 42 68l1 2 1 7c0 3 1 6 2 8 0 2 1 5 1 7v492c0 17-5 34-13 49-8 15-19 28-31 40-12 11-26 21-41 29-16 8-32 13-48 13h-352c-16 0-31-4-47-12-15-7-29-17-42-28l0 0c-12-12-22-25-30-40-9-15-14-31-14-47v-499c0-12 3-24 8-36 4-11 11-21 18-30l0 0c7-10 15-18 23-26h0c9-8 18-15 28-20l3-1c1 0 2 0 3-1l-130-195c-4-8-5-17-1-24 4-8 12-13 21-13h85c7 0 15 4 19 10l98 143h266l98-143c5-6 12-10 20-10h84c9 0 17 5 21 12 4 8 4 17-1 25z m-181 189l118-179h-29v0l-99 143c-4 6-11 10-19 10h-290c-8 0-15-4-19-10l-99-143h-28l121 182c2 4 4 9 4 13 0 7-3 11-5 14-3 5-5 6-7 7-3 2-5 3-8 4-2 2-5 3-8 4-7 3-12 5-17 6-5 3-10 6-16 12h0c-6 6-12 12-18 19l0 0c-5 7-9 14-12 21-2 6-4 11-4 17v499c0 6 2 14 8 24 6 11 13 20 22 28 9 9 19 15 30 21h0c10 5 19 7 26 7h352c7 0 15-2 26-8 11-6 21-13 31-22 9-8 16-17 21-28 6-9 8-18 8-26v-488c-1-4-2-8-3-12l0-5c-6-20-14-32-26-41-14-11-30-20-48-27-6-2-10-6-13-11l-1-2 0 0-1-2c-3-7-3-15 0-21l2-4 1-2m20 109c14 15 21 36 21 57 0 20-8 40-22 55-14 15-35 23-56 23-21 0-40-7-56-21h1c-17-14-26-35-25-57-1-22 7-42 22-58l0 0c15-16 36-24 58-24 21 0 43 8 57 25z m-81 32c-6 7-9 14-9 25 0 11 2 16 9 22h0c7 6 14 9 24 9 11 0 16-3 22-9 6-6 9-12 9-22 0-12-3-19-9-26-6-6-11-9-22-9-11 0-17 3-24 10" horiz-adv-x="734" />

<glyph glyph-name="tram" unicode="&#xe850;" d="M147 337c9-11 22-20 36-22 3-2 5-2 7-3l0 0c3-1 6-1 10-1h241c8 0 17 1 25 5 7 3 14 7 21 12l1 2c6 5 10 11 14 17 6 8 9 17 9 27v180c0 9-2 18-8 26-3 8-8 14-15 19l0 0c0 0 0 0 0 0 0 1 0 1 0 1l0 0c-6 5-12 8-18 11l0 1c-8 4-16 7-26 7h-245c-10 0-20-3-29-8h0c-8-4-15-10-20-17l0 0c-5-6-10-12-13-18l-2-4c-3-9-5-17-5-25h0v-166c0-16 6-32 17-44l0 0 0 0z m53 15l0 0 0 0 0 0z m-28 195c0 2 0 6 1 10 3 4 5 8 9 12l0 0c1 2 4 4 8 6h0c3 2 6 2 9 2h245v1c1-1 3-1 7-3l0 0c3-2 7-4 12-8l0 0c1-1 2-2 3-5l3-4c0-1 1-1 1-4v-180c0-1-1-2-2-4-2-4-5-7-8-10-4-3-7-5-10-6l-2-1c-1 0-3-1-7-1h-239c-3 2-6 3-10 3-5 1-9 2-14 8l0 0c-5 7-6 12-7 18v166m461-655l-114 173c12 6 23 12 33 20 19 14 31 35 38 59l0 2 1 6c0 3 1 5 1 7 1 2 1 4 1 7v430c0 14-4 29-11 42-7 13-16 25-27 35-11 10-23 19-36 26-14 7-28 11-42 11h-54l-32 89h55c0 0 3-1 7-3l0 0c2-1 6-4 11-7l1-1c1-1 2-2 3-4l1-3h43c-1 8-4 16-9 23-3 6-7 12-13 17l0 0c0 0-1 0-1 0 0 0 0 0 0 0-6 5-12 9-18 12l0 0c-8 4-16 7-25 7h-246c-10 0-20-3-29-7-8-5-14-10-20-17l0 0c0 0 0 0 0 0 0-1 0-1 0-1l0 0c-5-6-9-12-13-18l-2-4c-1-4-2-8-3-12l44 0c2 3 4 6 6 9l1 1c1 1 3 3 7 5h0c3 2 6 3 9 3h52l-32-89h-51c-14 0-27-4-41-10-13-7-25-15-36-25l0 0c-11-10-20-22-27-35-8-13-12-27-12-41v-437c0-10 2-21 7-31 4-9 9-18 15-27l0 0c7-8 13-15 21-22h0c8-7 16-13 24-17l3-1c1 0 2-1 2-1l-113-171c-4-6-5-15-1-21 4-7 11-11 18-11h74c7 0 13 3 17 9l86 124h232l87-124c3-6 10-9 17-9h74c7 0 14 4 18 11 3 6 3 14-1 21z m-337 907h52l31-89h-115l32 89z m179-742l102-156h-25v0l-86 125c-4 5-10 9-17 9h-253c-7 0-14-4-17-9l-87-125h-24l105 159c2 4 4 8 4 12 0 6-3 10-4 12-3 4-5 5-7 6-2 2-4 3-6 4-2 1-5 2-7 3-7 2-11 4-15 5-4 2-9 6-14 11h0c-6 5-11 11-16 17l0 0c-4 6-8 12-11 18-2 5-3 10-3 14v437c0 6 2 13 7 21 5 9 11 18 19 25 8 7 16 13 26 18 9 4 17 6 23 6h308c6 0 13-2 23-7 10-5 19-11 27-19 7-7 14-15 19-24 4-9 6-16 6-23v-428c-1-4-2-7-2-10l-1-4c-4-17-12-28-22-36-12-10-26-18-42-24-5-1-9-5-11-10l-1-1 0 0-1-2c-3-6-3-13 0-18l2-4 1-2m17 96c12 13 18 31 18 50 0 17-6 35-19 48-12 13-31 20-49 20-18 0-35-6-48-18-15-13-22-31-22-50 0-19 7-37 19-51 13-14 32-21 51-21 19 0 37 7 50 22z m-31 27c-5-5-10-8-19-8-10 0-15 3-21 9l0 0c-5 6-8 12-8 22 0 9 2 14 8 19h0c7 6 12 8 21 8 10 0 14-3 19-8 6-6 8-11 8-19 0-10-3-17-8-23z m-209-28c13 14 20 32 19 51 1 18-6 37-20 49-13 13-31 19-50 19-18 0-35-7-48-20h0c-13-13-20-30-20-48 0-19 6-37 18-50 13-15 31-22 50-22 19 0 38 7 51 21l0 0m-51 20c-9 1-14 3-19 8v0c-5 6-8 13-8 23 0 8 2 13 8 19h0c6 6 11 8 19 8 10 0 16-3 22-8 5-5 7-9 7-19 0-10-2-16-8-22h0l0 0c-6-6-11-8-21-9z" horiz-adv-x="643" />

<glyph glyph-name="gym" unicode="&#xe851;" d="M1724 679h-52v59c0 28-12 56-33 75-41 39-113 39-154 0-21-19-33-47-33-75v-279h-1057v279c0 28-12 56-33 75-41 39-113 39-154 0-21-19-33-47-33-75v-59h-59c-28 0-54-10-74-28-20-19-32-45-32-71v-39-54-272-55-39c0-26 12-52 32-71 20-18 46-28 74-28h59v-59c0-28 12-56 33-75 20-20 48-31 77-31 29 0 56 11 77 31 21 19 33 47 33 75v279h1057v-279c0-28 12-56 33-75 20-20 48-31 77-31 29 0 56 11 77 31 21 19 33 47 33 75v59h52c52 0 98 43 108 78 10 54 2 463 0 502-6 35-56 77-108 77z m-1549-602h-59c-14 0-27 5-37 14-9 8-14 19-14 30v459c0 11 5 22 14 30 10 9 23 14 37 14h59l0-547 0 0z m165-114c0-14-6-26-16-35-20-20-58-20-79 0-10 9-15 21-15 35v775c0 13 5 26 15 35 11 10 25 16 40 16 15 0 29-6 39-16 10-9 16-22 16-35v-775h0l0 0z m1112 334h-1057v107h1057v-107z m165-334c0-14-6-26-16-35-20-20-58-20-78 0-11 9-16 21-16 35v775c0 13 5 26 15 35 11 10 25 16 40 16 14 0 29-6 39-16 10-9 16-22 16-35v-775h0l0 0z m165 164c0-27-26-50-58-50h-52v547h52c32 0 58-23 58-50v-447z" horiz-adv-x="1847" />

<glyph glyph-name="beach" unicode="&#xe852;" d="M579 42c-26 196-79 315-129 385-27 38-55 53-75 68-10 7-19 12-25 15-3 1-6 3-7 3l-2 1c0 0-3 2-12 2-3 1-10-2-13-4-21-13-36-26-46-52l0 0c-5-12-7-25-8-37-2 2-4 4-5 6-5 8-7 14-7 25 0 5 0 11 2 19 1 5 4 13 7 19 5 11 9 20 13 26 12 17 17 30 17 30-17 3-32-3-45-7-23-6-33-12-54-29-23-18-37-42-44-65 0 0 0 1 0 1 0 33 14 64 38 83 10 7 20 13 31 17 13 4 60 21 49 28-16 11-47 24-60 23l0-1c-7 2-14 3-21 3-34 0-65-15-91-32-9-5-16-11-23-17 2 7 8 16 17 25 15 14 35 28 56 38 21 11 42 17 56 18h0c3 1 6 1 9 1 11 0 22-2 33-6 8-2 17-1 24 5 7 5 11 14 10 23-1 9-1 17-1 24 0 9 0 16 1 24 2 24 5 40 11 50 3 5 6 10 13 15 7 5 17 11 31 17 3 1 8 2 14 3-7-6-14-13-19-20-6-8-11-16-14-25-3-9-4-18-4-27 0-12 3-24 5-37 2-15 12-41 14-53 2-20 22 27 30 38 6 10 15 19 25 26l0 0c17 15 41 18 65 18 12 0 24-2 36-6-27-3-55-12-81-33v0c-22-17-38-37-50-58-6-11-20-48-8-44 17 5 32 14 46 28 6 6 12 8 19 8 8 0 13 1 18 1l0 0c3 0 8 0 10-1 9-2 14-4 19-6 7-2 10-5 14-9 1-1 1-1 1-1-6 1-12 2-18 1-6 0-13 0-20-1h0c-30-4-42-14-60-32-5-6-7-13-7-20 0-7 4-14 9-19 3-2 3-2 4-2l3-2c4-2 33-24 59-43 71-53 178-171 227-442 5 3 11 7 19 12l0 0c0 0 0 0 0 0l0 0 0 0c8 6 18 12 29 18-36 182-109 303-177 381-38 43-74 72-101 91-2 2-4 3-6 4 3 1 6 2 9 2h0c4 1 8 1 12 1 18 0 30-5 41-13v0c6-5 56-28 62-22 6 5-8 53-8 55-3 14-9 27-19 40l1 0c-8 10-16 24-31 37-7 6-16 10-26 14 9 2 19 3 29 3 13 0 27-1 40-4v0c2-1 4-1 7-1 9 0 66-26 66-17 0 7-35 65-40 71-15 20-37 39-68 50h0c-19 8-40 12-60 12-26 0-51-6-74-19 0 1 0 1 1 1 7 8 19 17 36 29l0 0c10 7 47 21 100 21 9 0-20 9-26 12-34 14-76 30-81 31-12 4-26 6-41 6-17 0-35-2-51-9-17-7-31-15-43-24-17-13-29-30-35-48-6-18-7-35-9-53-1-8-1-16-1-24-5 0-9 1-14 1-4 0-9 0-13 0l0 0c-32-3-67-18-100-38-16-10-31-21-44-34-13-13-24-27-31-44l0 0c-7-19-11-37-11-54 0-5 0-10 1-14l0 0v0c1-10 9-61 15-66 7-6 43 38 50 48l0 0c6 8 19 21 35 33-10-22-15-45-15-69 0-8 0-16 1-23l0 0c5-32 17-57 33-76l0 0c7-8 53-35 62-34 9 0-2 45-1 54v1c0 19 1 40 6 57 1 4 4 18 5 21 2-14 9-27 15-37 10-17 17-34 25-43 10-12 22-21 34-26 5-3 51-27 56-27 9 0-6 42-9 51-3 8-8 23-8 23-1 12 0 22 0 32 0 9 4 15 6 20v0c4 11 10 19 16 26 5-3 10-7 17-12 25-19 62-57 97-130 28-59 55-141 72-254 5-2 9-3 13-5 19-7 33-17 45-24z m-79 517l0 0c0 0 0 0 0 0l0 0z m-229-182l0 0c0 0 0 0 1 0l-1 0z m-108-371c-8 3-71 9-83 11v51h27c31 0 56-5 76-14 20-8 35-18 47-26l0 0c10-7 17-11 24-14 7-3 15-5 29-5 13 0 21 2 28 5 7 3 14 7 24 14l0 0c12 8 27 18 47 26 21 9 45 14 76 14 25 0 46-4 63-9 5-2 9-3 13-5 18-7 33-17 45-24 0-1 1-1 2-2l-1 0 1 0c10-7 17-11 24-14 6-3 14-5 28-5 14 0 21 2 28 5 2 1 3 2 4 2 6 3 12 7 20 12l0 0c8 6 18 12 29 18 6 3 12 6 18 8 20 9 45 14 76 14 30 0 55-5 75-14 20-8 35-18 47-26l0 0 0 0c10-7 17-11 24-14 7-3 15-5 29-5h26v-58c-21 4-69 12-74 14-14 6-24 13-34 19l0 0c-12 8-23 16-37 22-15 6-32 10-56 10-25 0-42-4-56-10-11-5-20-10-29-16-3-2-6-4-9-6l0 0c-9-6-20-13-33-19-14-5-29-8-48-8-19 0-35 3-48 8-14 6-24 13-34 19l0 0 0 0c-7 5-14 10-22 14-4 3-9 6-15 8-14 6-32 10-56 10-24 0-42-4-56-10-14-6-26-14-37-22l0 0 0 0c-10-6-21-13-34-19-14-5-29-8-48-8-19 0-35 3-48 8-14 6-24 13-34 19l0 0 0 0c-12 8-23 16-38 22z m763-86c7-3 60-12 83-16v-21-26h-26c-31 0-56 6-76 14-20 8-35 18-47 26l0 0c-10 7-17 12-24 14-7 3-15 5-28 5-14 0-22-2-29-5-6-2-13-7-24-14l0 0 0 0c-11-8-27-18-47-26-20-8-45-14-75-14-31 0-55 6-76 14-20 8-35 18-47 26-10 7-17 12-24 14-6 3-14 5-28 5-14 0-21-2-28-5-7-2-14-7-24-14l0 0c-12-8-27-18-47-26-20-8-45-14-76-14-30 0-55 6-76 14-20 8-35 18-47 26l-1 1 1-1c-10 7-17 11-24 14-8 3-16 5-30 5h-26v54c8-2 68-7 75-10 13-5 24-13 34-19l0 0c12-8 23-16 38-21 14-6 32-10 56-10 25 0 42 4 56 10 14 5 26 13 38 21l0 0 0 0c10 6 20 13 33 19 14 5 29 8 48 8 19 0 35-3 48-8 11-4 19-10 27-15 2-1 4-3 7-4 9-7 19-13 30-18 2-1 4-2 7-4 14-5 32-9 56-9 24 0 42 4 56 9 3 2 5 3 7 4 9 5 18 10 26 15 1 1 3 2 4 3l0 0c10 6 20 13 34 19 13 5 29 8 48 8 19 0 34-3 48-8 13-6 23-13 33-19l0 0c12-8 23-16 37-21z" horiz-adv-x="1017" />

<glyph glyph-name="conceirge" unicode="&#xe853;" d="M82 570c-23-54-13-118 31-162 56-56 149-56 205 0 5 5 10 10 14 16l116-117 90 90-117 117c7 6 14 11 21 18 27 27 42 64 42 103 0 39-15 75-42 103-44 43-109 53-162 30-6 11-14 22-23 31-57 57-149 57-206 0-57-56-57-149 0-206 9-9 20-17 31-23z m20 178c28 28 74 28 103 0 11-12 21-24 23-41l10-49 48 32c28 28 75 25 103-3 14-14 22-33 22-52 0-20-7-38-21-52-16-16-39-24-62-20l-48 7 7-48c4-24-4-46-21-62-28-28-75-27-103 1-28 28-31 75-3 103l27 44-44 11c-17 2-30 16-42 27-28 28-28 74 1 102z m970 51c-57 57-149 56-206 0-10-10-18-20-24-31-53 23-118 13-161-31-28-27-43-64-43-103 0-39 15-75 43-103 6-6 13-12 21-17l-410-410-26 26 26 26-64 64-110-109 34-34-24-23-33 33-47-46 64-65 26 26 26-26-13-13c-21-21-20-56 1-78 1-1 3-2 4-3 1-2 4-4 5-6 21-21 59-24 80-3l551 551c4-6 8-11 13-16 57-56 149-56 206 0 43 44 53 109 30 162 11 6 22 14 31 23 57 57 57 149 0 206z m-51-154c-11-11-24-22-40-24l-42-15 23-42c28-28 26-75-2-103-28-28-75-29-104 0-16 16-24 38-20 61l7 48-49-7c-23-3-45 4-61 20-14 14-21 33-21 52 0 20 8 39 22 52 28 28 75 31 102 3l48-28 11 47c3 16 12 28 23 39 28 28 74 28 103 0 28-28 28-74 0-103z m-13-669l65 64-54 53-32-32-23 23 32 32-103 104-64-64 25-26-25-26-158 157-90-89 299-299c22-22 59-18 81 3 1 1 3 4 4 5 1 1 4 3 5 4 21 21 22 56 0 78l-13 12 26 26 25-25z" horiz-adv-x="1123" />

<glyph glyph-name="calendar-1" unicode="&#xe854;" d="M1112 772h-6-135v35c0 20-16 36-35 36h-106c-19 0-35-16-35-36v-35h-111v35c0 20-16 36-35 36h-106c-19 0-35-16-35-36v-35h-135v35c0 20-16 36-35 36h-106c-19 0-35-16-35-36v-35h-141c-19 0-35-15-35-35v-844c0-20 16-36 35-36h1056c19 0 35 16 35 36v844c0 20-16 35-35 35z m-211 0v-70h-35v70h35l0 0z m-323 0h35v-70h-35v70z m-311 0h35v-70h-35v70z m809-844h-984v774h105v-35c0-20 16-36 35-36h106c19 0 35 16 35 36v35h29 106v-35c0-20 15-36 35-36h106c19 0 35 16 35 36v35h111v-35c0-20 16-36 35-36h106c19 0 35 16 35 36v35h106l-1-774 0 0z m-421 281h-141c-19 0-35-15-35-35v-140c0-20 16-36 35-36h141c19 0 35 17 35 36v140c0 20-16 35-35 35z m-36-140h-70v70h70v-70z m36 422h-141c-19 0-35-16-35-35v-141c0-20 16-35 35-35h141c19 0 35 16 35 35v141c0 19-16 35-35 35z m-36-141h-70v71h70v-71z m317-141h-141c-19 0-35-15-35-35v-140c0-20 16-36 35-36h141c19 0 35 17 35 36v140c0 20-16 35-35 35z m-35-140h-71v70h71v-70z m-528 422h-141c-20 0-35-16-35-35v-141c0-20 16-35 35-35h141c19 0 35 16 35 35v141c0 19-16 35-35 35z m-35-141h-71v71h71v-71z m35-141h-141c-20 0-35-15-35-35v-140c0-20 16-36 35-36h141c19 0 35 17 35 36v140c0 20-16 35-35 35z m-35-140h-71v70h71v-70z m598 422h-141c-19 0-35-16-35-35v-141c0-20 16-35 35-35h141c19 0 35 16 35 35v141c0 19-16 35-35 35z m-35-141h-71v71h71v-71z" horiz-adv-x="1168" />

<glyph glyph-name="arrow-right" unicode="&#xe855;" d="M493 368l-444 468c-4 4-10 7-17 7-14 0-25-11-25-25 0-6 3-13 7-17l427-451-427-451c-4-4-7-10-7-17 0-14 11-25 25-25 7 0 13 3 17 7l444 469c4 4 7 10 7 17 0 7-3 13-7 18" horiz-adv-x="507" />

<glyph glyph-name="weddings" unicode="&#xe856;" d="M1146 518c-73 73-171 114-275 114-40 0-86-9-131-24-38-13-75-31-106-52-16 11-33 23-51 32-9 4-20 2-28-5l-75-80c-5-6-7-14-6-21 2-8 7-14 14-17 2-1 5-2 7-2 12-5 24-12 36-19-26-52-50-119-49-201 0-70 19-138 54-197-36-20-82-40-135-41-2 0-6 0-8 0-63 0-120 27-162 70-41 44-67 104-67 168 0 101 63 188 152 223 7 3 13 9 14 16 2 8 0 16-6 22l-75 80c-7 8-18 9-27 5-35-18-67-42-95-70-73-73-114-171-114-275 0-104 41-202 114-275l0 0c73-74 171-115 275-115 96 0 177 39 237 77 64-47 142-74 222-76h0c3 0 7 0 10 0 104 0 202 40 275 114 73 73 114 171 114 275 1 102-40 200-114 274z m-379-407c11 33 21 66 23 93l0 0c2 12 2 25 2 38l0 0c0 69-19 137-53 195 13 9 26 17 42 24 22 10 50 17 92 20 5 0 10 0 15 0 61 0 116-27 157-72 40-44 65-104 65-167 0-66-27-126-70-169-43-43-103-70-168-70-47 0-93 15-132 40 9 20 19 44 27 68z m-190 427c11-7 21-14 31-21l0 0c17-13 32-27 46-43 5-6 11-13 17-19 46-60 74-135 74-212 0-12 0-23-1-35l0 0c-2-20-10-51-21-81-6-19-13-37-20-52-1 0-1 0-1 0-17 17-30 36-41 57l-4 10c9 37 17 86 17 133 0 30-3 59-13 85 0 2-1 4-2 6 0 0-1 1-1 2-2 3-3 6-4 9-6 12-14 23-22 34 0 0 0 1 0 2l0 0c-1 1-2 2-3 4-1 0-1 1-1 1-9 12-19 23-30 32-18 17-39 32-61 45l40 43z m-417-538l0 0c-64 65-100 151-100 243 0 91 35 177 100 242 21 21 44 38 69 53l41-43c-90-49-152-143-152-252 0-77 30-148 80-200 50-52 119-85 195-85 4 0 7 0 11 0 64 3 117 26 157 48 11-15 22-30 36-43l0 0c1-1 1-2 2-2-54-33-121-61-196-61-92 0-178 35-243 100z m954 0c-65-65-151-100-242-100-4 0-6 0-9 0h0c-78 2-156 32-215 83l0 0c-75 64-119 161-119 260 0 68 18 124 39 171 10-9 18-18 25-28 5-8 11-18 16-27 2-1 2-3 3-5-14-26-25-64-26-106v-6c1-44 12-88 32-128l2-3 0 0c11-28 30-51 51-70 2-2 3-4 5-6l0 0c5-4 10-8 15-13 2-1 3-2 4-3 0 0 0 0 1 0 50-39 112-61 176-61 157 0 285 128 285 285 0 76-30 147-78 199-48 53-116 87-191 87-6 0-12 0-18-1-46-3-80-12-108-24-19-8-35-18-49-28l0 0-1 2c0 0-1 1-1 1-10 13-21 25-32 37-1 2-3 4-5 6-1 1-2 2-3 2 25 16 54 29 84 40 41 13 83 21 116 21 92 0 178-35 242-100 65-65 100-151 101-242 0-92-36-178-100-243z m-752 509l0 0c11-12 26-18 41-18 14 0 29 6 41 18l0 0 31 33 131 139 0 0c10 11 15 25 15 39 0 10-2 21-8 30l-45 70 0 0c-10 16-28 26-47 26h-236c-19 0-37-10-47-26l0 0-45-70c-6-9-9-20-9-30 0-14 6-28 16-39l162-172z m-129 216l44 70 0 0c2 3 5 4 8 4h236c3 0 6-1 8-4l0 0 44-70 2-5c0-3-1-5-3-7l0 0-130-139-32-33 0 0c-2-2-4-3-7-3-2 0-5 1-6 3l0 0-163 173 0 0c-1 1-2 4-2 6l1 5z m-33-44l0 0 0 0z" horiz-adv-x="1273" />

<glyph glyph-name="arrow-up-o" unicode="&#xe857;" d="M750 260c13 0 22 11 22 22 0 5-3 10-6 16l-247 225c-2 2-11 5-16 5-6 0-11-3-17-5l-246-225c-3-3-6-11-6-16 0-14 11-22 22-22 6 0 11 2 17 5l230 208 230-208c3-3 8-5 17-5m-247 583c-274 0-493-219-493-493 0-271 222-493 493-493 271 0 493 219 493 493 0 271-219 493-493 493z m0-940c-247 0-447 200-447 447s200 447 447 447c247 0 447-200 447-447s-200-447-447-447z" horiz-adv-x="1006" />

<glyph glyph-name="social" unicode="&#xe858;" d="M1084 509c0 182-175 329-391 329-161 0-299-82-359-200 19 2 39 4 59 5 58 87 171 146 300 146 189 0 342-126 342-281 0-75-36-146-102-199-16-13-22-33-17-52l21-71-101 39c-2-17-6-33-10-48l185-71-47 165c74 60 120 144 120 238m-684 85c-215 0-390-147-390-329 0-94 46-178 120-238l-47-165 219 84c32-7 64-11 99-11 215 0 390 148 390 330 0 182-175 329-391 329m0-610c-28 0-58 3-88 10-3 0-6 1-10 1-6 0-12-1-18-4l-127-49 20 71c6 19-1 39-16 52-66 53-102 124-102 199 0 155 153 281 341 281 189 0 342-126 342-281 0-154-153-280-342-280" horiz-adv-x="1093" />

<glyph glyph-name="park" unicode="&#xe859;" d="M1266 334c-58 0-106 40-120 94 23-19 52-30 83-30 13 0 23 11 23 24 0 12-10 23-23 23-45 0-82 34-86 78 14-9 31-14 49-14 13 0 23 10 23 23 0 13-10 23-23 23-28 0-50 23-50 51 0 13-10 23-23 23-13 0-24-10-24-23 0-28-22-50-50-51-13 0-23-10-23-23 0-13 10-23 23-23 18 0 35 5 50 14-5-44-42-78-87-78-13 0-23-10-23-23 0-13 10-24 23-24 31 0 61 11 83 30-13-54-61-94-120-94-12 0-23-10-23-23 0-13 10-23 23-23 48 0 90 19 121 50 1 1 2 3 3 4v-91c0-12 11-23 24-23 13 0 23 10 23 23v91c1-1 2-3 3-4 31-31 74-50 121-50 12 0 23 10 23 23 0 13-10 23-23 23z m-284 208c-34 0-65 14-88 36-15 16-26 36-32 58 23-19 52-30 83-30 13 0 23 11 23 24 0 12-10 23-23 23-45 0-82 34-87 78 15-9 32-14 50-14 13 0 23 10 23 23 0 13-10 23-23 23-28 0-50 23-50 51 0 12-11 23-23 23-14 0-24-10-24-23 0-28-22-51-50-51-13 0-23-10-23-23 0-12 10-23 23-23 18 0 35 5 49 14-2-20-11-39-24-53-16-15-38-25-62-25-13 0-23-10-23-23 0-13 10-24 23-24 31 0 60 11 83 30-5-22-16-42-32-58-22-22-53-36-88-36-12 0-23-10-23-23 0-13 10-23 23-23 50 0 93 21 124 54v-91c0-12 10-23 24-23 12 0 23 10 23 23v91c31-33 75-54 124-54 12 0 23 10 23 23 0 13-10 23-23 23z m1-622l0 0 0 0z m25 209h-158l-88 138h99c26 0 47 21 47 48v43c0 26-21 47-47 47h-632c-26 0-47-21-47-47v-43c0-26 21-48 47-48h99l-87-138h-177c-26 0-48-21-48-47v-43c0-26 22-48 48-48h89l-46-71 0 0c-4-6-5-13-5-20 0-10 3-19 10-26 6-6 16-11 27-11h77c12 0 24 7 31 18l71 111h454l71-111 0 0c7-11 19-18 32-18h77c10 0 20 5 26 11 7 7 10 16 10 26 0 7-2 14-6 20l-45 71h71c26 0 47 22 47 48v43c1 27-21 47-47 47z m2-90l-2-1h-154l82-129h-56l-82 129h-505l-82-129h-56l82 129h-173l-2 1v43l2 1h202l146 230h-183l-1 2v43l1 1h632l1-1v-43l-1-2h-183l146-230h184l1-1v-43h1l0 0z m-542 274l-146-230h42 405l-147 230h-154z m-62-184l88 138h103l88-138h-279z" horiz-adv-x="1305" />

<glyph glyph-name="eco" unicode="&#xe85a;" d="M511 350m-457-480v1h0l0-1z m948 928c0 11-5 22-12 30-7 7-17 12-29 12l0 0h-1c-7 0-14-2-20-5l0 0c-107-58-233-66-362-81l0 0c-62-7-125-16-187-35-13-4-26-8-39-13l0 0c-39-15-77-35-113-61l0 0c-33-25-61-55-84-87l0 0c-37-51-62-109-83-168l0 0c-34-100-51-204-51-309 0-10 0-19 0-28 1-45 2-93 14-141l0 0c1-5 3-11 5-18 3-7 6-16 14-23 8-7 18-11 27-11 10 0 20 4 27 10 7 7 13 17 13 29 0 3-1 7-2 11l0 0c-9 30-13 62-13 95 0 65 16 133 41 191 21 50 51 89 90 121 38 32 84 56 135 75l0 0c16 5 32 11 48 16-23-20-54-40-79-53l0 0c-61-31-106-72-137-111-15-20-27-39-35-58-8-18-13-35-13-52 0-13 3-27 13-38 4-6 10-10 17-13 7-3 14-4 21-4 9 0 18 2 27 6l0 0c43 18 86 27 131 34 45 7 92 12 144 22l0 0c37 7 74 16 109 31 138 57 235 169 293 302l0 0c43 100 58 213 89 310l0 0c1 5 2 9 2 14z m-931-902l0 0c0 0 0 0 0 0l0 0z m794 598l0 0c-54-123-143-224-266-276-31-13-64-21-99-27l0 0c-50-10-96-14-143-22-47-7-94-17-142-38l0 0c-5-2-8-2-8-2l0 0c0 1-1 2-1 5 0 7 3 19 9 33 18 42 67 102 149 144l0 0c35 19 79 46 109 79 4 5 6 9 7 12 1 4 1 7 2 11 0 3 0 7 0 10 0 7 0 13-2 20 0 3-1 7-4 11-1 3-3 6-7 9-3 3-10 6-17 6l-3 0-2-1-4 0c-29-9-59-18-88-29l0 0c-56-20-107-47-151-83-43-36-79-82-104-139-11-27-20-57-28-86 5 82 20 165 47 243l0 0c19 57 43 110 75 156l0 0c21 28 45 54 74 75l0 0c32 23 66 41 101 55l0 0c12 4 24 8 36 12 56 17 116 26 178 33l0 0c121 14 248 22 364 79-28-98-45-203-82-290z" horiz-adv-x="1023" />

<glyph glyph-name="return-arrow" unicode="&#xe85b;" d="M322 711v112c0 13-10 23-23 23-6 0-12-3-16-7l-270-248c-4-4-6-10-6-16 0-6 2-12 6-16l270-248c4-4 10-6 16-6 13 0 23 10 23 22v111c48-3 167-15 297-70 222-94 334-259 334-491 0-13 10-23 22-23 13 0 23 10 23 23 0 740-557 824-676 834m0-226h-23c-12 0-22-10-22-22v-84l-214 196 214 197v-84c0-13 10-23 22-23h23c98-6 455-58 586-469-167 248-494 284-586 289" horiz-adv-x="1004" />

<glyph glyph-name="world" unicode="&#xe85c;" d="M511 350m57-99c-48 41-42 59-103 59-62 0-100-14-84-99 15-86 61-47 57-113-5-65 11-79 21-95 10-16 40-61 51 3 12 64 33 100 57 131 25 31 50 72 1 114m196 3c-16-10-15-32-2-44 13-12 40-28 49 0 9 28-30 54-47 44m-363 146c2 32 55 67 91 82 36 16 68 21 64 49-4 27-14 47-70 47-55 0-31-75-77-30-46 44 10 32 33 43 23 10 45 51 5 54-40 3-31-17-62-6-32 12-46-40-66-33-13 5-48 32-72 58-47-40-85-90-110-147 6-77 48-117 48-117s22-50 150-111c0 0 24-1-4 27-29 29-60 64-24 83 35 18 45 17 54-17 8-35 37-15 40 18m110 451c-276 0-501-224-501-501 0-277 225-501 501-501 277 0 502 224 502 501 0 277-225 501-502 501m0-957c-251 0-455 204-455 456 0 252 204 456 455 456 252 0 456-204 456-456 0-252-204-456-456-456m409 494c-1 4-1 8-2 12-1 8-2 17-3 25-1 5-2 9-3 13-2 9-4 17-6 26-1 3-2 7-3 11-4 11-8 21-12 32-2 4-4 9-6 13-3 7-6 13-9 19-3 5-6 11-9 16-3 5-5 9-8 14-4 5-7 11-11 17-3 2-5 6-7 8-16 22-34 42-54 60-1 1-2 2-3 3-8 7-15 13-22 18 0 1-1 1-1 1-33 25-69 45-108 59-12-19-23-42-37-50-20-11-19-57 20-53 0 0-12-11 0-52 11-41 30-51 87-27 24 10 42 5 39-20-5-53-46-50-15-135 18-52 64-72 81-111 10-22 45-42 76-56 3 11 6 21 9 33 1 4 1 8 2 12 2 8 3 17 4 25 1 4 1 8 1 12 2 13 2 25 2 38 0 12-1 25-2 37" horiz-adv-x="1023" />

<glyph glyph-name="parking" unicode="&#xe85d;" d="M783 638c-14 40-38 76-73 106-29 30-63 53-107 68-44 16-98 23-168 23h-391c-8 0-15-4-21-9-5-6-9-13-9-21v-910c0-8 4-15 9-21 6-5 13-9 21-9h164c8 0 15 4 21 9 5 6 9 13 9 21v307h197c70 0 124 7 167 21 44 13 78 34 107 58l0 0c31 27 55 61 70 100 15 40 22 84 22 132 0 44-4 86-18 125z m-59-235c-12-31-30-57-53-76l0 0c-25-21-51-36-87-48-35-11-82-18-149-18h-227c-8 0-16-3-21-8-6-6-9-13-9-21v-10-297h-104v850h361c67 0 113-6 149-19 35-12 60-29 85-54l2-2 0 0c27-24 45-50 56-81 11-31 15-67 15-105 0-43-6-80-18-111z m-147 237l0 1c-17 22-40 39-67 50-27 11-58 16-93 16h-209c-8 0-16-3-21-9-6-5-9-13-9-20v-328c0-8 3-15 9-21 5-5 13-9 21-9h218c35 0 64 5 88 15 25 9 44 23 60 39l3 4 0 0c14 18 27 36 36 58 10 22 16 47 15 77 1 27-5 51-15 71-9 21-22 38-36 56z m-84-250c-17-6-38-10-67-10h-188v268h179c29 0 53-4 71-12 18-7 31-17 42-31l0 0c13-18 23-32 30-46 6-14 9-26 9-46 0-23-4-39-10-53-6-14-15-28-28-45-11-11-23-19-38-25z" horiz-adv-x="816" />

<glyph glyph-name="map-view" unicode="&#xe85e;" d="M1184 386c0 13-9 23-20 27l0 0-335 167-1-1c-2 1-4 2-7 2-3 0-5-1-8-2l0 1-54-24c16 36 27 72 27 108 0 98-80 177-179 177-99 0-179-79-179-177 0-73 45-151 90-211l-88-38-272 137 0-1c-3 1-5 2-8 2-15 0-28-13-28-28l-111-444c0-13 8-23 20-26l0-1 391-194 0 0c3 0 5-1 8-1 2 0 5 0 7 1l0 0 384 164 383-164 1 0c2 0 4-1 7-1 15 0 28 12 28 27l-56 500z m-577 366c49 0 89-39 89-88 0-49-40-89-89-89-49 0-89 39-89 89 0 49 40 88 89 88z m-205-829l-335 179 111 386 224-123v-442l0 0z m391 151l-335-151v442l96 44c30-35 53-56 53-56s59 54 109 128l77 35v-442l0 0z m56 0v442l279-151 56-442-335 151z" horiz-adv-x="1250" />

<glyph glyph-name="shopping" unicode="&#xe85f;" d="M730-141h-720l46 753h164v81c0 82 66 148 147 148 82 0 150-67 150-149v-189c13-8 22-22 22-38 0-26-21-46-46-46-26 0-46 20-46 46 0 16 9 31 22 39l0 62h-155v46h155l0 90c0 56-46 99-102 99-56 0-100-43-100-99l0-198c13-8 22-23 22-39 0-26-20-46-46-46s-46 20-46 46c0 16 9 31 23 39v62h-126l-40-661h632l-40 661h-84v46h123l45-753z" horiz-adv-x="740" />

<glyph glyph-name="compass-1" unicode="&#xe860;" d="M31 1322m501-1003c17 17 17 46 0 63-18 18-46 18-64 0-17-17-17-46 0-63 18-18 46-18 64 0m-318-254l381 190 191 381-381-191-191-380z m477 476l-127-254-254-127 127 254 254 127z m-191 303c-273 0-494-221-494-494 0-273 221-494 494-494 273 0 494 221 494 494 0 273-221 494-494 494m22-941v66c0 12-10 22-22 22-12 0-22-10-22-22v-66c-230 11-414 195-426 425h67c12 0 22 10 22 22 0 13-10 23-22 23h-67c12 229 196 414 426 425v-66c0-12 10-22 22-22 12 0 22 10 22 22v66c230-11 414-195 426-425h-67c-12 0-22-10-22-23 0-12 10-22 22-22h67c-12-230-196-414-426-425" horiz-adv-x="1000" />

<glyph glyph-name="clock" unicode="&#xe861;" d="M902 350c0 221-180 400-400 400-221 0-400-179-400-400 0-150 83-282 206-350l-90-90c-12-12-12-32 0-44 6-5 14-9 22-9s16 4 22 9l106 107c42-15 87-23 134-23s91 8 133 23l107-107c6-5 14-9 21-9s16 4 22 9c12 12 12 32 0 44l-90 90c123 68 207 200 207 350z m-260-308c-8-2-24-10-25-10-36-13-75-21-115-21-41 0-80 8-116 21 0 0-16 8-25 10-117 53-198 172-198 308 0 187 152 339 339 339 186 0 338-152 338-339 0-137-81-255-198-308z m-4 274l-106 53v166c0 17-13 30-30 30-17 0-31-13-31-30v-185c0-12 6-22 17-28l123-61c5-2 9-3 14-3 11 0 22 6 27 17 8 15 2 34-14 41z m-353 474c-4 11-13 19-24 21l-154 31c-9 2-20-1-27-8l-62-62c-7-7-10-17-8-28l30-154c3-11 11-20 22-23 3-1 6-1 9-1 8 0 16 3 22 9l184 185c8 7 11 19 8 30z m-195-131l-16 81 38 38 81-16-103-103z m843-93c3 0 6 0 9 1 11 3 19 12 21 23l31 154c2 10-1 21-8 28l-62 61c-7 8-18 11-28 9l-154-31c-11-2-20-11-23-21-4-11 0-23 8-31l184-185c6-5 14-8 22-8z m-41 212l38-38-16-81-103 103 81 16z" horiz-adv-x="1003" />

<glyph glyph-name="tick" unicode="&#xe862;" d="M502 224l-207 209c-2 2-11 5-16 5-14 0-22-11-22-22 0-5 3-11 5-16l226-226c3-3 11-5 16-5 6 0 11 2 17 8l0 0 374 393 0 0 33 33 0 0 63 69 0 0c3 3 6 8 6 16 0 14-11 22-22 22-6 0-11-2-17-8l0 0-58-63 0 0-30-33 0 0-368-382z m453 313c-8 8-22 8-33 0-5-5-8-16-5-22l0 0c19-52 33-107 33-165 0-247-201-448-448-448-248 0-449 201-449 448s201 448 449 448c126 0 242-52 321-137l0 0c9-8 22-8 31 0 8 8 8 22 0 33 0 0-3 0-3 3-88 88-212 145-349 145-273 0-493-220-493-492 0-272 220-492 493-492 272 0 492 220 492 492 0 63-14 124-33 179 0 3-3 5-6 8" horiz-adv-x="1006" />

<glyph glyph-name="location-marker" unicode="&#xe863;" d="M367 303c-99 0-181 80-181 179 0 98 82 178 181 178 101 0 180-80 180-178 3-96-79-179-180-179l0 0z m0 538c-200 0-362-159-362-357 0-290 362-625 362-625s361 335 361 625c3 198-161 357-361 357l0 0z" horiz-adv-x="733" />

<glyph glyph-name="restaurant" unicode="&#xe864;" d="M627 255c-4 5-24 24-53 53 15 18 32 35 51 49 26 19 58 31 98 32h1 0 4c37 0 75 13 105 39l0 1 7 6 2 2 181 229c8 10 7 24-2 33l-21 22-36 38 0 0-19 20-1 0-45 42-19 20c-9 9-23 10-33 2l-219-171-1 0c0 0-2-2-4-4-3-2-6-5-8-7-31-31-46-72-46-113 0-4 0-9 0-14-2-34-11-61-23-83-14-26-34-44-54-59-167 167-426 425-426 425l-18 18-34-34-2-7c0-2-2-9-2-21 0-29 9-87 62-181 45-81 124-191 258-333 0 0 0 0 0 0 11-11 23-23 34-35 10-10 21-21 31-31l9-9c26 27 49 50 65 65-2 0-3 1-5 1-15 0-30-4-46-10-6 6-13 12-19 19-12 12-23 23-34 35 0 0 0 0 0 0-132 139-208 246-251 322-36 66-49 110-53 136 72-71 256-255 388-387 12-12 24-24 36-36 9-9 18-18 26-26 13-13 25-25 36-36 26-26 43-43 47-46 12-12 80-81 145-146 33-32 64-64 88-88 16-16 29-29 35-34l6-7c4-5 7-11 7-18 0-7-3-13-8-19-5-5-12-8-19-8-7 0-13 3-19 8l-18 18c-6 5-11 11-18 17-59 59-176 174-203 201-1 1-1 1-1 1 0 0 0 1 0 1-2 4-4 10-8 17-8 15-21 36-40 53-6 5-13 11-20 15-14 9-32 16-52 17-16-16-39-39-65-65-31-31-67-67-102-102-86-86-168-168-168-168l0-1c0 0-1 0-1 0l0 0c-6-5-13-8-20-8-7 0-14 3-20 8-5 6-8 12-8 20 0 7 3 14 8 19l1 1c0 0 164 165 270 271-12 12-23 23-34 35-31-30-66-66-101-101-43-43-86-86-117-117-29-29-48-48-52-52l-2-2c-15-15-23-34-23-54 0-20 8-40 23-55 15-15 35-22 55-22 19 0 39 7 54 22l0 1c0 0 1 0 1 0 0 0 222 223 316 317 3-2 7-3 10-5 14-8 26-23 35-37 5-7 8-14 11-19 2-5 3-9 4-10l1-6 5-4c21-22 243-240 243-240l20-15c11-5 23-8 34-8 20 0 39 7 54 22 15 15 22 35 22 54 0 16-5 33-16 47l-1 3c0 0 0 0 0 0l-1 1-1 2c-1 0-1 1-2 2l-1 1 0-1-1 2-3 2-1-1c-30 30-242 243-268 269l1 1 0 0-1-1c-1 0-1 0-1 0m-567 499c0 0 0-1 0-1m531-614l0 0c0 0 0 0 0 0l0 0z m315-166l0 0 0 0 0 0z m-10 13l0-1-1 1 1 0z m-355 357c-4 5-9 9-14 14 16 13 33 28 47 48 24 31 41 73 44 127v4c0 4 0 8 0 12 0 29 11 57 32 78l5 5 4 3 201 157 5-5 1 0 8-8-216-216 35-35 216 217 1-1 18-17-217-217 35-35 215 216 3-3 1-1 6-6-167-211-4-4c-21-18-47-27-73-27h-3-2 0c-39 0-73-10-101-25-34-19-60-45-80-70z" horiz-adv-x="1038" />

<glyph glyph-name="global" unicode="&#xe865;" d="M485 692c0 0-7-7 0-31s18-30 52-16c14 6 25 3 24-12-4-30-28-29-10-79 11-30 39-41 49-65 3-8 13-15 25-22 6 20 9 40 9 62 0 96-62 178-147 209-5-6-9-12-14-15-12-7-11-34 12-31m-102-189c-37 0-60-8-50-58 9-50 36-27 33-66-2-38 7-46 13-56 4-5 11-15 17-17 2 0 3 0 3 0 4 1 8 6 11 19 6 37 19 58 34 77 14 18 29 42 0 66-28 25-25 35-61 35m179-33c-10-5-9-18-1-25 8-7 24-17 29 0 5 16-18 31-28 25m-152-254c173 0 313 140 313 313 0 172-140 312-313 312-172 0-312-140-312-312 0-173 140-313 312-313m0 581c148 0 268-120 268-268 0-148-120-268-268-268-148 0-268 120-268 268 1 147 120 268 268 268m279-503c-6 0-11-2-15-6l0 0c-66-71-159-116-264-116-197 0-357 160-357 357 0 103 44 196 114 261l-1 0c6 4 10 11 10 18 0 13-10 22-23 22-6 0-12-2-16-7l0 0c-79-73-129-178-129-294 0-214 168-389 380-401v-224h-134c-13 0-22-10-22-23 0-12 10-22 22-22h313c12 0 22 10 22 22 0 12-10 22-22 22h-134v225c107 6 203 54 272 128l0 0c4 4 7 9 7 16 0 12-10 22-23 22m-473 262c0 0 13-29 89-65 0 0 15-1-2 16-17 16-36 37-15 48 22 11 27 10 33-10 5-20 22-8 23 11 2 19 34 39 55 48 21 10 41 13 38 29-2 16-8 27-42 27-33 0-18-43-45-17-28 25 6 19 19 25 14 6 27 30 4 31-24 2-19-10-38-3-18 7-27-23-39-19-6 2-19 11-30 21-34-28-58-66-70-109 8-22 20-33 20-33" horiz-adv-x="731" />

<glyph glyph-name="ac" unicode="&#xe866;" d="M245-29l0 0 0 0z m327-12l0 0 0 0z m81 28l0 0 0 0z m82 69l0 0 0 0z m59 101l0 0-49 28 25 6c26 7 44 31 44 57 0 5-1 10-2 15l0 0c-7 26-31 43-57 43-5 0-10-1-15-2l-137-37-113 65 113 66 137-37 0 0c5-1 10-2 15-2 26 0 50 17 57 43l0 0c1 5 2 10 2 15 0 26-18 49-44 56l-25 7 49 28 0 0c18 11 29 30 29 50 0 10-3 21-8 29l0 0 0 0c-11 19-30 30-50 30-10 0-20-3-29-8l-49-28 7 25v0c1 5 2 10 2 15 0 26-17 49-43 56l0 0 0 0 0 0 0 0c-5 2-10 2-16 2-25 0-49-17-56-43l-37-137-72-42-1 101 101 101c11 11 17 26 17 41 0 15-6 30-17 41-11 11-26 17-41 17-15 0-30-6-41-17l-19-18v56l0 0c0 32-26 58-58 58-21 0-40-12-50-29l0 0c-5-9-8-19-8-29v-56l-18 18c-12 11-26 17-41 17-15 0-30-6-41-17l0 0c-4-4-7-7-10-12-5-9-7-19-7-29 0-15 5-30 17-41l0 0 100-101 1-100-71 41-37 137 0 0c-7 26-30 43-56 43-5 0-10 0-15-2l0 0 0 0 0 0 0 0c-26-7-43-30-43-56 0-5 0-10 2-15l0 0 6-25-48 28 0 0c-9 5-19 8-29 8-20 0-40-11-51-30l0 0c-5-8-7-19-7-29 0-20 10-39 29-50l0 0 48-28-25-7c-26-6-43-30-43-56 0-5 0-10 2-15l0 0c7-26 30-43 56-43 5 0 10 1 15 2l138 37 112-66-112-65-138 37 0 0c-5 1-10 2-15 2-26 0-49-17-56-43l0 0c-2-5-2-10-2-15 0-26 17-49 43-57h0l25-6-49-28 0 0c-18-11-29-31-29-51 0-9 3-20 8-29l0 0c11-18 30-29 50-29 11 0 21 3 30 8l48 28-7-25c-1-5-2-10-2-15 0-26 18-50 43-57l0 0c5-1 10-2 16-2 18 0 35 9 46 24 0-3-1-6-1-9 0-10 3-20 8-29 3-5 6-8 9-12l0 0c12-11 26-17 41-17 15 0 30 6 41 17l19 18v-56c0-10 3-20 8-29l0 0c10-17 28-29 50-29 32 0 58 27 58 58v56l19-18 0 0c11-12 26-18 41-18 14 0 29 6 41 17 11 12 17 27 17 41 0 6-1 11-3 16 11-18 30-30 51-30 5 0 10 1 15 2 26 7 43 31 43 56 0 5-1 10-2 15v1l-6 25 48-28c9-5 19-8 29-8 20 0 40 11 50 29l0 0c6 9 8 19 8 29 1 20-10 40-28 51z m-540-116l0 0c-2-2-3-4-4-6l35 131 70 41 0-65-101-101z m318 0l-100 101v66l73-42 36-137c-2 4-5 8-9 12z m210 55l0 0c-4-6-10-10-18-10-3 0-7 1-10 3l-127 74 30-114c1-2 1-3 1-5 0-9-6-17-15-20l0 0c-2 0-4 0-6 0-9 0-17 5-19 15l0 0-41 152-143 83 0-147 112-112c4-4 6-9 6-15 0-5-2-10-6-14l0 0 0 0c-4-4-9-6-15-6-5 0-10 2-14 6l0 0-83 83v-147c0-12-9-21-20-21-8 0-14 4-18 11l0 0c-2 3-3 6-3 10v147l-83-83c-4-4-9-6-14-6-5 0-10 2-15 6l-3 4 0 0 0 0c-2 3-2 7-2 10 0 6 2 11 5 15l112 112 1 146-141-82-41-152 0 0c-3-10-11-15-20-15-1 0-3 0-5 0l0 0c-10 3-15 11-15 20 0 2 0 3 0 5l31 114-128-74 0 0c-3-2-6-3-10-3-7 0-14 4-18 10l0 0c-2 4-3 7-3 11 0 7 4 14 11 17l0 0 127 74-114 30 1 0c-10 2-16 11-16 20 0 2 1 3 1 5l0 0 0 0c3 9 11 15 20 15 2 0 4 0 5-1l0 0 153-40 162 93v13 11l-162 94-153-41 0 0c-1 0-3-1-5-1-9 0-17 7-20 16l0 0c0 1-1 3-1 5 0 9 6 17 16 19l113 31-128 73 0 0c-6 4-10 11-10 18 0 3 1 7 3 10l0 0c4 7 11 10 18 10 3 0 7-1 10-3l127-73-30 113 0 0c0 2-1 4-1 6 0 9 6 17 15 19l0 0c2 1 4 1 6 1 9 0 17-6 20-15l0 0 40-153 141-82 0 182-112 112c-4 4-6 9-6 14 0 4 1 7 3 10l0 0 0 0 3 5c4 4 9 5 15 5 5 0 10-2 14-5l83-83v147c0 3 1 7 3 10l0 0c3 6 10 10 18 10 11 0 20-9 20-20v-148l83 83 0 0c4 4 9 6 14 6 6 0 10-2 15-6l0 0 0 0c4-4 5-9 5-14 0-5-2-11-5-14l0 0-112-112 0-183 143 83 40 152c3 10 11 16 20 16 2 0 4-1 6-1l0 0 0 0c9-2 15-11 15-20 0-1-1-3-1-5l-30-114 127 74 0 0c3 2 7 3 10 3 7 0 14-4 18-10l0 0c2-4 3-7 3-10 0-7-4-14-11-18l0 0-127-73 113-31c9-2 15-11 15-20 0-1 0-3 0-5v0 0c-3-9-11-15-20-15-2 0-4 0-6 1l0 0-152 41-163-95v-12-10l163-95 152 41 0 0c2 0 4 0 6 0 9 0 17-5 20-15l0 0c0-1 0-3 0-5 0-9-6-17-15-20l-113-30 127-74 0 0c7-3 11-10 11-17 0-3-1-6-3-10z m-210 645l0 0 0 0z m-555-339l0 0 0 0z m228 326l0 0 0 0z" horiz-adv-x="829" />

<glyph glyph-name="rosette" unicode="&#xe867;" d="M522 411c-61 0-110-49-110-110 0-61 49-111 110-111 61 0 110 50 110 111 0 60-49 110-110 110z m51-162c-13-13-31-21-51-21-20 0-38 8-51 21-13 13-21 31-21 51 0 21 8 38 21 52 13 13 31 21 51 21 20 0 38-8 51-21 13-14 21-31 21-52 1-20-8-38-21-51z m-295-368l0 0 0 0z m756 582c-1 0-4 3-8 6-3 1-5 3-8 4s-6 3-10 4l0 0c-1 0-3 1-5 2-4 1-8 3-13 4-5 2-9 4-13 5l0 0c-3 1-6 2-9 2-11 2-25 3-35 3-2 0-4 0-6 0-2 0-4 0-8-1-4-2-6-3-9-5-3-2-7-4-9-6l-3-2c0 0 0 0 0 0 0 0 1 2 1 2 1 6 2 10 3 15l0 0v2c0 6-2 11-3 16-2 9-6 18-10 27-5 9-11 18-20 25l0 0c-6 4-18 13-28 22-6 5-11 9-15 13-3 2-5 3-7 5-2 1-3 2-6 4l0 0c-3 2-14 7-23 12-5 3-10 6-14 8-3 5-10 14-18 24-6 7-11 14-16 20-3 3-5 6-7 8s-3 4-5 6l0 0c-2 2-4 4-7 6-8 6-21 13-36 20-7 4-14 7-22 9-8 2-15 4-23 5-6 0-11 0-16 0-8 0-17-1-26-4-4-2-7-4-11-6 1 1 2 2 3 4l0 0c3 4 4 8 5 13 1 4 1 8 1 12 0 5 0 9-2 13l0 0c-1 4-2 7-4 10-2 6-5 13-9 20-4 7-7 13-11 18l0 0c-2 4-5 7-9 11-10 11-22 23-23 23-6 7-17 7-24 2 0 0-4-3-8-6-2-2-4-4-6-6-2-3-4-5-7-9l0 0c0 0-1-2-3-4-2-3-5-7-8-11-3-4-6-8-8-11-2-4-4-7-6-12-3-6-6-14-8-22-1-4-2-7-3-10l-1-5c-1-2-1-3-1-6v0l0 0c0-5 1-7 2-10 1-4 2-8 3-11l2-3c0-1 0-2 0-3 2-2 2-3 3-4l2-2c1-2 3-3 5-4-4 2-8 5-11 7-5 3-9 5-14 7-4 1-7 2-11 2-3 1-7 1-11 1-9 0-18-1-27-3-9-2-18-5-27-11-6-5-18-13-30-20-5-4-11-8-16-11-2-2-4-3-6-4-2-2-4-3-6-5-3-3-11-12-19-19-4-4-9-8-11-11-6-2-17-6-28-10-9-4-17-7-25-10-3-1-6-2-9-4-3-1-5-2-7-3-3-1-5-3-8-4-8-7-19-17-30-29-5-6-11-12-15-19-5-6-8-13-11-20-2-6-4-12-6-17-2-6-3-12-3-19 0-4 0-7 1-11-4 4-9 7-14 9-6 3-12 5-19 5-4 0-7-1-11-1-6-1-14-2-21-3-8-2-15-3-21-5-8-3-18-8-26-12-9-5-16-9-16-9-8-4-11-14-8-23 0 0 1-4 4-9 1-2 2-5 3-8 2-3 3-5 7-9l0 0c0 0 1-2 3-4 2-3 5-7 8-11 3-4 6-8 8-11 3-3 6-6 9-9 6-5 13-10 19-14 3-2 6-5 9-6l4-3c2 0 3-1 6-2 1 0 3-1 4-1-1-1-2-1-3-2-8-7-13-15-16-23-3-8-4-16-6-24-2-6-2-12-2-19 0-14 2-30 5-44 2-7 3-13 5-18 1-3 2-5 2-8 1-2 2-4 4-7l0 0c1-1 2-3 4-6 9-14 32-44 39-54 0-3 2-9 3-15 2-10 5-22 6-26l0 0c0-3 1-5 2-7 3-8 8-19 13-30 5-11 10-22 12-28l0 0c3-8 7-14 12-19 7-8 15-15 23-20 4-3 8-5 11-7 4-2 8-4 12-5l0 0c1 0 2 0 2 0-1-1-3-3-5-5-4-4-8-9-10-16l0 0c-2-4-2-7-3-11-2-6-3-13-4-21-2-7-3-14-3-21l0 0v-1c0-9 1-19 3-29 1-9 2-16 2-16 1-9 9-16 19-16h0c2 0 6 0 11 0 2 1 5 1 8 1 3 1 6 1 10 3l0 0c0 0 2 1 5 2 3 1 8 2 13 4 5 1 9 2 13 4 4 1 8 3 12 5 6 4 13 8 20 13 3 2 6 4 8 6l4 3c1 1 3 3 4 5l0 0c3 4 4 6 5 9 1 4 3 8 3 11v0c1 0 1-1 1-2 6-6 13-10 19-15l0 0c7-6 14-9 22-13 12-5 25-8 37-11 6-1 12-2 17-3 5-1 9-1 13-2l4 1 0 0c4 0 9 1 17 2 19 4 46 9 55 11 4-1 9-2 16-3 10-2 21-5 25-6l0 0c3 0 5-1 8-1 8-1 20-1 33-1 12 0 24 0 30-1l5 0c7 0 14 1 20 3 10 3 19 8 27 12 4 3 7 5 10 8 3 2 6 4 9 8 2 3 4 7 7 11 0 0 0 0 0-1 0 0 0-1 0-1l0 0c1-1 1-5 2-9 1-2 1-4 2-7 1-2 2-5 4-8l0 0c2-3 3-5 5-6 5-5 12-11 20-16 4-3 7-6 11-8 3-2 6-4 10-6l0 0c5-2 11-4 18-7 3-1 6-2 8-3l3-1 1 0h0l0 0c5-3 8-3 11-4 8-2 18-2 18-2 9-1 17 5 20 14 0 0 2 8 4 17 1 10 3 20 4 29l0 0v3c0 8-1 18-2 27-1 5-1 9-2 13-1 4-1 7-2 10l0 0c-2 7-6 12-10 17-3 4-6 7-10 9 3 1 6 1 8 2l0 0c6 1 11 3 16 6 7 5 16 11 23 18 8 7 15 15 19 26 3 7 9 21 14 34 3 6 6 12 8 17 1 3 2 5 3 8 1 2 2 4 2 7l0 0c1 4 4 15 6 25 2 7 3 12 4 16 3 4 10 14 18 24 5 7 10 15 15 21 2 3 4 6 6 9 1 2 3 4 4 6l0 0c1 3 2 5 3 7 3 8 6 19 8 31 3 13 4 26 4 39 0 6 0 13-1 19l0 0c-3 11-5 21-11 31-2 6-6 11-11 15-2 2-3 3-5 4 1 0 3 0 4 0 5 1 9 3 14 6l0 0c3 2 6 4 9 7 4 4 10 9 16 14 5 5 10 10 14 15l0 0c3 4 5 8 8 12 8 13 16 28 16 28 4 8 2 18-5 24z m-26 14l0 0 0 0 0 0z m-105 4l0 0 0 0 0 0z m23-78l0 0 0 0c0 0 0 0 0 0z m-223 259l0 0 0 0 0 0z m-101 17l0 0c6 6 10 9 12 10 3 1 6 1 11 1 4 0 9 0 15 0 3 0 9-1 16-4 10-3 21-9 31-14 4-2 8-5 11-7l4-2 1-1 0 0c0 0 2-2 3-4 6-7 17-21 26-32 9-12 17-22 17-22 1-3 3-4 6-6 0 0 32-17 40-22l0 0c1 0 4-3 8-6 6-5 14-12 22-18 8-7 16-13 22-18l0 0c1 0 3-2 5-6 3-4 7-11 9-18 1-3 2-6 2-8l1-3v-1l0 0c0 0-1-3-2-7-3-12-10-32-21-46-1-3-8-8-15-14-12-8-27-16-39-22-6-4-12-6-16-8-1-1-3-1-4-2l-1-1-2-1-19-11c-19 33-55 55-95 55-4 0-8-1-12-1-3 53-44 96-96 102 1 2 1 4 2 6l2 14c1 2 1 3 2 4 1 4 2 7 3 14l0 0c2 9 6 21 11 32 4 12 9 23 12 31l0 0c3 7 5 10 9 15 3 5 9 12 19 21z m69-417c-5-2-10-6-12-12-2-6-1-12 2-17 8-11 12-25 12-40 0-20-8-38-21-51-13-13-31-21-51-21-26 0-49 14-62 35-3 6-9 9-16 9-7 0-13-3-16-9-13-21-36-35-62-35-20 0-38 8-51 21-14 13-22 31-22 51 0 18 7 34 18 47 4 5 5 12 3 18-2 6-7 11-14 12-32 7-57 36-57 71 0 20 8 38 21 52 13 13 31 21 51 21 12 0 24-4 35-10 6-3 14-3 19 1 6 4 9 11 9 19-1 4-2 7-1 9 0 20 8 38 21 51 13 13 31 21 51 21 20 0 38-8 51-21 13-13 21-31 21-51 0-5 0-9-1-14-1-6 1-13 6-18 6-4 13-5 19-3 8 3 17 5 25 5 20 0 38-8 52-21 13-14 21-32 21-52 0-32-21-59-51-68z m-364-303l0 0 0 0 0 0z m237 764l0 0 0 0 0 0z m-41 42c1 3 2 5 3 7l1 3 1 0 0 0 0 0c1 3 6 8 10 14 2 3 4 5 6 8 1 2 2 3 3 5 1-1 2-2 4-4 4-5 9-10 10-12l0 0c3-3 8-12 11-20 2-4 4-8 5-11 2-3 3-5 3-6l0-2 0-5-1-1 0-1v0l0 0v0c-1-2-5-6-8-10-1-2-3-4-5-5l-1-2-1 0 0 0 0 0c-4-3-6-5-8-8-3-4-6-8-8-13 0-1-1-3-1-4-1 1-1 2-2 4-2 4-4 8-7 12l0 0c-2 2-3 3-4 4-4 4-8 8-12 12-2 1-3 2-4 3 0 2-1 4-2 6l-1 3c0 1 1 3 2 5 1 5 4 12 6 18z m-40-46l0 0 0 0 0 0z m-280-208c1 3 3 8 5 15 1 2 3 8 8 13 6 9 14 18 22 26 4 4 8 7 10 9l4 3 1 0c0 0 2 1 4 2 9 4 25 10 39 15 14 6 26 10 26 10 2 1 4 2 6 4 0 0 27 26 33 32l0 0c1 1 4 3 9 6 6 5 15 10 24 16 8 5 16 11 23 16 1 1 5 3 11 4 6 1 13 2 19 2 3 0 5 0 7-1l2 0h0c1 0 4-1 7-3 10-7 28-20 38-34 2-3 5-10 8-19 4-13 8-30 10-44 2-7 3-12 3-17 1-2 1-3 1-4l0-2 1-2 3-12c0-2 1-3 2-5-47-8-83-45-90-93-8 2-16 4-25 4-45 0-84-28-101-67-2 5-5 10-10 12l-1 1c-1 1-2 2-3 2-3 3-6 5-12 8-9 5-19 12-28 20-10 7-19 15-26 20-6 5-8 8-12 13-4 5-8 13-14 25-5 9-6 13-6 16 0 3 0 5 2 9z m-59-110l0 0 0 0 0 0z m-41 13c-3 3-6 6-9 8l-2 2-1 1 0 0 0 0c-2 3-6 8-11 14-2 3-4 5-5 8-2 1-3 3-4 4 1 1 3 2 5 3 6 3 12 6 14 6 4 2 14 4 22 5 5 1 9 1 13 2 3 0 6 0 6 0 0 0 3 0 5-1l3-2 0 0 1 0 0-1c1-1 4-5 7-10 1-2 2-4 3-5l1-3 0 0 0 0c2-4 4-7 6-10 3-4 6-8 10-12 1 0 2-1 3-2-1 0-3 0-4-1-5 0-9-1-14-3-4-1-6-3-9-4-4-3-9-6-13-8-1 0-1-1-2-1-3 0-6 0-8 0h-1c-3 1-10 6-16 10z m122-358c-5 5-9 10-9 11l0 0c-3 10-9 24-15 36-3 7-6 13-8 17-1 3-2 5-2 6l-1 2v0c-2 9-10 45-10 45-1 3-2 5-3 7 0 0-10 13-20 28-5 7-11 14-15 20-2 3-4 6-6 8-1 2-2 4-2 4-1 1-2 4-3 8-4 12-8 35-8 50 0 5 0 8 1 10 3 12 4 19 6 23 1 1 2 3 5 5 2 2 5 4 10 7 11 6 19 10 25 13 6 2 10 3 17 4l0 0c16 1 40 4 59 4 3 0 6 0 8 0l0 0c5 0 8 0 11 0 2 0 3 0 6 0 0 0 1 0 2 1l20-3c5-1 10 1 14 4-2-8-3-16-3-24 0-44 26-81 63-99-8-15-12-31-12-49 0-30 12-57 31-77-4 0-8-2-11-5l-4-3-1-1-2-3c-5-5-16-18-30-31-6-6-13-12-19-17-7-5-12-8-15-9-14-6-34-8-46-8-6 0-10 1-11 1-1 0-3 1-6 3-5 3-11 7-16 12z m21-15l0 0 0 0 0 0z m50-119c-3-1-5-2-7-3l-2-1-1-1 0 0 0 0 0 0c-3-1-10-3-16-5-3-1-7-2-10-3-1 0-3-1-5-2 0 2 0 3-1 5 0 6-1 13-1 16v1l0 0c0 4 2 14 3 22 1 5 2 9 3 12 1 3 1 6 1 6l3 4 3 2 1 1 0 0 0 0h0c2 1 7 2 11 3 5 1 10 2 11 2h1c4 0 8 0 11 1 5 2 9 4 14 6 1 1 2 1 3 2-1-1-1-3-1-4-1-5-2-9-2-14l0 0v-1c0-4 1-6 1-9 1-5 2-10 3-14 0-1 0-2 0-3v0c0-3-1-5-2-7l-1-2c-1-1-2-2-5-4-4-3-10-6-15-10z m168 4l0 0 0 0 0 0z m301 17l0 0 0 0 0 0z m-35-14l0 0 0 0 0 0z m1-2l0 0 0 0 0 0z m5-6l0 0c0 0 0 0 0 0l0 0z m78-62l0 0 0 0 0 0z m10 37c-5 1-10 3-15 5-4 2-9 3-11 4l0 0 0 0c0 0-3 2-6 4-5 3-11 8-16 12-2 2-5 3-6 5l0 0c-1 1-1 4-2 7l-1 2c1 3 2 6 3 10 1 3 2 6 2 8 1 3 1 5 2 9v2c0 4-1 9-1 13-1 1-1 2-1 4 4-3 8-6 12-8 2-1 5-2 7-3 3 0 6-1 9-1l0 0 1 0c3-1 8-2 12-3 2-1 4-2 6-2l2-1 1 0h0l0 0 0 0c1-1 3-3 4-4l1-3 1 0 0 0c0 0 0-3 1-6 2-9 3-25 3-33v-2l0 0c0-4-1-13-3-22-2 1-4 2-5 3z m21 135l0 0 0 0 0 0z m119 221c-2-6-3-11-4-15-1-2-1-4-2-5l-1-1 0 0c0-1-1-3-2-4-5-8-16-22-25-34-8-12-16-22-16-22-1-2-3-5-3-7 0 0-8-36-10-46 0 0-2-4-4-9-3-7-7-17-11-26-5-10-9-18-11-26 0-1-2-4-5-7-4-4-10-9-15-13-3-2-6-4-8-5l-2-1-1 0c-1 0-5-1-11-1-12 0-32 2-46 8-3 1-10 5-17 11-11 9-24 21-33 31-5 5-9 9-11 13l-4 3-1 1-1 2-5 4c-6 6-16 7-24 1-7-5-9-14-6-23 3-5 9-21 15-37 3-9 6-17 8-25 2-7 3-14 3-18v-2c-1-11-5-24-9-35-2-5-4-10-6-13-1-4-3-6-3-7l-1 0c-1-2-9-7-16-10-8-4-16-6-19-6h-1c-11 1-26 1-39 1-7 0-14 0-19 0-2 0-5 1-6 1l-2 0h0c-10 2-45 10-46 10-2 0-5 0-7 0 0 0-16-3-34-7-8-1-17-3-25-4-7-2-13-3-14-3-1 0-6 0-12 2-9 1-20 4-31 8-10 3-20 7-23 10l0 0c-9 8-15 12-17 15-1 2-2 3-3 6 0 3-1 7-1 12l0 0c-1 10-2 18-2 24 0 10 1 14 4 22 3 7 6 16 9 25 0 1 1 2 1 3 0 1 1 2 1 3 4 11 9 23 13 31l1 1 0 1c2 4 3 7 2 11 17-11 37-17 59-17 31 0 58 13 78 33 20-20 48-33 78-33 61 0 111 49 111 110 0 15-4 28-9 41 34 19 57 55 57 96 0 7 0 13-2 20l13 0 2 0 26 4c2 0 3-1 4-1l4 0c3 0 6 0 11 0l0 0c2 1 5 1 8 1 19 0 43-4 59-5l0 0c7-1 11-2 17-4 5-3 13-7 25-13 5-3 8-5 10-7 3-3 4-4 6-8 1-4 3-10 5-19l0 0c0-2 1-6 1-11-1-9-3-23-5-35z m41 171l0 0c-2-3-9-10-15-16-4-3-7-6-10-8-2-2-5-4-5-4l0 0c-1-1-5-2-8-2h-1 0-1c-1 1-6 3-11 5-2 1-4 2-6 3l-2 2 0 0 0 0 0 0c-3 2-6 4-8 5-7 3-14 4-21 5 1 1 2 1 3 3 3 3 7 6 10 10l0 0c1 2 2 3 3 4 3 5 5 11 8 16 1 1 1 3 2 4 0 0 0 0 0 0 2 2 4 3 6 5l1 1c1 0 2 0 3 0 5 0 13-1 20-1 3-1 6-1 9-2l3 0 1 0h0l0 0 0 0 0 0 0 0c3-1 10-4 16-6 3-1 6-3 9-4 2 0 4-1 6-1-1-2-2-3-3-5-3-6-7-12-9-14z m-66 69l0 0 0 0z" horiz-adv-x="1048" />

<glyph glyph-name="tennis" unicode="&#xe868;" d="M492 555c69 58 78 161 20 231-58 69-162 78-231 20-70-58-79-162-21-231 59-70 162-79 232-20z m-64 243l0 0c22 1 46-23 56-35 10-13 17-26 22-40l5-22c-18-4-52 18-64 32-13 15-26 48-19 65z m-125-16c31 23 51 31 83 26-13-32 3-76 26-104 23-27 68-53 102-46-2-30-19-53-48-77-27-22-47-30-79-27 10 39-7 75-30 103-23 27-64 52-98 45 5 28 16 59 44 80z m-44-118c34 4 51-21 63-36 13-15 29-53 21-70l-19 9c-13 7-26 19-36 31-10 12-18 26-22 40l-7 26z m645 91c-78 78-215 73-336-1 7-20 11-41 11-61 103 70 219 81 282 19 75-76 44-228-69-341-113-114-266-144-341-69-43 43-51 113-29 186-21-5-42-7-64-6-15-54-17-108-8-156l1-88-70-70-11 11c-2 2-5 2-7 0l-257-257c-1-2-1-5 0-7l58-58c2-2 5-2 7 0l257 257c2 2 2 5 0 7l-11 11 73 72-1 1 91-4c111-22 244 18 353 128 137 138 169 328 71 426z m-512-512l-8 70c0 0 7-32 26-51 19-19 52-27 52-27l-70 8z" horiz-adv-x="966" />

<glyph glyph-name="square-results" unicode="&#xe869;" d="M8 304h489v-444h-489v444z m0 536h489v-444h-489v444z m586-536h489v-444h-489v444z m0 536h489v-444h-489v444z" horiz-adv-x="1091" />

<glyph glyph-name="attachments" unicode="&#xe86a;" d="M1076 487l-543-533-36 36 543 533c60 60 60 157 0 217-60 60-157 60-217 0l-362-362-72-72c-20-20-20-53 0-72 19-20 52-20 72 0l271 271c10 10 26 10 36 0 10-10 10-26 0-36l-271-272c-40-40-105-40-145 0-40 40-40 105 0 145l434 434c80 80 210 80 290 0 80-80 80-209 0-289z m-941-497c-100 100-100 252 0 352l0 1 380 379c10 10 10 26 0 36-10 10-26 10-36 0l-380-380c-120-120-120-304 0-424 120-120 314-120 434 0l-37 36c-99-100-261-100-361 0z" horiz-adv-x="1144" />

<glyph glyph-name="meetings" unicode="&#xe86b;" d="M625 850m374-201c0-66 54-120 121-120 66 0 120 54 120 120 0 67-54 121-120 121-67 0-121-54-121-121l0 0z m193 0c0-40-32-72-72-72-40 0-73 32-73 72 0 40 33 72 73 72 39 0 72-32 72-72l0 0z m-1061 121c-67 0-121-54-121-121 0-66 54-120 121-120 66 0 120 54 120 120 0 67-54 121-120 121l0 0z m0-193c-40 0-73 32-73 72 0 40 33 72 73 72 40 0 72-32 72-72 0-40-33-72-72-72l0 0z m989-121c-67 0-121-54-121-121 0-66 54-120 121-120 66 0 120 54 120 120 0 67-54 121-120 121l0 0z m0-193c-40 0-73 32-73 72 0 40 33 73 73 73 40 0 72-33 72-73 0-39-33-72-72-72l0 0z m-989 193c-67 0-121-54-121-121 0-66 54-120 121-120 66 0 120 54 120 120 0 67-54 121-120 121l0 0z m0-193c-40 0-73 32-73 72 0 40 33 73 73 73 40 0 72-33 72-73 0-39-33-72-72-72l0 0z m989-120c-67 0-121-54-121-121 0-66 54-120 121-120 66 0 120 54 120 120 0 67-54 121-120 121l0 0z m0-194c-40 0-73 33-73 73 0 40 33 72 73 72 40 0 72-32 72-72 0-40-33-73-72-73l0 0z m-989 194c-67 0-121-54-121-121 0-66 54-120 121-120 66 0 120 54 120 120 0 67-54 121-120 121l0 0z m0-194c-40 0-73 33-73 73 0 40 33 72 73 72 40 0 72-32 72-72 0-40-33-73-72-73l0 0z m470 555h48v-48h-48v48z m0-96h48v-48h-48v48z m0-97h48v-48h-48v48z m290 472v-873h-531v873h531m60 60h-652v-993h652v993z" horiz-adv-x="1250" />

<glyph glyph-name="directions" unicode="&#xe86c;" d="M31 1322m778-1113l-135 135c-4 4-9 6-16 6h-179v90h224c13 0 23 10 23 23v269c0 12-10 22-23 22h-224v45c0 24-20 45-45 45h-45c-24 0-44-21-44-45v-45h-180c-6 0-12-2-16-7l-134-134c-4-4-7-10-7-16 0-6 3-12 7-16l134-134c4-4 10-7 16-7h180v-90h-224c-13 0-23-10-23-22v-269c0-13 10-23 23-23h224v-135c0-24 20-45 44-45h45c25 0 45 21 45 45v135h179c7 0 12 2 16 7l135 134c4 4 6 10 6 16 0 6-2 12-6 16m-420 590h45v-45h-45v45z m-215-314l-112 112 112 112h507v-224h-507v0z m260-135h-45v90h45v-90z m0-448h-45v134h45v-134z m215 179h-507v224h507l112-112-112-112z" horiz-adv-x="824" />

<glyph glyph-name="inspire" unicode="&#xe86d;" d="M442 350m9 203c0 9-7 15-15 15-88 0-160-71-160-159 0-9 7-16 15-16 9 0 16 7 16 16 0 71 58 129 129 129 8 0 15 7 15 15l0 0z m-239-144c0-53 17-102 49-144 0 0 0 0 0 0 67-93 51-137 51-137-4-8-1-17 7-20 2-1 5-2 6-2 6 0 12 4 14 9 3 6 25 61-54 169 0 0 0 1-1 1-27 36-41 79-41 124 0 112 91 203 203 203 112 0 203-91 203-203 0-46-15-89-42-125-79-108-56-163-53-169 3-7 12-10 19-7 8 3 11 12 8 20 0 0-17 45 50 138 31 42 48 91 48 143 0 128-105 233-234 233-128 0-233-105-233-233l0 0z m370-362v13c0 19-17 19-38 19h-205c-21 0-38 3-38-19v-13c0-18 17-18 38-18h205c21 0 38 0 38 18l0 0z m219 86c5 6 4 16-3 21l-104 77c-7 5-16 3-21-4-5-7-4-16 3-21l104-76c3-2 6-4 9-4 5 1 9 3 12 7l0 0z m-606 428c2-2 6-3 9-3 4 0 9 2 12 6 5 7 4 17-3 22l-106 78c-7 5-16 3-21-4-5-6-4-16 3-21l106-78z m128 138c3-8 11-13 19-10 8 2 13 11 11 19l-37 126c-3 8-11 12-19 10-5-1-9-5-10-9-1-3-2-6-1-10l37-126z m281 126c1 3 1 7-1 10-1 4-5 8-10 9-8 2-16-2-19-10l-37-127c-2-8 2-16 11-19 8-2 16 3 19 11l37 126z m-404-589l-111-82c-7-5-8-14-3-21 3-4 7-7 12-7 3 0 6 2 9 4l111 81c7 5 8 15 3 21-5 7-15 9-21 4l0 0z m481 354c-7-5-8-14-3-21 3-4 7-6 12-6 3 0 6 1 9 3l99 73c7 5 8 14 3 21-5 7-14 8-21 3l-99-73z m180-178h-117c-8 0-15-7-15-16 0-8 7-15 15-15h117c8 0 15 7 15 15 0 9-7 16-15 16l0 0z m-701-16c0 9-7 16-16 16h-120c-9 0-15-7-15-16 0-8 6-15 15-15h120c9 0 16 7 16 15l0 0z m199-455l163-36c10-2 20 4 23 15 2 10-4 20-15 22l-163 36c-10 3-20-4-23-14-2-11 5-21 15-23m37-68l91-17c10-2 20 4 22 15 2 10-4 20-15 22l-91 17c-11 2-20-4-22-15-2-10 4-20 15-22m158 128c-2-1-7 0-9 0l-201 2c-5 0-14 2-15-1 0-2 5-3 8-3l210-36c10-2 20 5 22 16 2 10-5 20-15 22z" horiz-adv-x="885" />

<glyph glyph-name="monorail" unicode="&#xe86e;" d="M618 212c14-14 21-34 21-54 0-21-7-41-20-56-14-16-36-25-57-25-21 0-42 8-57 24l17 16 17 16c7-7 12-9 23-9 11 0 16 2 22 8 6 8 9 15 9 26 0 10-3 15-9 22-5 6-11 8-22 9-10-1-16-3-24-9-6-6-8-11-8-22 0-11 2-18 9-25l-17-16-17-16 0 0h0c-14 15-22 36-22 57 0 21 8 42 25 56h0c15 14 34 21 54 21 21 0 42-8 56-23z m-417 80l0 0 0 0h0z m377 4l2 1-2-1 0 0z m2 1l0 0 0 0 0 0z m-327-83c15-14 23-35 23-56 0-21-8-41-22-56l-17 16-17 16c7 7 9 13 10 24-1 11-3 17-9 22-6 6-13 9-24 9-9 0-15-3-21-9v0 0c-7-7-9-12-9-22 0-11 2-18 9-25v0c5-6 10-9 21-9 11 0 17 3 23 10l17-16 17-16h0c-15-16-36-24-57-24-21 0-42 8-56 24v0c-14 15-21 36-21 56 0 21 8 40 23 55v0c14 14 34 22 54 22 21 0 41-7 56-21z m-11-103l0 0 0 0 0 0z m-140 638l0 0 0 0 0 0z m220-888h120v127h-120v-127z m-178 818l0 0 0 0 0 0z m-58-667l0 0v0 0z m156 99l0 0 0 0 0 0z m-54 57v0 0z m422 519l0 0 0 0-17-22 17 22z m-449-86h0v28h0v-28z m-16 79l-1-1 1 1 0 0z m36-378c6-6 13-9 20-10l0 0v30l-20-20z m573 380v-592c0-3-1-34-2-37-1-3-2-10-2-10l-2-11c-8-33-25-62-51-81-22-17-73-40-73-40h-97-57v29 17 57h-176v-57-17-29h-57-102l0 0c-1 0-4 1-8 3-9 4-16 6-20 8l-4 1c-12 6-23 14-34 24h1c-11 9-20 20-29 31l0 0c-9 11-16 23-21 36-6 14-9 29-9 43v629c0 20 5 39 15 57 10 18 23 34 38 48v0c15 14 31 25 50 34h0c19 9 37 14 56 14h424c19 0 38-6 57-16 18-9 35-21 50-35 15-14 27-30 37-48 10-18 16-38 16-58z m-57 0c0 9-2 20-9 31-7 13-15 24-26 34-11 10-23 19-37 26-13 7-23 9-31 9h-424c-8 0-19-2-32-8l0 0c-13-6-25-15-36-25v0 0c-10-10-19-21-26-33-6-12-9-22-9-30v-629c0-6 1-13 5-20 3-8 8-17 14-25 7-8 14-16 22-23h0c7-7 14-12 21-15l-4 1c5-1 30-15 41-17 4-1 16-1 71-1v86c0 7 3 14 8 20 6 5 13 8 20 8h234c7 0 14-3 20-8 5-6 8-13 8-20v-86c32 0 31 0 50 0l11-10 0 1-11 9 0 0c14 0 15 0 27 7 22 8 41 18 59 32 14 11 28 38 32 71 2 10 2 23 2 23l0 592z m-119-386l2 1 0 0-12 25 10-26z m55 361l-27-11 23 17 0 0c-4 9-10 17-19 24l-17-22 17 22c-9 7-17 12-25 17v0c-11 5-22 9-35 9h-338c-14 0-27-3-39-10h0c-11-6-21-13-28-23l22-18-23 17c-6-8-12-16-17-25l-3-5c-4-12-6-23-6-34h28 0 29c0 3 1 7 2 13l-2-3-24 15 27-9-1-3c4 5 7 11 12 17l0 0c2 2 5 5 11 8h0c4 3 8 4 12 4h338l0 1v-1h0c0 0 4-1 10-4l0 0c3-2 9-5 15-10l1-1c2-1 3-3 4-6l4-6c0-1 1-2 1-6v-247c0-2-1-3-2-6-3-5-7-9-12-14l2 1 17-22-20 20 1 1c-5-4-10-7-14-8l-2-1c-1-1-4-2-10-2h-329l0 0-2 0h2l-2 1c0-1-4-1-11 1-10 4-12 6-19 14l0 0c-7 9-9 16-9 24v229h0v0h-29 0 0v0h0-28 0v-229c0-22 8-43 22-60h0c15-18 38-32 61-34-7 1-14 4-20 10l20 20v-30c4-1 7-2 13-2h331c12 0 23 2 33 6l-10 26 12-25c10 4 19 10 28 17l3 2c7 7 13 15 19 24 7 10 12 24 12 37v247c0 13-4 28-13 39 1-2 3-4 4-6z m-418-310l-1-1 1 1 0 0z m391 299l27 11c-1 2-3 4-4 6l0 0-23-17z m-461 34l-1-1 0 0 23-17-22 18z m466 7l-1 0 0 0 1 0z m-395-341l0 0h-2l2 0z m-65 294l24-15 2 3 1 3-27 9z m439-304l-17 22-2-1-1-1 20-20z m-40 322l0-1h0v1z" horiz-adv-x="764" />

<glyph glyph-name="golf" unicode="&#xe86f;" d="M480-86c1 41 7 71 15 92 13 33 29 47 42 54 13 8 26 8 28 8h1c7 0 14 2 20 7 5 5 8 12 8 20v47c106 68 177 186 177 322 0 211-171 382-382 382-211 0-382-171-382-382 0-136 71-255 178-323v-47c0-13 9-23 21-26 1 0 24-6 47-28 23-22 47-59 50-129 0-1 0-2 0-3h-269v-53h322c2 0 4 0 6 0 3 0 5 0 7 0h61c2-1 5-1 9-1 3 0 6 0 9 1h298v53h-266c0 2 0 4 0 6z m-259 268c-3 1-5 3-8 5-5 3-9 6-14 9-4 3-7 6-11 9-4 2-7 5-10 7-7 7-14 13-21 19-60 60-96 142-96 233 0 91 36 173 96 232 59 60 141 97 232 97 91 0 173-37 233-97 60-59 96-141 96-232 0-91-37-173-96-233-7-6-14-13-21-19-3-2-7-5-10-7-4-3-8-6-11-9-5-3-10-6-14-9-3-2-6-4-8-5-6-4-11-7-17-10h-303c-6 3-11 7-17 10z m206-266c0-3 0-6 0-8h-60-9l-1 0c0 0 0 1 0 4-3 86-36 139-70 169-18 16-35 26-48 31v1 6h303v0c-3-1-5-1-8-2-11-4-24-10-36-19-12-9-23-20-33-35-22-33-36-79-38-147z m-16 361c12 0 22-10 22-21s-10-22-22-22c-12 0-21 10-21 22 0 11 9 21 21 21z m65 65c11 0 21-10 21-22s-10-21-21-21c-12 0-22 9-22 21 0 12 10 22 22 22z m57 66c12 0 22-9 22-21 0-12-10-22-22-22s-21 10-21 22c0 12 9 21 21 21z m-36-146c12 0 22-9 22-21 0-12-10-22-22-22-12 0-21 10-21 22 0 12 9 21 21 21z m58 58c11 0 21-9 21-21s-10-22-21-22c-12 0-22 10-22 22s10 21 22 21z m-334-138c6-4 11-7 17-10l0 0c-6 3-11 6-17 10z m359 14c-5-3-9-7-14-10 5 4 9 7 14 10z m-39-24l0 0c6 3 11 6 17 10-6-4-11-7-17-10z m60 40c-3-2-6-5-10-7 4 2 7 5 10 7z m-413-8c-4 3-7 6-10 8 3-2 6-5 10-8z m25-17c-5 3-9 6-14 9 5-3 9-6 14-9z m8-5c-3 1-5 3-8 4 3-1 5-3 8-4z m-22 14c-4 3-7 6-11 8 3-2 7-5 11-8z m367-9c-3-2-5-4-8-5 3 1 5 3 8 5z m-388 25c-7 7-14 13-21 19 6-6 14-13 21-19z m413-8c-3-2-7-5-11-8 4 3 8 6 11 8z m31 27c-6-6-13-13-21-19 7 6 15 13 21 19z" horiz-adv-x="778" />

</font>
</defs>
</svg>
