<?xml version="1.0" standalone="no"?>
<!DOCTYPE svg PUBLIC "-//W3C//DTD SVG 1.1//EN" "http://www.w3.org/Graphics/SVG/1.1/DTD/svg11.dtd" >
<svg xmlns="http://www.w3.org/2000/svg" xmlns:xlink="http://www.w3.org/1999/xlink" version="1.1">
<metadata>
Created by FontForge 20170924 at Tue May  8 09:07:36 2007
 By www-data
Copyright (c) 1985, 1987, 1990 Adobe Systems Incorporated.  All Rights Reserved.ITC New Baskerville is a registered trademark of International Typeface Corporation.
</metadata>
<defs>
<font id="NewBaskerville-Italic" horiz-adv-x="520" >
  <font-face 
    font-family="ITC New Baskerville"
    font-weight="500"
    font-style="italic"
    font-stretch="normal"
    units-per-em="1000"
    panose-1="0 0 0 0 0 0 0 0 0 0"
    ascent="800"
    descent="-200"
    x-height="431"
    cap-height="660"
    bbox="-138 -274 1347 906"
    underline-thickness="50"
    underline-position="-100"
    slope="-16"
    stemv="85"
    unicode-range="U+0020-FB02"
  />
<missing-glyph horiz-adv-x="260" 
 />
    <glyph glyph-name=".notdef" horiz-adv-x="260" 
 />
    <glyph glyph-name="space" unicode=" " horiz-adv-x="260" 
 />
    <glyph glyph-name="exclam" unicode="!" horiz-adv-x="300" 
d="M225 200l-23 7l60 344c7 37 10 118 65 118c26 0 45 -18 45 -44c0 -34 -59 -190 -74 -230zM169 -13c-30 0 -55 24 -55 54c0 33 25 55 57 55c30 0 52 -26 52 -55c0 -30 -25 -54 -54 -54z" />
    <glyph glyph-name="quotedbl" unicode="&#x22;" horiz-adv-x="460" 
d="M494 606l-79 -192c-3 -8 -14 -39 -25 -39c-10 0 -6 16 -5 21l52 230c6 26 16 67 50 67c16 0 25 -11 25 -26c0 -17 -12 -46 -18 -61zM338 606l-79 -192c-3 -8 -14 -39 -25 -39c-10 0 -6 16 -5 21l52 230c6 26 16 67 50 67c16 0 25 -11 25 -26c0 -17 -12 -46 -18 -61z" />
    <glyph glyph-name="numbersign" unicode="#" 
d="M566 272v-55h-108l-33 -217h-56l33 217h-131l-34 -217h-56l34 217h-104v55h112l21 137h-109v55h118l31 205h56l-31 -205h131l31 205h56l-31 -205h94v-55h-103l-21 -137h100zM431 409h-131l-21 -137h131z" />
    <glyph glyph-name="dollar" unicode="$" 
d="M338 663l19 80h34l-19 -76c17 0 54 -1 77 -8l20 84h31l-20 -89c38 -13 104 -48 104 -94c0 -21 -15 -34 -36 -34c-22 0 -36 13 -39 47c-3 28 -4 41 -35 53l-59 -252c73 -52 132 -93 132 -192c0 -126 -105 -190 -222 -195l-32 -136h-29l31 136c-26 5 -51 8 -77 12l-35 -148
h-31l36 156c-40 13 -116 56 -116 103c0 21 15 41 37 41c24 0 40 -21 42 -43c1 -36 3 -62 43 -73l76 327c-57 30 -98 80 -98 147c0 93 81 148 166 154zM298 345l-75 -320c21 -9 54 -12 76 -13l70 293zM289 449l44 189c-49 -9 -99 -44 -99 -99c0 -45 21 -65 55 -90zM395 288
l-64 -274c76 0 144 68 144 144c0 53 -35 103 -80 130zM317 430l70 -39l57 246c-17 3 -34 6 -51 6c-9 0 -18 0 -27 -2z" />
    <glyph glyph-name="percent" unicode="%" horiz-adv-x="1040" 
d="M866 731l-478 -804h-41l423 714l-2 2c-37 -20 -72 -39 -117 -39c-27 0 -53 10 -78 18c7 -22 11 -46 11 -69c0 -97 -68 -239 -179 -239c-91 0 -154 68 -154 158c0 104 88 231 200 231c96 0 96 -69 198 -69c73 0 137 44 184 97h33zM472 673c-91 0 -146 -161 -146 -235
c0 -46 27 -94 78 -94c99 0 150 143 150 223c0 50 -24 106 -82 106zM790 -48c-89 0 -151 66 -151 153c0 110 86 235 204 235c84 0 130 -64 130 -143c0 -103 -63 -245 -183 -245zM856 310c-88 0 -142 -163 -142 -234c0 -48 26 -94 79 -94c96 0 150 143 150 222
c0 51 -28 106 -87 106z" />
    <glyph glyph-name="ampersand" unicode="&#x26;" horiz-adv-x="980" 
d="M818 290c0 -191 -198 -303 -368 -303c-142 0 -310 68 -310 233c0 106 70 205 164 251c-3 15 -5 28 -5 45c0 104 88 190 190 190c31 0 84 -10 84 -49c0 -21 -18 -38 -38 -38c-38 0 -33 47 -92 47c-62 0 -114 -58 -114 -120c0 -24 5 -39 20 -57c12 4 25 7 38 7
c26 0 61 -11 61 -43c0 -31 -32 -51 -61 -51c-36 0 -55 21 -76 46c-66 -26 -106 -96 -106 -165c0 -150 162 -211 289 -211c136 0 294 73 294 228c0 77 -61 104 -129 104c-41 0 -113 -16 -113 -69c0 -13 6 -26 21 -26c16 0 28 11 48 11s39 -13 39 -35c0 -33 -33 -56 -64 -56
c-45 0 -74 32 -74 76c0 94 96 160 183 160c56 0 112 -12 168 -12c36 0 71 5 103 23c32 19 57 52 57 91c0 29 -17 60 -50 60c-31 0 -29 -53 -84 -53c-17 0 -34 12 -34 31c0 37 53 68 92 68c62 0 106 -44 106 -106c0 -121 -125 -185 -231 -185c-12 0 -25 1 -37 1
c18 -27 29 -60 29 -93z" />
    <glyph glyph-name="quoteright" unicode="&#x2019;" horiz-adv-x="240" 
d="M220 436l-10 22c36 15 101 76 101 113c0 4 -1 8 -2 11c-8 -5 -16 -9 -26 -9c-27 0 -49 22 -49 50c0 31 24 53 55 53c42 0 66 -40 66 -79c0 -78 -74 -127 -135 -161z" />
    <glyph glyph-name="parenleft" unicode="(" horiz-adv-x="340" 
d="M397 666l17 -16c-162 -135 -228 -352 -228 -557c0 -102 17 -196 69 -285l-19 -12c-66 101 -115 247 -115 368c0 203 121 380 276 502z" />
    <glyph glyph-name="parenright" unicode=")" horiz-adv-x="340" 
d="M83 -204l-17 16c162 135 228 352 228 556c0 103 -17 197 -69 286l19 12c65 -101 115 -247 115 -368c0 -203 -122 -380 -276 -502z" />
    <glyph glyph-name="asterisk" unicode="*" horiz-adv-x="500" 
d="M212 392c-21 0 -38 19 -38 40c0 28 25 39 49 39c20 0 40 -6 60 -6c15 0 26 2 41 5c4 1 31 4 31 12c0 5 -14 18 -17 20c-24 23 -33 32 -64 44c-23 9 -53 24 -53 53c0 21 19 38 40 38c32 0 42 -32 51 -56c8 -25 18 -45 36 -63c3 -3 20 -21 25 -21c9 0 20 58 20 70
c0 20 -5 41 -5 61c0 23 14 48 40 48c22 0 37 -17 37 -39c0 -20 -14 -37 -26 -51c-18 -22 -26 -34 -34 -61c-1 -7 -7 -26 -7 -33c0 -3 3 -3 5 -3c7 0 15 2 22 4c31 7 45 14 71 35c16 13 31 27 53 27c21 0 38 -19 38 -40c0 -28 -25 -40 -49 -40c-20 0 -40 7 -60 7
c-16 0 -26 -2 -41 -5c-4 -1 -31 -4 -31 -13c0 -4 14 -17 17 -19c24 -24 33 -32 64 -44c23 -10 53 -24 53 -53c0 -21 -19 -38 -40 -38c-32 0 -42 32 -51 56c-9 26 -17 43 -37 63c-2 2 -19 21 -24 21c-7 0 -11 -22 -12 -27c-5 -19 -8 -25 -8 -43c0 -20 5 -39 5 -58
c-2 -24 -11 -52 -40 -52c-22 0 -37 18 -37 40c0 20 14 36 26 51c19 23 42 62 42 93c0 2 -1 3 -2 3c-6 2 -20 -1 -26 -3c-31 -7 -46 -15 -71 -35c-16 -13 -31 -27 -53 -27z" />
    <glyph glyph-name="plus" unicode="+" 
d="M102 248h195v195h53v-195h195v-53h-195v-195h-53v195h-195v53z" />
    <glyph glyph-name="comma" unicode="," horiz-adv-x="280" 
d="M43 -165l-7 22c38 19 71 36 98 70c18 22 28 40 28 68c-5 -2 -9 -4 -13 -6c-4 -1 -8 -2 -14 -2c-26 0 -48 23 -48 49c0 33 23 60 56 60c45 0 67 -46 67 -85c0 -87 -94 -149 -167 -176z" />
    <glyph glyph-name="hyphen" unicode="-" horiz-adv-x="240" 
d="M67 245h230l-7 -53h-231z" />
    <glyph glyph-name="period" unicode="." horiz-adv-x="280" 
d="M156 -13c-30 0 -56 23 -56 54c0 32 24 55 56 55c31 0 53 -26 53 -56c0 -28 -25 -53 -53 -53z" />
    <glyph glyph-name="slash" unicode="/" horiz-adv-x="440" 
d="M485 693h56l-443 -828h-56z" />
    <glyph glyph-name="zero" unicode="0" 
d="M286 -13c-127 0 -169 122 -169 228c0 97 33 197 81 280c45 80 125 174 225 174c119 0 169 -107 169 -212c0 -94 -31 -203 -77 -285c-44 -81 -128 -185 -229 -185zM430 647c-107 0 -156 -151 -182 -234c-28 -85 -59 -206 -59 -294c0 -56 28 -110 91 -110
c101 0 153 159 180 237c30 89 60 204 60 298c0 57 -27 103 -90 103z" />
    <glyph glyph-name="one" unicode="1" 
d="M493 674l-119 -444c-8 -32 -40 -143 -40 -170c0 -42 48 -38 103 -40l-6 -22c-52 1 -104 3 -156 4c-50 -1 -99 -3 -149 -4l6 22c24 1 79 1 98 21c19 19 31 72 38 99l97 369c3 14 12 47 12 60c0 27 -25 29 -47 29c-21 -1 -41 -1 -62 -2l5 23c76 5 151 22 220 55z" />
    <glyph glyph-name="two" unicode="2" 
d="M541 158l-64 -160c-20 1 -39 3 -59 4c-112 -1 -224 -3 -336 -4v14l136 136l193 191c40 44 73 91 73 153c0 71 -50 115 -119 115c-66 0 -132 -48 -132 -118c0 -36 12 -66 12 -72c0 -4 -3 -6 -6 -6c-19 0 -36 60 -36 96c0 102 83 162 179 162c105 0 187 -61 187 -171
c0 -113 -111 -190 -191 -253l-203 -172h177c98 0 122 -10 168 85h21z" />
    <glyph glyph-name="three" unicode="3" 
d="M258 567l18 82c37 13 76 20 115 20c77 0 181 -21 181 -118c0 -86 -87 -125 -155 -155v-2c66 -1 101 -56 101 -118c0 -104 -91 -188 -178 -229c-87 -42 -190 -60 -286 -60l7 25c74 7 153 18 221 52c76 38 146 112 146 202c0 64 -45 91 -104 91c-42 0 -84 -12 -94 -12
c-8 0 -17 3 -17 12c0 20 36 20 50 22c82 9 237 45 237 150c0 50 -57 65 -99 65c-47 0 -98 -13 -143 -27z" />
    <glyph glyph-name="four" unicode="4" 
d="M560 683l-109 -405h19c28 0 52 -1 76 12c3 2 7 -2 6 -5l-12 -47h-99l-61 -238h-81l64 238h-267l9 32l439 413h16zM154 278h220l74 273l-2 2z" />
    <glyph glyph-name="five" unicode="5" 
d="M572 685c0 -10 -15 -29 -21 -36c-48 -54 -134 -67 -202 -66c-26 0 -51 3 -77 5l-23 -90c20 1 39 2 59 3c105 0 201 -43 201 -162c0 -114 -76 -210 -167 -269c-90 -58 -188 -76 -293 -83l6 25c89 10 175 30 251 82c66 45 128 122 128 207c0 93 -65 119 -146 119
c-30 -2 -60 -5 -90 -7l80 279c56 -20 102 -34 162 -34c73 0 129 29 129 29c2 0 3 0 3 -2z" />
    <glyph glyph-name="six" unicode="6" 
d="M608 676l5 -18c-119 -36 -209 -75 -287 -176c-72 -93 -127 -242 -127 -360c0 -56 25 -113 90 -113c109 0 170 165 170 256c0 46 -16 95 -72 95c-64 0 -91 -78 -108 -78c-7 0 -10 5 -10 11c0 13 14 32 21 41c32 41 71 66 124 66c88 0 135 -63 135 -147
c0 -131 -114 -266 -249 -266c-116 0 -181 98 -181 206c0 123 79 248 167 329c90 83 201 136 322 154z" />
    <glyph glyph-name="seven" unicode="7" 
d="M623 656l-326 -669h-116l287 427c32 56 64 111 96 167h-201c-111 0 -104 2 -146 -105h-21l63 233h20c1 -14 -1 -37 14 -46s57 -7 75 -7h255z" />
    <glyph glyph-name="eight" unicode="8" 
d="M389 391l10 -9c67 31 120 82 120 160c0 65 -39 112 -106 112c-66 0 -115 -51 -115 -117c0 -62 50 -106 91 -146zM320 333c-81 -33 -145 -99 -145 -191c0 -78 40 -133 122 -133s134 67 134 146c0 77 -57 131 -111 178zM417 365c49 -49 94 -105 94 -178
c0 -124 -102 -200 -220 -200c-94 0 -181 51 -181 154c0 112 102 170 192 208c-44 42 -79 87 -79 150c0 110 98 177 200 177c80 0 161 -46 161 -134c0 -97 -90 -144 -167 -177z" />
    <glyph glyph-name="nine" unicode="9" 
d="M125 -13l-5 17c118 36 209 75 286 176c72 93 128 242 128 360c0 56 -26 113 -90 113c-110 0 -171 -165 -171 -256c0 -47 17 -95 72 -95c64 0 92 78 108 78c7 0 10 -5 10 -11c0 -27 -59 -107 -145 -107c-88 0 -135 63 -135 147c0 131 114 267 250 267
c116 0 181 -99 181 -207c0 -123 -80 -248 -168 -329c-89 -83 -200 -136 -321 -153z" />
    <glyph glyph-name="colon" unicode=":" horiz-adv-x="280" 
d="M241 322c-30 0 -56 23 -56 54s24 55 56 55c31 0 53 -27 53 -56c0 -28 -25 -53 -53 -53zM156 -13c-30 0 -56 23 -56 54c0 32 24 55 56 55c31 0 53 -26 53 -56c0 -28 -25 -53 -53 -53z" />
    <glyph glyph-name="semicolon" unicode=";" horiz-adv-x="280" 
d="M43 -165l-7 22c38 19 71 36 98 70c18 22 28 40 28 68c-5 -2 -9 -4 -13 -6c-4 -1 -8 -2 -14 -2c-26 0 -48 23 -48 49c0 33 23 60 56 60c45 0 67 -46 67 -85c0 -87 -94 -149 -167 -176zM241 322c-30 0 -56 23 -56 54s24 55 56 55c31 0 53 -27 53 -56c0 -28 -25 -53 -53 -53
z" />
    <glyph glyph-name="less" unicode="&#x3c;" 
d="M142 198v49l360 167v-54l-299 -139l299 -135v-50z" />
    <glyph glyph-name="equal" unicode="=" 
d="M102 313h443v-53h-443v53zM102 182h443v-53h-443v53z" />
    <glyph glyph-name="greater" unicode="&#x3e;" 
d="M502 247v-49l-360 -162v50l299 135l-299 139v54z" />
    <glyph glyph-name="question" unicode="?" horiz-adv-x="440" 
d="M391 235l16 -16c-23 -25 -55 -43 -89 -43c-46 0 -76 37 -76 80c0 44 32 79 62 107l56 51c38 35 83 73 83 128c0 61 -37 97 -98 97c-48 0 -95 -30 -95 -81c0 -30 24 -62 56 -62c6 0 19 4 19 12s-19 15 -19 39c0 18 15 33 34 33c24 0 41 -19 41 -43c0 -40 -39 -66 -76 -66
c-49 0 -85 36 -85 84c0 73 62 114 130 114c87 0 158 -60 158 -150c0 -67 -51 -121 -98 -162l-33 -28c-20 -18 -81 -63 -81 -94c0 -17 14 -29 32 -29c24 0 46 14 63 29zM276 -13c-30 0 -55 24 -55 54c0 33 26 55 58 55c30 0 51 -26 51 -55c0 -30 -25 -54 -54 -54z" />
    <glyph glyph-name="at" unicode="@" horiz-adv-x="720" 
d="M489 273l55 132c18 43 14 98 -37 98c-92 0 -185 -222 -185 -302c0 -27 20 -47 47 -47c61 0 98 69 120 119zM577 474l16 41h77l-108 -252c-30 -71 -42 -106 -10 -106c75 0 186 106 186 248c0 134 -114 221 -237 221c-179 0 -308 -146 -308 -328c0 -154 101 -268 254 -268
c105 0 210 57 267 149h39c-54 -116 -185 -192 -310 -192c-173 0 -303 133 -303 309c0 198 163 373 358 373c150 0 282 -98 282 -260s-135 -283 -241 -283c-31 0 -69 18 -71 53c-33 -31 -71 -53 -117 -53c-61 0 -93 57 -93 112c0 122 102 291 231 291c36 0 80 -16 86 -55h2z
" />
    <glyph glyph-name="A" unicode="A" horiz-adv-x="640" 
d="M479 668l79 -540c3 -19 10 -73 20 -87c14 -19 51 -19 72 -21l-6 -22c-44 1 -89 3 -133 4c-43 -1 -86 -3 -129 -4l5 22c39 3 86 -1 86 49c0 18 -3 41 -6 60l-22 144h-194l-44 -83c-8 -16 -57 -110 -57 -139c0 -31 63 -30 81 -31l-6 -22c-38 1 -76 3 -114 4
c-34 -1 -68 -3 -102 -4l6 22c33 5 54 12 78 38c27 29 63 101 84 138l272 472h30zM268 303h172l-30 247h-2z" />
    <glyph glyph-name="B" unicode="B" horiz-adv-x="600" 
d="M308 343l-50 -184c-5 -21 -18 -66 -18 -87c0 -47 45 -52 82 -52c119 0 194 77 194 200c0 107 -76 121 -158 123h-50zM32 -2l6 22c88 -4 95 28 116 102l108 404c5 17 19 60 19 77c0 40 -64 34 -88 35l6 22c45 -1 89 -3 134 -4c35 1 69 1 104 4c96 -2 211 -30 211 -148
c0 -110 -112 -147 -202 -159v-2c91 -17 170 -54 170 -161c0 -145 -144 -194 -262 -192c-61 1 -121 3 -182 4c-47 -1 -93 -3 -140 -4zM368 569l-54 -204h64c109 3 175 53 175 168c0 82 -56 105 -124 105c-13 0 -34 -3 -42 -15c-8 -11 -15 -40 -19 -54z" />
    <glyph glyph-name="C" unicode="C" horiz-adv-x="620" 
d="M654 209l-53 -211h-11l-12 52c-67 -47 -122 -63 -203 -63c-150 0 -249 105 -249 254c0 205 166 428 383 428c65 0 105 -19 159 -52l35 36h10l-38 -186h-20c-6 95 -27 180 -140 180c-188 0 -289 -291 -289 -445c0 -110 50 -193 169 -193c133 0 183 97 238 200h21z" />
    <glyph glyph-name="D" unicode="D" horiz-adv-x="660" 
d="M157 638l6 22c44 -1 89 -3 133 -4c33 1 66 3 99 4c80 4 153 -15 217 -67c63 -52 94 -128 94 -208c0 -106 -46 -209 -121 -283c-84 -81 -174 -107 -288 -104c-58 1 -117 3 -175 4c-42 -1 -84 -3 -126 -4l6 22c88 -4 95 28 116 102l108 404c5 17 19 60 19 77
c0 40 -64 34 -88 35zM340 590l-109 -405c-8 -28 -22 -77 -22 -106c0 -57 56 -59 99 -59c112 0 178 51 231 148c42 79 67 177 67 267c0 132 -82 216 -209 203c-48 -5 -45 1 -57 -48z" />
    <glyph glyph-name="E" unicode="E" horiz-adv-x="560" 
d="M-4 -2l6 22c88 -4 95 28 115 102l108 404c4 16 17 60 17 75c0 37 -48 37 -75 37l6 22c42 -1 83 -3 125 -4c111 1 223 3 334 4l14 -152h-19c-29 104 -72 130 -145 130h-133l-72 -272h77c59 0 84 20 122 106h18l-52 -255h-20c0 35 14 95 -26 117c-12 7 -33 10 -54 10h-71
l-57 -212c-5 -17 -10 -35 -10 -53c0 -68 110 -59 150 -59c121 0 163 44 213 150h23l-46 -172c-136 1 -272 3 -408 4c-47 -1 -93 -3 -140 -4z" />
    <glyph glyph-name="F" unicode="F" horiz-adv-x="480" 
d="M277 346l-58 -216c-4 -16 -17 -59 -17 -75c0 -41 53 -34 89 -35l-6 -22c-50 1 -99 3 -149 4c-46 -1 -93 -3 -139 -4l6 22c88 -4 95 28 116 102l114 404c5 17 19 60 19 77c0 42 -64 34 -88 35l6 22c44 -1 88 -3 132 -4c109 1 219 3 328 4l14 -160h-20
c-25 116 -76 138 -187 138c-26 -2 -52 -3 -78 -5l-75 -265h83c55 1 81 25 114 105h20l-51 -255h-20c0 63 9 128 -74 128h-79z" />
    <glyph glyph-name="G" unicode="G" horiz-adv-x="680" 
d="M687 605l29 40h11l-38 -185h-20c-1 121 -62 187 -144 187c-198 0 -299 -288 -299 -448c0 -107 54 -190 170 -190c115 0 185 71 185 185c0 51 -49 42 -86 46l5 22c44 -1 88 -3 132 -4c44 1 89 3 133 4l-6 -22c-16 -1 -48 0 -61 -12c-12 -12 -25 -72 -30 -89
c-9 -34 -19 -67 -20 -101c-9 1 -19 1 -28 2c-80 0 -115 -53 -233 -53c-149 0 -261 95 -261 249c0 203 160 433 379 433c77 0 119 -23 182 -64z" />
    <glyph glyph-name="H" unicode="H" horiz-adv-x="780" 
d="M306 321l-58 -191c-4 -16 -19 -61 -19 -77c0 -38 52 -32 87 -33l-7 -22c-50 1 -99 3 -149 4c-43 -1 -85 -3 -128 -4l6 22c88 -4 95 28 116 102l115 404c5 17 19 60 19 77c0 40 -64 34 -88 35l6 22c47 -1 94 -3 141 -4c47 1 93 3 140 4l-6 -22c-28 -1 -67 0 -85 -25
c-15 -19 -35 -92 -42 -116l-40 -146h333l47 175c4 16 17 59 17 75c0 41 -53 36 -89 37l6 22c43 -1 86 -3 129 -4c52 1 103 3 155 4l-6 -22c-28 -1 -67 0 -85 -25c-15 -19 -35 -92 -42 -116l-98 -367c-4 -16 -19 -61 -19 -77c0 -38 52 -32 87 -33l-7 -22c-47 1 -94 3 -141 4
c-46 -1 -91 -3 -137 -4l6 22c88 -4 95 28 116 102l53 199h-333z" />
    <glyph glyph-name="I" unicode="I" horiz-adv-x="340" 
d="M349 497l-106 -367c-4 -16 -19 -61 -19 -77c0 -38 52 -32 87 -33l-7 -22c-47 1 -94 3 -141 4c-46 -1 -91 -3 -137 -4l6 22c88 -4 95 28 116 102l116 404c4 16 17 59 17 75c0 41 -53 36 -89 37l6 22c43 -1 86 -3 129 -4c52 1 103 3 155 4l-6 -22c-28 -1 -67 0 -85 -25
c-15 -19 -35 -92 -42 -116z" />
    <glyph glyph-name="J" unicode="J" horiz-adv-x="300" 
d="M192 638l6 22c43 -1 86 -3 129 -4c52 1 103 3 155 4l-6 -22c-28 -1 -67 0 -85 -25c-15 -19 -35 -92 -42 -116l-102 -401c-19 -72 -39 -158 -69 -225c-39 -86 -105 -141 -203 -141c-42 0 -113 16 -113 69c0 22 15 40 39 40c26 0 39 -20 38 -44c-1 -13 -2 -19 5 -30
c9 -7 23 -13 36 -13c63 0 92 58 106 111l178 663c4 16 17 59 17 75c0 41 -53 36 -89 37z" />
    <glyph glyph-name="K" unicode="K" horiz-adv-x="660" 
d="M300 318l-51 -188c-4 -16 -16 -59 -16 -75c0 -41 51 -34 88 -35l-6 -22c-48 1 -96 3 -144 4c-46 -1 -93 -3 -139 -4l5 22c88 -4 95 28 115 102l108 404c5 16 17 59 17 75c0 41 -53 36 -88 37l6 22c45 -1 89 -3 134 -4c50 1 101 3 151 4l-6 -22c-27 -1 -67 0 -85 -25
c-14 -19 -35 -92 -41 -116l-38 -141l201 130c25 20 121 88 121 123c0 29 -57 29 -74 29l6 22c36 -1 71 -3 107 -4c38 1 76 3 114 4l-6 -22c-54 -7 -81 -32 -119 -67l-257 -196l136 -206c23 -35 59 -92 87 -121c26 -26 48 -25 82 -28l-6 -22c-48 1 -97 3 -145 4
c-46 -1 -91 -3 -137 -4l6 22c19 2 73 0 73 31c0 21 -40 76 -49 91l-123 188z" />
    <glyph glyph-name="L" unicode="L" horiz-adv-x="600" 
d="M637 166l-45 -168c-142 1 -285 3 -427 4c-44 -1 -89 -3 -133 -4l6 22c88 -4 95 28 116 102l109 404c5 17 19 60 19 77c0 40 -64 35 -88 35l6 22c44 -1 87 -3 131 -4c51 1 101 3 152 4l-6 -22c-28 0 -67 -1 -85 -26c-15 -19 -35 -92 -42 -116l-93 -345
c-6 -22 -15 -57 -15 -79c0 -64 99 -52 136 -52c128 0 185 19 237 146h22z" />
    <glyph glyph-name="M" unicode="M" horiz-adv-x="880" 
d="M497 142l310 518c27 -2 54 -3 81 -4c34 1 67 3 101 4l-6 -22c-93 1 -92 -43 -105 -119l-74 -435c-11 -65 44 -61 87 -64l-5 -22c-47 1 -94 3 -141 4c-46 -1 -91 -3 -137 -4l6 22c78 7 86 7 100 84l87 490l-2 2l-353 -596h-16l-107 601h-2l-95 -358
c-10 -38 -37 -132 -37 -168c0 -56 39 -53 85 -55l-6 -22c-41 1 -83 3 -124 4c-36 -1 -73 -3 -109 -4l6 22c43 0 74 10 95 52c21 44 45 128 59 176l101 348c12 40 -60 42 -83 42l5 22c33 -1 66 -3 99 -4c29 1 57 3 86 4z" />
    <glyph glyph-name="N" unicode="N" horiz-adv-x="700" 
d="M197 260l83 312c-33 61 -33 63 -106 66l6 22c29 -1 58 -3 87 -4c25 1 49 3 74 4l266 -537l88 327c9 34 24 97 24 130c0 56 -41 55 -86 58l6 22c36 -1 71 -3 107 -4c37 1 75 3 112 4l-5 -22c-74 -1 -90 -47 -108 -110l-145 -546h-23l-277 558l-78 -290
c-11 -41 -36 -136 -36 -176c0 -53 47 -52 88 -54l-6 -22c-39 1 -79 3 -118 4c-38 -1 -77 -3 -115 -4l5 22c44 6 74 9 96 52c23 44 47 137 61 188z" />
    <glyph glyph-name="O" unicode="O" horiz-adv-x="700" 
d="M510 669c151 0 248 -111 248 -257c0 -203 -177 -425 -391 -425c-154 0 -241 106 -241 254c0 203 169 428 384 428zM523 647c-189 0 -297 -309 -297 -463c0 -86 39 -175 138 -175c193 0 294 305 294 462c0 78 -44 176 -135 176z" />
    <glyph glyph-name="P" unicode="P" horiz-adv-x="560" 
d="M176 638l6 22c36 -1 75 -3 114 -4c41 1 82 3 123 4c106 -2 247 -21 250 -156c-3 -159 -169 -197 -296 -197c-30 1 -59 3 -89 4l-49 -181c-4 -16 -19 -61 -19 -77c0 -38 52 -32 87 -33l-7 -22c-44 1 -94 3 -143 4c-46 -1 -91 -3 -138 -4l6 22c88 -4 95 28 116 102l108 404
c5 17 19 60 19 77c0 40 -64 34 -88 35zM357 584l-67 -248c22 -2 44 -3 66 -5c119 0 213 65 213 192c0 83 -67 115 -138 115c-13 0 -52 0 -63 -17c-4 -7 -9 -29 -11 -37z" />
    <glyph glyph-name="Q" unicode="Q" horiz-adv-x="700" 
d="M272 -60h38c162 0 265 -125 413 -125c70 0 90 49 96 49c3 0 3 -5 3 -7c0 -36 -39 -127 -141 -127c-78 0 -135 36 -245 129c-45 38 -89 59 -149 59c-43 0 -68 -10 -105 -31c-6 -4 -20 -14 -29 -14c-13 0 -21 10 -21 23c0 16 19 21 31 24c36 9 48 13 81 31l70 38
c-128 29 -188 125 -188 253c0 204 163 427 381 427c155 0 247 -97 247 -248c0 -108 -50 -220 -121 -301c-74 -84 -158 -124 -270 -133l-91 -45v-2zM515 647c-185 0 -289 -302 -289 -454c0 -87 38 -184 139 -184c190 0 289 314 289 467c0 86 -41 171 -139 171z" />
    <glyph glyph-name="R" unicode="R" horiz-adv-x="640" 
d="M152 122l108 404c5 17 19 60 19 77c0 40 -64 34 -88 35l6 22c41 -1 85 -3 128 -4c41 1 81 3 122 4c100 3 252 -13 252 -146c0 -126 -153 -170 -253 -180v-2c110 -31 131 -81 134 -188c1 -41 3 -117 59 -117c28 0 46 21 63 40l18 -11c-26 -41 -82 -69 -130 -69
c-79 0 -110 64 -107 133l4 94c0 95 -38 110 -125 110c-20 -1 -41 -1 -61 -2l-52 -192c-4 -16 -19 -61 -19 -77c0 -38 52 -32 87 -33l-7 -22c-43 1 -91 3 -139 4c-46 -1 -93 -3 -139 -4l5 22c88 -4 95 28 115 102zM369 573l-62 -228c59 2 127 3 183 22c66 23 109 78 109 149
c0 90 -63 122 -143 122c-15 0 -55 -3 -67 -16c-6 -7 -17 -38 -20 -49z" />
    <glyph glyph-name="S" unicode="S" horiz-adv-x="480" 
d="M513 611l30 36h13l-36 -170h-17c-3 96 -40 170 -135 170c-59 0 -107 -41 -107 -101c0 -136 234 -190 234 -373c0 -113 -90 -186 -199 -186c-65 0 -139 27 -185 74l-32 -41h-13l33 186h20c8 -105 43 -197 164 -197c71 0 122 56 122 126c0 153 -229 201 -229 373
c0 102 85 161 180 161c60 0 110 -20 157 -58z" />
    <glyph glyph-name="T" unicode="T" horiz-adv-x="640" 
d="M534 638l-135 -508c-4 -16 -19 -61 -19 -77c0 -38 52 -32 87 -33l-7 -22c-45 1 -95 3 -145 4c-46 -1 -92 -3 -138 -4l6 22c88 -4 95 28 116 102l137 516c-138 0 -226 -2 -278 -147h-19l44 169c101 -1 201 -3 302 -4c92 1 185 3 277 4v-169h-20c-22 132 -57 147 -208 147z
" />
    <glyph glyph-name="U" unicode="U" horiz-adv-x="680" 
d="M182 300l61 226c5 17 19 60 19 77c0 40 -64 34 -88 35l6 22c44 -1 88 -3 132 -4c50 1 100 3 150 4l-6 -22c-28 -1 -67 -1 -85 -26c-15 -19 -35 -92 -42 -116l-61 -229c-9 -38 -22 -75 -22 -114c0 -89 70 -136 152 -136c143 0 187 111 223 229c20 63 80 279 80 335
c0 53 -42 55 -82 57l6 22c36 -2 71 -3 107 -4c38 0 75 2 113 4l-6 -22c-81 0 -94 -51 -111 -118l-52 -186c-48 -168 -88 -347 -296 -347c-108 0 -229 47 -229 173c0 43 20 98 31 140z" />
    <glyph glyph-name="V" unicode="V" horiz-adv-x="580" 
d="M300 -18l-79 585c-9 66 -23 66 -87 71l6 22c43 -1 86 -3 129 -4c46 1 92 3 138 4l-6 -22c-29 -2 -86 -2 -86 -44c3 -31 5 -61 8 -92l48 -397h2c40 69 258 440 258 495c0 38 -46 37 -73 38l5 22c34 -1 67 -3 101 -4c36 1 73 3 109 4l-6 -22c-40 -5 -66 -21 -90 -54
c-35 -48 -71 -122 -101 -175l-153 -270l-95 -157h-28z" />
    <glyph glyph-name="W" unicode="W" horiz-adv-x="840" 
d="M564 518l-254 -536h-33l-60 547c-8 73 -2 108 -88 109l6 22c42 -1 84 -3 126 -4c45 1 90 3 135 4l-6 -22c-35 -4 -84 5 -84 -46c1 -15 0 -30 1 -45l41 -420h2l175 373c11 24 42 79 42 104c0 34 -59 32 -81 34l5 22c40 -1 81 -3 121 -4c42 1 83 3 125 4l-5 -22
c-50 -7 -78 -5 -78 -65c2 -31 4 -63 6 -94l37 -359h2l130 273c19 39 81 168 81 204c0 40 -45 38 -74 41l6 22c32 -1 63 -3 95 -4c33 1 66 3 99 4l-4 -22c-71 -13 -97 -88 -124 -145l-247 -511h-32l-63 536h-2z" />
    <glyph glyph-name="X" unicode="X" horiz-adv-x="640" 
d="M461 361l101 -219c13 -28 38 -85 59 -104c19 -18 44 -17 67 -18l-5 -22c-46 1 -91 3 -137 4c-43 -1 -86 -3 -129 -4l5 22c29 1 71 -1 71 32c0 21 -21 64 -29 83l-15 34l-55 122l-72 -79c-27 -29 -111 -119 -111 -158c0 -34 57 -32 79 -34l-5 -22c-41 1 -81 3 -122 4
c-36 -1 -73 -3 -109 -4l6 22c61 7 85 32 124 77l196 226l-100 220c-28 66 -34 91 -113 95l6 22c43 -1 85 -3 128 -4c46 1 93 3 139 4l-6 -22c-22 -3 -72 2 -72 -33c0 -24 27 -85 38 -109l48 -107l74 83c24 26 94 101 94 139c0 30 -51 25 -71 27l7 22c36 -1 71 -3 107 -4
c38 1 77 3 115 4l-6 -22c-23 -3 -45 -9 -65 -22c-30 -18 -68 -63 -92 -90z" />
    <glyph glyph-name="Y" unicode="Y" horiz-adv-x="580" 
d="M267 122l47 177l-73 247c-5 19 -13 52 -25 69c-16 22 -41 22 -66 23l6 22c40 -1 80 -3 120 -4c42 1 84 3 126 4l-6 -22c-25 -1 -72 2 -72 -34c0 -7 1 -17 4 -28l73 -253c38 47 211 230 211 279c0 37 -49 35 -74 36l6 22c32 -1 63 -3 95 -4c34 1 67 3 101 4l-6 -22
c-42 3 -70 -41 -93 -70l-234 -284l-48 -180c-5 -18 -10 -39 -10 -49c0 -41 53 -34 88 -35l-5 -22c-51 1 -102 3 -153 4c-44 -1 -88 -3 -132 -4l5 22c88 -4 95 28 115 102z" />
    <glyph glyph-name="Z" unicode="Z" horiz-adv-x="560" 
d="M676 660l-467 -640h117c137 0 204 12 276 146h20c-21 -56 -43 -112 -64 -168c-138 1 -276 3 -414 4c-22 -1 -45 -3 -67 -4l463 640h-87c-122 0 -174 -21 -248 -131h-20l61 153c119 -1 239 -3 358 -4c24 1 48 3 72 4z" />
    <glyph glyph-name="bracketleft" unicode="[" horiz-adv-x="380" 
d="M297 666h180l-9 -30h-110l-176 -741h112l-9 -30h-177z" />
    <glyph glyph-name="backslash" unicode="\" horiz-adv-x="280" 
d="M300 0l-181 666h56l181 -666h-56z" />
    <glyph glyph-name="bracketright" unicode="]" horiz-adv-x="380" 
d="M407 666l-189 -801h-180l9 30h110l176 741h-112l9 30h177z" />
    <glyph glyph-name="asciicircum" unicode="^" 
d="M213 285h-55l160 371h49l163 -371h-55l-134 308z" />
    <glyph glyph-name="underscore" unicode="_" horiz-adv-x="500" 
d="M500 -125h-500v50h500v-50z" />
    <glyph glyph-name="quoteleft" unicode="&#x2018;" horiz-adv-x="240" 
d="M340 676l10 -22c-36 -15 -101 -76 -101 -113c0 -4 1 -8 2 -11c8 5 16 9 26 9c27 0 49 -22 49 -50c0 -31 -24 -53 -55 -53c-42 0 -66 40 -66 79c0 78 74 127 135 161z" />
    <glyph glyph-name="a" unicode="a" horiz-adv-x="500" 
d="M370 409c-100 0 -207 -251 -207 -332c0 -30 14 -68 49 -68c71 0 120 95 147 152c24 52 58 138 58 195c0 27 -18 53 -47 53zM438 377l15 41h71l-44 -119c-19 -51 -66 -199 -66 -258c0 -9 1 -24 13 -24c34 0 82 106 97 136l21 -9c-30 -58 -62 -157 -139 -157
c-36 0 -60 21 -60 57c0 20 6 39 9 57l-2 2c-31 -55 -80 -116 -149 -116c-67 0 -113 53 -113 118c0 129 131 326 271 326c37 0 63 -21 76 -54z" />
    <glyph glyph-name="b" unicode="b" horiz-adv-x="420" 
d="M328 666l-62 -183l-46 -147l2 -2c29 48 70 97 132 97c69 0 106 -60 106 -124c0 -132 -128 -320 -270 -320c-64 0 -107 40 -107 104c0 37 23 111 35 148l98 315c3 12 12 39 12 51c0 31 -42 29 -62 29l6 22zM196 9c106 0 192 245 192 333c0 28 -15 67 -47 67
c-99 0 -193 -262 -193 -345c0 -29 16 -55 48 -55z" />
    <glyph glyph-name="c" unicode="c" horiz-adv-x="360" 
d="M361 137l20 -12c-35 -69 -91 -138 -175 -138c-77 0 -115 61 -115 133c0 124 116 311 252 311c34 0 76 -18 76 -57c0 -21 -16 -42 -38 -42c-19 0 -34 17 -34 35c0 16 11 23 11 30c0 11 -14 12 -22 12c-100 0 -173 -259 -173 -329c0 -35 17 -71 56 -71c69 0 114 72 142 128
z" />
    <glyph glyph-name="d" unicode="d" horiz-adv-x="500" 
d="M353 409c-98 0 -190 -252 -190 -333c0 -32 15 -67 53 -67c103 0 183 260 183 337c0 28 -13 63 -46 63zM415 389l47 164c3 11 13 45 13 56c0 28 -53 23 -73 25l7 22l157 10l-48 -172l-42 -156c-19 -73 -62 -220 -62 -292c0 -10 2 -29 16 -29c33 0 84 108 96 138l22 -8
c-21 -55 -72 -160 -140 -160c-39 0 -59 31 -59 67c0 22 5 44 9 64l-2 2c-29 -58 -75 -133 -149 -133s-116 59 -116 128c0 123 121 316 259 316c29 0 52 -18 65 -42z" />
    <glyph glyph-name="e" unicode="e" horiz-adv-x="340" 
d="M349 129l18 -13c-41 -61 -98 -129 -178 -129c-70 0 -112 45 -112 114c0 126 120 330 260 330c41 0 72 -27 72 -69c0 -105 -147 -164 -227 -197l-16 -7c-9 -29 -17 -60 -17 -92c0 -31 15 -57 49 -57c67 0 115 72 151 120zM174 185c71 31 180 102 180 191
c0 20 -11 33 -31 33c-73 0 -133 -164 -149 -224z" />
    <glyph glyph-name="f" unicode="f" horiz-adv-x="280" 
d="M286 395l-80 -326c-27 -109 -72 -339 -226 -339c-35 0 -85 16 -85 58c0 15 11 28 27 28c44 0 18 -64 66 -64c45 0 71 72 84 105l138 538h-82l7 22h81c30 99 72 249 199 249c34 0 85 -19 85 -60c0 -15 -9 -29 -25 -29c-23 0 -30 18 -35 36c-4 18 -9 31 -30 31
c-77 0 -104 -174 -119 -227h87l-7 -22h-85z" />
    <glyph glyph-name="g" unicode="g" horiz-adv-x="440" 
d="M433 -129c0 -110 -118 -141 -210 -141c-82 0 -201 28 -201 128c0 41 33 74 74 74c15 0 27 -5 40 -12c-30 -11 -49 -37 -49 -69c0 -79 77 -99 144 -99c60 0 147 18 147 93c0 68 -75 72 -126 79c-57 9 -175 21 -175 100c0 60 59 85 109 95c-38 23 -67 62 -67 107
c0 100 91 205 195 205c42 0 74 -15 100 -47c20 21 47 42 78 42s63 -22 63 -54c0 -21 -17 -40 -39 -40c-17 0 -31 13 -33 30c-2 12 0 24 -15 24c-17 0 -31 -15 -42 -25c7 -17 11 -35 11 -53c0 -108 -81 -207 -192 -209c-29 0 -108 -1 -108 -42c0 -89 296 1 296 -186zM253 121
c81 0 112 154 112 216c0 35 -19 72 -57 72c-77 0 -117 -154 -117 -215c0 -37 21 -73 62 -73z" />
    <glyph glyph-name="h" unicode="h" horiz-adv-x="500" 
d="M369 192l20 53c10 29 33 92 33 121c0 18 -12 31 -30 31c-109 0 -201 -269 -226 -345l-17 -52h-67l159 545c4 16 12 42 12 57c0 32 -33 31 -56 32h-15l6 22l162 10l-109 -370l2 -2c39 56 90 133 168 133c56 0 72 -38 71 -86c0 -46 -17 -101 -32 -142l-44 -118
c-3 -9 -26 -64 3 -64c40 0 91 94 107 127l22 -9c-25 -58 -73 -148 -145 -148c-46 0 -58 29 -58 66c1 49 24 112 34 139z" />
    <glyph glyph-name="i" unicode="i" horiz-adv-x="280" 
d="M156 194l28 67c9 24 37 96 37 120c0 10 -6 20 -17 20c-31 0 -80 -82 -94 -109l-20 11c29 49 70 128 134 128c38 0 62 -33 62 -68c0 -48 -29 -108 -47 -153l-32 -81c-6 -17 -30 -77 -30 -95c0 -8 6 -17 15 -17c38 0 92 89 107 120l20 -10c-25 -52 -77 -140 -142 -140
c-41 0 -65 33 -65 72c0 42 28 96 44 135zM284 565c-24 0 -45 19 -45 44c0 26 19 47 45 47c27 0 46 -21 46 -47c0 -24 -21 -44 -46 -44z" />
    <glyph glyph-name="j" unicode="j" horiz-adv-x="260" 
d="M99 270l-19 12c27 54 91 149 158 149c29 0 45 -24 45 -51c0 -48 -29 -167 -44 -216l-90 -298c-22 -71 -81 -136 -163 -136c-33 0 -83 13 -83 53c0 14 11 27 26 27c41 0 20 -58 65 -58c50 0 81 79 92 119l61 215c19 77 68 280 68 290c0 7 -3 15 -11 15
c-27 0 -91 -96 -105 -121zM290 565c-25 0 -46 19 -46 44c0 26 20 47 46 47s45 -21 45 -47c0 -24 -21 -44 -45 -44z" />
    <glyph glyph-name="k" unicode="k" horiz-adv-x="440" 
d="M268 208l-79 -36l-50 -172h-75l152 576c3 11 7 26 7 37c0 28 -64 21 -76 21l7 22l163 10c-11 -41 -23 -82 -34 -123l-54 -214l2 -2c36 51 86 104 155 104c35 0 75 -24 75 -61c0 -78 -108 -114 -165 -149c73 -20 82 -62 78 -129l-1 -29c-2 -12 -8 -46 13 -46
c33 0 61 81 76 107l19 -8c-24 -54 -49 -129 -120 -129c-40 0 -64 31 -64 69c0 34 5 68 5 102c0 29 -5 43 -34 50zM196 200c67 27 193 87 193 170c0 19 -13 31 -33 31c-78 0 -141 -137 -160 -201z" />
    <glyph glyph-name="l" unicode="l" horiz-adv-x="260" 
d="M352 666l-119 -379c-17 -56 -60 -187 -60 -241c0 -12 4 -29 19 -29c33 0 89 96 102 126l23 -11c-29 -55 -72 -145 -146 -145c-47 0 -70 35 -70 79c0 37 26 122 38 160l102 335c3 10 10 30 10 41c0 36 -49 30 -72 32l6 22z" />
    <glyph glyph-name="m" unicode="m" horiz-adv-x="720" 
d="M605 210l20 55c11 28 30 76 30 107c0 13 -7 28 -22 28c-44 0 -103 -92 -121 -123c-50 -86 -78 -183 -110 -277h-71l52 159c16 48 58 172 58 217c0 11 -6 25 -18 25c-65 0 -143 -167 -162 -221l-67 -180h-67l54 181c12 46 38 143 38 187c0 10 -1 33 -15 33
c-36 0 -83 -100 -94 -131l-20 8c21 60 66 153 138 153c39 0 56 -36 56 -70c0 -30 -7 -61 -10 -89l2 -2c34 62 86 161 168 161c38 0 62 -31 62 -67c0 -26 -7 -51 -14 -73l2 -2c33 54 85 142 157 142c42 0 64 -39 64 -77c0 -42 -21 -106 -35 -146l-38 -107
c-5 -14 -17 -45 -17 -61c0 -10 3 -23 16 -23c37 0 90 97 106 129l19 -11c-20 -52 -76 -148 -139 -148c-38 0 -62 31 -62 68c0 46 24 112 40 155z" />
    <glyph glyph-name="n" unicode="n" horiz-adv-x="560" 
d="M210 31l-9 -31h-75l22 63c23 70 76 237 76 306c0 11 -1 32 -19 32c-40 0 -83 -103 -99 -133l-20 7c26 58 63 156 141 156c41 0 61 -31 61 -69c0 -21 -5 -52 -8 -74l-3 -18l2 -2c34 66 92 163 178 163c45 0 78 -37 78 -81c0 -45 -18 -105 -34 -147l-18 -48
c-7 -20 -34 -88 -34 -108c0 -11 7 -30 21 -30c40 0 88 94 102 126l21 -10c-26 -55 -74 -146 -143 -146c-43 0 -66 31 -66 71c0 41 24 102 37 141l18 49c12 31 36 85 36 119c0 18 -14 34 -34 34c-54 0 -112 -88 -135 -129c-41 -72 -72 -162 -96 -241z" />
    <glyph glyph-name="o" unicode="o" horiz-adv-x="420" 
d="M230 -13c-87 0 -139 60 -139 146c0 116 96 298 231 298c93 0 138 -78 138 -162c0 -117 -100 -282 -230 -282zM231 9c110 0 157 242 157 326c0 36 -20 74 -61 74c-105 0 -164 -243 -164 -325c0 -45 21 -75 68 -75z" />
    <glyph glyph-name="p" unicode="p" horiz-adv-x="480" 
d="M339 572l-67 -238l2 -2c33 50 67 99 135 99c72 0 111 -61 111 -127c0 -125 -108 -317 -251 -317c-32 0 -66 22 -76 53h-2l-37 -135c-6 -22 -30 -102 -30 -124c0 -34 49 -32 68 -33l-7 -22c-36 1 -71 3 -107 4c-33 -1 -65 -3 -98 -4l6 22c17 1 39 2 52 15
c14 17 27 70 33 91l139 508c-61 -42 -96 -63 -123 -133l-20 8c17 62 52 91 101 128c48 35 59 49 74 107l28 110zM396 409c-101 0 -183 -249 -183 -332c0 -29 16 -68 50 -68c101 0 185 250 185 333c0 30 -18 67 -52 67z" />
    <glyph glyph-name="q" unicode="q" horiz-adv-x="440" 
d="M351 409c-98 0 -188 -252 -188 -327c0 -30 9 -73 46 -73c104 0 189 255 189 339c0 29 -14 61 -47 61zM422 370l15 61h65l-147 -526c-8 -28 -33 -116 -33 -130c0 -33 52 -26 75 -27l-6 -22c-37 1 -75 3 -112 4c-36 -1 -73 -3 -109 -4l7 22c12 1 46 1 57 10s23 48 28 63
l78 274l-2 2c-28 -52 -73 -110 -139 -110c-77 0 -108 55 -108 125c0 124 117 319 254 319c41 0 65 -22 75 -61h2z" />
    <glyph glyph-name="r" unicode="r" horiz-adv-x="340" 
d="M88 276l-21 8c18 46 75 147 128 147c50 0 67 -53 66 -93c-1 -22 -6 -44 -8 -66l2 -2c21 56 69 161 140 161c27 0 56 -16 56 -46c0 -20 -18 -37 -39 -37c-19 0 -33 12 -33 32c0 6 2 21 -7 21c-21 0 -55 -54 -63 -70c-37 -71 -66 -160 -91 -236l-32 -95h-74l51 165
c12 49 29 131 29 181c0 9 2 55 -16 55c-24 0 -79 -102 -88 -125z" />
    <glyph glyph-name="s" unicode="s" horiz-adv-x="340" 
d="M149 313c0 77 66 118 138 118c37 0 97 -16 97 -63c0 -15 -10 -26 -25 -26c-51 0 0 67 -71 67c-34 0 -67 -24 -67 -61c0 -70 114 -131 116 -230c2 -87 -72 -131 -153 -131c-49 0 -121 20 -121 81c0 19 6 37 26 37c16 0 30 -13 30 -30c0 -9 -3 -18 -3 -27
c0 -30 38 -39 62 -39c47 0 87 25 87 75c0 70 -116 143 -116 229z" />
    <glyph glyph-name="t" unicode="t" horiz-adv-x="280" 
d="M247 557h69l-43 -139h78l-7 -22h-78l-8 -26c-15 -49 -83 -290 -83 -326c0 -14 2 -27 17 -27c41 0 85 99 102 131l20 -11c-29 -57 -66 -150 -144 -150c-39 0 -67 28 -67 67c0 42 20 104 32 145l57 197h-79l8 22h79z" />
    <glyph glyph-name="u" unicode="u" horiz-adv-x="560" 
d="M277 241l-42 -132c-5 -15 -14 -43 -14 -59c0 -21 15 -33 36 -33c65 0 129 116 152 168l81 241h74l-38 -126c-21 -74 -56 -178 -56 -254c0 -10 3 -29 17 -29c33 0 81 96 90 126l22 -8c-20 -55 -62 -148 -130 -148c-47 0 -71 33 -67 76c2 20 3 41 5 61l-2 2
c-36 -59 -86 -139 -165 -139c-47 0 -84 34 -84 83c0 34 9 61 19 93l18 59c13 44 32 92 36 136c1 10 7 43 -11 43c-37 0 -94 -104 -109 -134l-21 10c28 58 78 154 152 154c39 0 61 -39 61 -74c0 -36 -13 -81 -24 -116z" />
    <glyph glyph-name="v" unicode="v" horiz-adv-x="480" 
d="M449 309l-2 45c-1 11 -1 22 -2 33c0 24 8 44 35 44c31 0 40 -32 40 -58c0 -137 -104 -386 -271 -386c-64 0 -112 43 -112 108c0 79 70 176 109 242l-2 2c-16 -7 -36 -16 -55 -16c-27 0 -47 18 -62 18s-21 -16 -21 -28v-7c0 -4 -1 -9 -6 -9c-13 0 -16 27 -16 37
c0 37 24 66 62 66c20 0 32 -7 47 -20c8 -8 16 -17 28 -17c17 0 47 11 52 29c5 15 9 39 29 39c9 0 16 -8 16 -18c0 -13 -19 -41 -25 -52c-41 -70 -69 -165 -69 -247c0 -40 7 -97 59 -97c50 0 94 59 117 97c35 59 49 127 49 195z" />
    <glyph glyph-name="w" unicode="w" horiz-adv-x="640" 
d="M145 406c40 0 51 -39 73 -39c72 0 39 64 75 64c9 0 17 -7 17 -16c0 -15 -21 -44 -27 -55c-36 -59 -82 -180 -82 -250c0 -35 8 -93 53 -93c78 0 117 155 133 220l12 45c6 21 17 71 27 90c6 11 15 18 29 18c19 0 34 -14 34 -34c0 -38 -64 -198 -64 -270
c0 -29 12 -69 46 -69c92 0 145 187 145 256c0 28 -3 49 -8 76c-2 11 -5 22 -5 34c0 25 8 48 38 48c39 0 43 -47 43 -76c0 -122 -91 -368 -238 -368c-55 0 -84 40 -85 91h-2c-32 -49 -83 -91 -144 -91c-56 0 -101 35 -101 93c0 86 88 199 134 269l-2 2
c-20 -12 -35 -24 -61 -24c-14 3 -21 2 -34 10c-8 3 -16 7 -25 7c-14 0 -18 -16 -18 -27v-9c0 -4 -1 -7 -5 -7c-14 0 -17 29 -17 39c0 36 22 66 59 66z" />
    <glyph glyph-name="x" unicode="x" horiz-adv-x="460" 
d="M176 72l88 128l-52 146c-3 12 -8 25 -23 25c-29 0 -39 -64 -43 -85l-22 7c5 49 34 138 94 138c24 0 37 -13 49 -33c17 -27 29 -69 39 -100l10 -30l18 25c25 35 92 139 139 139c22 0 43 -20 43 -42c0 -37 -33 -78 -58 -104l-17 13c11 18 35 48 35 70c0 10 -7 18 -18 18
c-25 0 -77 -75 -90 -93l-41 -55l53 -145c6 -12 18 -47 34 -47c27 0 43 62 51 82l24 -8c-12 -44 -52 -134 -106 -134c-44 0 -62 60 -74 94l-33 89l-88 -130c-16 -23 -42 -53 -72 -53c-25 0 -42 22 -42 45c0 34 29 77 50 103l22 -14c-11 -17 -32 -46 -32 -66
c0 -11 5 -23 17 -23c19 0 35 27 45 40z" />
    <glyph glyph-name="y" unicode="y" horiz-adv-x="380" 
d="M99 284c1 -13 1 -26 2 -39h-22c-1 15 -1 29 -2 44c0 44 18 142 77 142c52 0 91 -112 102 -152c24 -81 32 -166 35 -250h2c36 70 74 168 74 248s-47 90 -47 123c0 18 15 31 32 31c46 0 45 -67 45 -99c0 -125 -50 -263 -113 -369c-45 -76 -158 -233 -256 -233
c-20 0 -40 11 -40 28c0 33 33 38 58 37c52 -2 75 3 113 36c44 46 68 97 68 161c0 66 -16 180 -34 244c-5 20 -40 135 -65 135c-24 0 -29 -73 -29 -87z" />
    <glyph glyph-name="z" unicode="z" horiz-adv-x="360" 
d="M300 366c25 0 33 20 42 41c4 10 8 24 22 24c9 0 16 -5 16 -14c0 -12 -15 -31 -21 -39l-225 -297c24 4 47 8 70 8c26 0 44 -4 69 -10c12 -2 25 -6 38 -6c36 0 56 20 58 55c0 4 1 15 6 15c15 0 19 -39 19 -49c0 -59 -32 -107 -96 -107c-37 0 -65 17 -91 34
c-25 17 -46 34 -70 34c-27 0 -41 -15 -49 -40c-4 -12 -8 -28 -24 -28c-9 0 -16 6 -16 14c0 26 35 63 50 82l204 264l-2 2c-22 -6 -47 -12 -73 -12c-27 0 -50 10 -74 10c-25 0 -35 -26 -34 -47c1 -5 2 -14 -5 -14c-14 0 -20 40 -20 49c0 49 43 88 92 88c57 0 77 -57 114 -57z
" />
    <glyph glyph-name="braceleft" unicode="{" horiz-adv-x="440" 
d="M171 -9l46 173c19 72 -3 89 -46 104l2 1c65 15 83 42 99 104l40 152c28 105 65 146 170 141l-2 -2c-62 -11 -87 -67 -97 -106l-43 -160c-17 -67 -39 -114 -112 -129h-2v-2c48 -8 72 -34 49 -120l-46 -173c-16 -59 -11 -90 44 -107l-2 -2c-103 1 -125 33 -100 126z" />
    <glyph glyph-name="bar" unicode="|" horiz-adv-x="380" 
d="M257 0v666h53v-666h-53z" />
    <glyph glyph-name="braceright" unicode="}" horiz-adv-x="440" 
d="M282 384l46 173c5 18 8 33 8 46c1 30 -13 49 -52 61l2 2c77 -1 109 -19 109 -67c1 -16 -3 -36 -9 -59l-46 -173c-5 -17 -7 -31 -7 -43c0 -37 20 -50 53 -61l-2 -1c-65 -15 -83 -42 -99 -104l-40 -152c-28 -105 -65 -146 -170 -141l2 2c62 11 87 67 97 106l43 160
c17 67 39 114 112 129h2v2c-35 6 -58 22 -58 64c0 15 3 33 9 56z" />
    <glyph glyph-name="asciitilde" unicode="~" 
d="M227 280c34 0 73 -15 111 -30s74 -31 100 -31c43 0 66 32 88 64l40 -26c-32 -45 -65 -89 -126 -89c-34 0 -73 16 -111 31c-37 15 -73 30 -103 30c-47 0 -71 -34 -94 -70l-40 26c33 52 69 95 135 95z" />
    <glyph glyph-name="exclamdown" unicode="&#xa1;" horiz-adv-x="300" 
d="M206 218l24 -7l-60 -344c-7 -37 -11 -117 -65 -117c-26 0 -45 18 -45 44c0 34 58 189 73 229zM263 431c30 0 54 -23 54 -54c0 -32 -25 -55 -56 -55s-53 27 -53 56s26 53 55 53z" />
    <glyph glyph-name="cent" unicode="&#xa2;" 
d="M501 676l-38 -112c34 0 75 -23 75 -61c0 -20 -16 -39 -37 -39c-19 0 -35 13 -35 32c0 17 10 22 10 32s-14 13 -22 14l-133 -395c79 -5 122 62 158 122l20 -12c-35 -72 -98 -145 -186 -140l-43 -130h-38l44 135c-61 16 -98 76 -98 138c0 124 119 283 246 304l39 112h38z
M288 159l128 376c-87 -26 -163 -223 -163 -302c0 -27 8 -62 35 -74z" />
    <glyph glyph-name="sterling" unicode="&#xa3;" 
d="M220 77c-21 13 -41 26 -67 26c-28 0 -52 -17 -52 -47c0 -26 22 -44 46 -44c37 0 59 35 73 65zM232 119l7 105l6 109h-125l9 32h120c11 62 21 126 49 182c37 72 100 122 184 122c44 0 118 -23 118 -77c0 -20 -14 -42 -36 -42c-69 0 -27 97 -98 97
c-97 0 -116 -211 -125 -282h145l-9 -32h-142c-11 -80 -30 -158 -66 -230c48 -20 98 -39 150 -39c105 0 110 80 131 80c7 0 10 -4 10 -10c0 -24 -15 -50 -28 -69c-30 -47 -69 -78 -127 -78c-60 0 -111 36 -158 70c-23 -38 -57 -70 -104 -70c-40 0 -72 32 -72 70
c0 47 49 76 91 76c24 0 47 -8 70 -14z" />
    <glyph glyph-name="fraction" unicode="&#x2044;" horiz-adv-x="120" 
d="M413 669l-478 -669h-41l478 669h41z" />
    <glyph glyph-name="yen" unicode="&#xa5;" 
d="M425 359l-30 -32l-18 -67h153l-9 -32h-153l-28 -101c-4 -13 -15 -51 -15 -65c0 -46 52 -37 84 -42l-6 -22c-47 1 -93 3 -140 4c-49 -1 -97 -3 -146 -4l6 22c34 3 74 1 99 29c7 7 16 28 23 53l35 126h-145l9 32h145l16 57l-13 42h-126l9 32h108l-40 134
c-8 26 -22 81 -42 99c-10 10 -20 13 -33 14l6 22c41 -1 81 -3 122 -4c42 1 84 3 126 4l-6 -22c-42 0 -87 -4 -87 -56c0 -28 24 -111 33 -141l26 -83l103 114c23 25 92 100 92 130c0 32 -37 34 -61 36l6 22c33 -1 66 -3 99 -4c31 1 62 3 93 4l-6 -22c-47 -7 -82 -52 -112 -86
l-146 -161h117l-9 -32h-139z" />
    <glyph glyph-name="florin" unicode="&#x192;" 
d="M411 466h109l-11 -32h-103l-41 -229c-23 -131 -69 -382 -241 -382c-35 0 -83 13 -83 55c0 25 17 46 43 46c53 0 33 -71 75 -71c36 0 59 49 69 76c18 48 33 131 41 183l50 322h-94l11 32h88c15 55 32 118 62 167c38 61 99 101 173 101c32 0 74 -16 74 -54
c0 -23 -15 -44 -40 -44c-48 0 -48 68 -78 68c-76 0 -92 -185 -104 -238z" />
    <glyph glyph-name="section" unicode="&#xa7;" horiz-adv-x="500" 
d="M449 211c0 40 -38 91 -63 120c-24 29 -54 59 -95 59c-35 0 -63 -26 -63 -61c0 -40 30 -81 53 -112c23 -29 61 -71 102 -71c37 0 66 28 66 65zM283 99l-29 34l-27 33c-30 38 -56 80 -56 130c0 67 40 124 110 124c17 0 31 -5 44 -10l2 2c-33 35 -65 79 -65 131
c0 82 68 126 144 126c56 0 126 -32 126 -97c0 -32 -20 -55 -53 -55c-26 0 -43 18 -43 43c0 15 5 26 15 36c7 6 15 12 15 22c0 20 -44 29 -59 29c-45 0 -88 -31 -88 -79c0 -44 30 -77 58 -108l25 -29l40 -48c33 -40 64 -87 64 -141c0 -62 -39 -126 -107 -126
c-16 0 -31 4 -44 8l-2 -2c36 -36 64 -74 64 -129c0 -85 -76 -132 -155 -132c-60 0 -127 38 -127 105c0 31 20 57 52 57c25 0 47 -17 47 -43c0 -21 -13 -37 -30 -48c-5 -3 -12 -6 -12 -13c0 -25 53 -36 68 -36c52 0 100 32 100 88c0 46 -48 95 -77 128z" />
    <glyph glyph-name="currency" unicode="&#xa4;" 
d="M143 125l50 50c-32 39 -49 88 -49 137c0 48 16 96 49 133l-50 49l27 27l49 -49c37 31 86 48 134 49c50 1 100 -15 138 -49l49 49l27 -27l-49 -49c32 -38 48 -87 48 -135c1 -48 -15 -96 -48 -135l49 -50l-27 -26l-49 49c-41 -35 -89 -51 -138 -50c-47 1 -94 18 -134 50
l-49 -49zM354 138c91 0 167 79 167 171s-73 172 -165 172c-91 0 -167 -79 -167 -170c0 -90 74 -173 165 -173z" />
    <glyph glyph-name="quotesingle" unicode="'" horiz-adv-x="280" 
d="M325 606l-79 -192c-3 -8 -14 -39 -25 -39c-10 0 -6 16 -5 21l52 230c6 26 16 67 50 67c16 0 25 -11 25 -26c0 -17 -12 -46 -18 -61z" />
    <glyph glyph-name="quotedblleft" unicode="&#x201c;" horiz-adv-x="420" 
d="M340 676l10 -22c-36 -15 -101 -76 -101 -113c0 -4 1 -8 2 -11c8 5 16 9 26 9c27 0 49 -22 49 -50c0 -31 -24 -53 -55 -53c-42 0 -66 40 -66 79c0 78 74 127 135 161zM504 676l10 -22c-36 -15 -101 -76 -101 -113c0 -4 1 -8 2 -11c8 5 16 9 26 9c27 0 49 -22 49 -50
c0 -31 -24 -53 -55 -53c-42 0 -66 40 -66 79c0 78 74 127 135 161z" />
    <glyph glyph-name="guillemotleft" unicode="&#xab;" horiz-adv-x="480" 
d="M216 200l63 -119c2 -3 5 -9 5 -13s-3 -7 -6 -7c-5 0 -10 7 -13 10l-110 131l158 127c3 2 19 17 24 17c4 0 7 -3 7 -7c0 -5 -17 -20 -19 -23zM380 200l63 -119c2 -3 5 -9 5 -13s-3 -7 -6 -7c-5 0 -10 7 -13 10l-110 131l158 127c3 2 19 17 24 17c4 0 7 -3 7 -7
c0 -5 -17 -20 -19 -23z" />
    <glyph glyph-name="guilsinglleft" unicode="&#x2039;" horiz-adv-x="320" 
d="M216 200l63 -119c2 -3 5 -9 5 -13s-3 -7 -6 -7c-5 0 -10 7 -13 10l-110 131l158 127c3 2 19 17 24 17c4 0 7 -3 7 -7c0 -5 -16 -20 -19 -23z" />
    <glyph glyph-name="guilsinglright" unicode="&#x203a;" horiz-adv-x="320" 
d="M235 208l-63 118c-2 4 -5 9 -5 14c0 3 3 6 7 6c5 0 10 -6 12 -10l110 -131l-158 -126c-2 -3 -19 -18 -24 -18c-4 0 -6 3 -6 7c0 6 16 21 18 23z" />
    <glyph glyph-name="fi" unicode="&#xfb01;" horiz-adv-x="540" 
d="M305 418h237l-69 -242c-9 -30 -31 -97 -31 -127c0 -14 2 -32 12 -32c31 0 81 103 96 130l20 -10c-24 -50 -73 -150 -140 -150c-36 0 -60 30 -60 65c0 23 11 53 17 74l66 232c1 4 8 26 8 30c0 12 -19 8 -26 8h-137l-77 -271c-9 -34 -17 -69 -26 -103
c-27 -105 -81 -292 -219 -292c-32 0 -81 15 -81 55c0 16 9 31 26 31c20 0 26 -18 31 -34c4 -16 9 -30 28 -30c36 0 62 43 76 71c22 45 46 122 60 172l112 401h-123l6 22h123c41 122 93 259 245 259c33 0 100 -14 100 -57c0 -16 -12 -28 -28 -28c-20 0 -27 15 -33 32
c-10 28 -16 31 -46 31c-110 0 -141 -155 -167 -237z" />
    <glyph glyph-name="fl" unicode="&#xfb02;" horiz-adv-x="580" 
d="M643 688l-144 -459c-11 -36 -41 -146 -41 -180c0 -11 3 -32 17 -32c36 0 94 109 107 133l22 -10c-30 -59 -74 -153 -151 -153c-45 0 -70 29 -70 72c0 35 26 117 38 152l84 269c7 23 41 130 41 148c0 26 -41 32 -60 32c-111 0 -145 -159 -173 -243h102l-7 -22h-101
l-95 -338c-29 -107 -89 -327 -234 -327c-30 0 -83 22 -83 60c0 17 14 29 31 29c41 0 21 -67 61 -67c75 0 129 228 142 274l104 369h-111l6 22h111c23 62 47 134 90 184c62 70 110 79 198 81z" />
    <glyph glyph-name="endash" unicode="&#x2013;" horiz-adv-x="500" 
d="M65 245h500l-8 -53h-500z" />
    <glyph glyph-name="dagger" unicode="&#x2020;" horiz-adv-x="500" 
d="M261 -138h-25c21 104 60 254 60 365l-3 51c34 45 54 99 64 157c-30 3 -50 -6 -79 -18c-15 -6 -31 -14 -47 -14c-25 0 -45 18 -45 43s19 43 43 43c17 0 22 -3 37 -10c36 -15 61 -23 98 -22c7 27 12 55 12 83c0 25 -8 48 -8 73c0 29 12 56 46 56c25 0 43 -18 43 -44
c0 -24 -13 -42 -26 -61c-23 -35 -33 -66 -40 -107c42 -1 60 6 98 21c9 4 24 9 35 9c25 0 43 -19 43 -44c0 -24 -21 -42 -44 -42c-14 0 -24 4 -37 9c-35 15 -63 25 -102 25c-6 -27 -10 -53 -10 -79c0 -30 6 -61 16 -89c-75 -123 -96 -268 -129 -405z" />
    <glyph glyph-name="daggerdbl" unicode="&#x2021;" horiz-adv-x="500" 
d="M346 433l-18 1c-26 0 -35 -5 -59 -15c-18 -7 -31 -14 -51 -14c-24 0 -43 15 -43 40c0 23 18 41 40 41c21 0 36 -7 54 -14c34 -13 48 -16 84 -15c5 24 12 48 12 73c0 28 -9 54 -9 82c0 27 15 57 45 57c26 0 42 -18 42 -43s-13 -43 -26 -64c-19 -32 -32 -68 -38 -105
c27 -1 52 5 78 14c17 6 35 14 53 14c23 0 40 -20 40 -43c0 -22 -19 -41 -40 -41c-18 0 -34 8 -50 14c-35 14 -50 17 -88 18c-9 -28 -14 -57 -14 -87c0 -28 5 -56 16 -82c-45 -45 -61 -109 -75 -169l18 -1c26 0 35 5 59 15c18 7 31 14 51 14c24 0 43 -15 43 -40
c0 -23 -18 -41 -40 -41c-21 0 -36 7 -54 14c-34 13 -48 16 -84 15c-5 -24 -12 -48 -12 -73c0 -28 9 -54 9 -82c0 -27 -15 -57 -45 -57c-26 0 -42 18 -42 43s13 43 26 64c19 32 32 68 38 105c-27 1 -52 -5 -78 -14c-17 -6 -35 -14 -53 -14c-23 0 -40 20 -40 43
c0 22 19 41 40 41c18 0 34 -8 50 -14c35 -14 50 -17 88 -18c8 32 15 63 15 94c0 27 -5 50 -15 75c43 46 64 108 73 169z" />
    <glyph glyph-name="periodcentered" unicode="&#xb7;" horiz-adv-x="260" 
d="M183 166c-31 0 -54 23 -54 54c0 29 24 55 54 55c31 0 55 -21 55 -52c0 -30 -21 -57 -55 -57z" />
    <glyph glyph-name="paragraph" unicode="&#xb6;" horiz-adv-x="500" 
d="M537 472l-117 -420c-8 -29 -27 -95 -27 -123c0 -43 43 -40 77 -40l-5 -22h-159l210 758h-57l-210 -758h-168l5 22c41 3 80 -4 106 32c19 26 37 98 46 131l71 256c-92 0 -169 7 -169 120c0 70 38 149 97 188c56 36 133 48 197 44c19 -1 38 -3 87 -4c54 1 109 3 163 4
l-6 -22c-38 -1 -73 0 -95 -35c-19 -27 -37 -97 -46 -131z" />
    <glyph glyph-name="bullet" unicode="&#x2022;" 
d="M351 169c-90 0 -169 67 -169 159c0 97 74 169 169 169s159 -81 159 -171c0 -83 -74 -157 -159 -157z" />
    <glyph glyph-name="quotesinglbase" unicode="&#x201a;" horiz-adv-x="240" 
d="M56 -150l-10 22c36 15 101 76 101 113c0 4 -1 8 -2 11c-4 -2 -8 -5 -12 -6c-4 -2 -9 -3 -14 -3c-27 0 -49 22 -49 50c0 31 24 53 55 53c42 0 66 -40 66 -79c0 -78 -74 -127 -135 -161z" />
    <glyph glyph-name="quotedblbase" unicode="&#x201e;" horiz-adv-x="420" 
d="M220 -150l-10 22c36 15 101 76 101 113c0 4 -1 8 -2 11c-4 -2 -8 -5 -12 -6c-4 -2 -9 -3 -14 -3c-27 0 -49 22 -49 50c0 31 24 53 55 53c42 0 66 -40 66 -79c0 -78 -74 -127 -135 -161zM56 -150l-10 22c36 15 101 76 101 113c0 4 -1 8 -2 11c-4 -2 -8 -5 -12 -6
c-4 -2 -9 -3 -14 -3c-27 0 -49 22 -49 50c0 31 24 53 55 53c42 0 66 -40 66 -79c0 -78 -74 -127 -135 -161z" />
    <glyph glyph-name="quotedblright" unicode="&#x201d;" horiz-adv-x="420" 
d="M384 436l-10 22c36 15 101 76 101 113c0 4 -1 8 -2 11c-8 -5 -16 -9 -26 -9c-27 0 -49 22 -49 50c0 31 24 53 55 53c42 0 66 -40 66 -79c0 -78 -74 -127 -135 -161zM220 436l-10 22c36 15 101 76 101 113c0 4 -1 8 -2 11c-8 -5 -16 -9 -26 -9c-27 0 -49 22 -49 50
c0 31 24 53 55 53c42 0 66 -40 66 -79c0 -78 -74 -127 -135 -161z" />
    <glyph glyph-name="guillemotright" unicode="&#xbb;" horiz-adv-x="480" 
d="M399 208l-63 118c-2 4 -5 9 -5 14c0 3 3 6 7 6c5 0 10 -6 12 -10l110 -131l-158 -126c-2 -3 -19 -18 -24 -18c-4 0 -6 3 -6 7c0 6 16 21 18 23zM235 208l-63 118c-2 4 -5 9 -5 14c0 3 3 6 7 6c5 0 10 -6 12 -10l110 -131l-158 -126c-2 -3 -19 -18 -24 -18c-4 0 -6 3 -6 7
c0 6 16 21 18 23z" />
    <glyph glyph-name="ellipsis" unicode="&#x2026;" horiz-adv-x="1000" 
d="M834 -13c-30 0 -56 23 -56 54c0 32 25 55 56 55c32 0 53 -26 53 -56c0 -28 -25 -53 -53 -53zM501 -13c-30 0 -56 23 -56 54c0 32 24 55 56 55c31 0 53 -26 53 -56c0 -28 -25 -53 -53 -53zM168 -13c-30 0 -56 23 -56 54c0 32 24 55 56 55c31 0 53 -26 53 -56
c0 -28 -25 -53 -53 -53z" />
    <glyph glyph-name="perthousand" unicode="&#x2030;" horiz-adv-x="1380" 
d="M846 731l-478 -804h-41l423 714l-2 2c-37 -20 -72 -39 -117 -39c-27 0 -53 10 -78 18c7 -22 11 -46 11 -69c0 -97 -68 -239 -179 -239c-91 0 -154 68 -154 158c0 104 88 231 200 231c96 0 96 -69 198 -69c73 0 137 44 184 97h33zM384 344c99 0 150 143 150 223
c0 50 -24 106 -82 106c-91 0 -146 -161 -146 -235c0 -46 27 -94 78 -94zM770 -48c-89 0 -151 66 -151 153c0 110 86 235 204 235c84 0 130 -64 130 -143c0 -103 -63 -245 -183 -245zM772 -18c99 0 151 143 151 223c0 50 -25 105 -83 105c-91 0 -146 -160 -146 -234
c0 -46 27 -94 78 -94zM1164 -48c-89 0 -151 66 -151 153c0 110 86 235 204 235c84 0 130 -64 130 -143c0 -103 -63 -245 -183 -245zM1167 -18c99 0 150 143 150 223c0 50 -24 106 -82 104c-91 1 -147 -159 -147 -233c0 -46 28 -94 79 -94z" />
    <glyph glyph-name="questiondown" unicode="&#xbf;" horiz-adv-x="440" 
d="M187 181l-16 16c23 25 55 43 89 43c46 0 76 -37 76 -80c0 -44 -32 -79 -62 -107l-56 -51c-38 -35 -83 -73 -83 -128c0 -61 37 -97 98 -97c48 0 95 30 95 81c0 30 -24 62 -56 62c-6 0 -19 -4 -19 -12s19 -15 19 -39c0 -18 -15 -33 -34 -33c-24 0 -41 19 -41 43
c0 40 39 66 76 66c49 0 85 -36 85 -84c0 -73 -62 -114 -130 -114c-87 0 -158 60 -158 150c0 67 51 121 98 162l33 28c20 18 81 63 81 94c0 17 -14 29 -32 29c-24 0 -46 -14 -63 -29zM301 431c30 0 54 -24 54 -54c0 -33 -24 -55 -56 -55c-31 0 -53 26 -53 55
c0 30 26 54 55 54z" />
    <glyph glyph-name="grave" unicode="`" horiz-adv-x="340" 
d="M429 523h-28l-115 72c-14 9 -37 21 -37 41c0 17 14 35 32 35c26 0 53 -39 68 -56z" />
    <glyph glyph-name="acute" unicode="&#xb4;" horiz-adv-x="300" 
d="M215 522l107 98c16 16 42 44 67 44c16 0 31 -15 31 -31c0 -30 -39 -45 -61 -56l-111 -55h-33z" />
    <glyph glyph-name="circumflex" unicode="&#x2c6;" horiz-adv-x="400" 
d="M412 673l78 -142h-25l-83 82l-127 -82h-37l144 142h50z" />
    <glyph glyph-name="tilde" unicode="&#x2dc;" horiz-adv-x="400" 
d="M482 625l23 -3c-6 -38 -39 -84 -81 -84c-50 0 -99 42 -131 42c-24 0 -35 -17 -46 -35l-24 3c15 44 46 82 96 82c41 0 95 -40 122 -40c22 0 33 17 41 35z" />
    <glyph glyph-name="macron" unicode="&#xaf;" horiz-adv-x="400" 
d="M504 584h-261v34h261v-34z" />
    <glyph glyph-name="breve" unicode="&#x2d8;" horiz-adv-x="420" 
d="M515 653h28c-39 -59 -116 -123 -188 -123c-78 0 -104 54 -102 123h23c1 -55 49 -64 94 -64c56 0 105 27 145 64z" />
    <glyph glyph-name="dotaccent" unicode="&#x2d9;" horiz-adv-x="220" 
d="M285 547c-27 0 -49 21 -49 48s21 50 49 50c27 0 49 -22 49 -49s-22 -49 -49 -49z" />
    <glyph glyph-name="dieresis" unicode="&#xa8;" horiz-adv-x="400" 
d="M285 547c-27 0 -49 21 -49 48s21 50 49 50c27 0 49 -22 49 -49s-22 -49 -49 -49zM449 547c-27 0 -49 21 -49 48s21 50 49 50c27 0 49 -22 49 -49s-22 -49 -49 -49z" />
    <glyph glyph-name="ring" unicode="&#x2da;" horiz-adv-x="340" 
d="M334 473c-56 0 -104 44 -104 101c0 58 47 104 105 104s103 -47 103 -104s-48 -101 -104 -101zM334 506c37 0 68 31 68 68c0 39 -28 71 -68 71c-39 0 -68 -33 -68 -71c0 -37 30 -68 68 -68z" />
    <glyph glyph-name="cedilla" unicode="&#xb8;" horiz-adv-x="280" 
d="M154 0l-15 -47c31 0 65 -18 65 -52c0 -45 -41 -67 -81 -67c-26 0 -81 11 -81 45c0 11 9 22 21 22c13 0 17 -8 21 -19c5 -18 10 -26 30 -26c25 0 48 17 48 44s-34 32 -55 31l22 69h25z" />
    <glyph glyph-name="hungarumlaut" unicode="&#x2dd;" horiz-adv-x="440" 
d="M215 522l107 98c16 16 42 44 67 44c16 0 31 -15 31 -31c0 -30 -39 -45 -61 -56l-111 -55h-33zM360 522l106 98c17 16 43 44 67 44c16 0 31 -15 31 -31c0 -30 -38 -45 -61 -56l-111 -55h-32z" />
    <glyph glyph-name="ogonek" unicode="&#x2db;" horiz-adv-x="300" 
d="M203 0l-42 -25c-22 -12 -65 -35 -65 -65c0 -16 12 -28 28 -28c23 0 56 24 74 39l16 -25c-27 -29 -75 -55 -115 -55c-27 0 -65 13 -65 46c0 68 116 104 171 111z" />
    <glyph glyph-name="caron" unicode="&#x2c7;" horiz-adv-x="400" 
d="M330 531l-77 143h25l83 -83l126 83h38l-144 -143h-51z" />
    <glyph glyph-name="emdash" unicode="&#x2014;" horiz-adv-x="1000" 
d="M65 245h1000l-8 -53h-1000z" />
    <glyph glyph-name="AE" unicode="&#xc6;" horiz-adv-x="920" 
d="M359 345h144l70 260l-2 2zM118 79l119 158c85 105 285 345 285 369c0 33 -33 27 -84 32l5 22c59 -1 118 -3 177 -4c113 1 225 3 338 4l14 -152h-19c-39 145 -99 130 -219 130h-60l-71 -272h75c62 0 87 19 124 106h20l-52 -255h-22l3 41c0 28 -1 63 -29 76
c-15 7 -41 10 -65 10h-60l-57 -212c-32 -124 46 -112 140 -112c121 0 163 44 214 150h22l-46 -172c-134 1 -268 3 -402 4c-48 -1 -97 -3 -145 -4l5 22c88 -4 95 28 115 102l53 201h-158c-37 -48 -182 -220 -182 -271c0 -35 50 -29 75 -35l-5 -19c-34 1 -69 3 -103 4
c-32 -1 -64 -3 -96 -4l5 19c43 5 62 28 86 62z" />
    <glyph glyph-name="ordfeminine" unicode="&#xaa;" horiz-adv-x="360" 
d="M347 649c-60 0 -129 -139 -129 -192c0 -18 8 -35 27 -35c67 0 128 146 128 200c0 15 -11 27 -26 27zM428 307h-254v33h254v-33zM450 661l-30 -75c-12 -37 -44 -113 -44 -150c0 -5 2 -10 7 -10c19 0 52 63 60 80l20 -8c-21 -38 -42 -98 -94 -98c-23 0 -41 13 -41 37
c0 7 1 13 2 18l-2 2c-20 -30 -49 -57 -88 -57c-42 0 -75 30 -75 73c0 84 89 196 177 196c20 0 38 -9 48 -27l8 19h52z" />
    <glyph glyph-name="Lslash" unicode="&#x141;" horiz-adv-x="600" 
d="M637 166l-45 -168c-142 1 -285 3 -427 4c-44 -1 -89 -3 -133 -4l6 22c88 -4 95 28 116 102l46 168l-93 -42l11 42l93 43l52 193c5 17 19 60 19 77c0 40 -64 35 -88 35l6 22c44 -1 87 -3 131 -4c51 1 101 3 152 4l-6 -22c-28 0 -67 -1 -85 -26c-15 -19 -35 -92 -42 -116
l-32 -121l161 72l-12 -43l-161 -71l-49 -182c-6 -22 -15 -57 -15 -79c0 -64 99 -52 136 -52c128 0 185 19 237 146h22z" />
    <glyph glyph-name="Oslash" unicode="&#xd8;" horiz-adv-x="700" 
d="M714 753l-72 -117c77 -52 111 -127 111 -217c0 -209 -171 -432 -391 -432c-34 0 -68 6 -101 16l-70 -115h-45l80 132c-75 49 -100 133 -100 219c0 199 164 430 377 430c36 0 71 -7 105 -18l65 102h41zM255 68l336 554c-21 16 -46 25 -73 25c-191 0 -292 -311 -292 -460
c0 -43 8 -81 29 -119zM620 593l-340 -559c22 -19 48 -25 77 -25c201 0 296 299 296 457c0 44 -6 90 -33 127z" />
    <glyph glyph-name="OE" unicode="&#x152;" horiz-adv-x="1000" 
d="M568 193l62 234c10 38 26 98 26 136c0 65 -52 75 -106 75c-213 0 -324 -242 -324 -426c0 -118 65 -192 185 -192c115 0 129 74 157 173zM1056 660l15 -155h-21c-42 111 -76 133 -198 133h-72l-70 -275h77c70 0 90 46 116 105h19l-49 -251h-20c2 55 8 124 -63 124h-87
l-51 -191c-5 -20 -15 -52 -15 -73c0 -55 98 -55 134 -57c127 -7 165 39 224 150h23l-46 -172c-138 1 -277 3 -405 4c-61 -1 -112 -3 -163 -4c-152 -2 -278 65 -278 234c0 110 38 219 113 302c86 95 181 126 308 126c56 -1 112 -3 168 -4c114 1 227 3 341 4z" />
    <glyph glyph-name="ordmasculine" unicode="&#xba;" horiz-adv-x="340" 
d="M268 400c-55 0 -95 33 -95 90c0 80 69 179 155 179c56 0 88 -48 88 -99c0 -74 -69 -170 -148 -170zM327 647c-63 0 -101 -135 -101 -186c0 -26 13 -39 40 -39c66 0 97 136 97 187c0 21 -13 38 -36 38zM405 307h-255v33h255v-33z" />
    <glyph glyph-name="ae" unicode="&#xe6;" horiz-adv-x="600" 
d="M422 188c53 21 99 50 137 94c18 22 43 63 43 94c0 21 -16 33 -37 33c-68 0 -128 -164 -143 -221zM464 410l68 12c17 5 29 9 47 9c43 0 78 -23 78 -69c0 -105 -159 -172 -243 -200c-9 -31 -17 -63 -17 -95c0 -30 19 -58 50 -58c62 0 110 73 144 118l19 -13
c-40 -57 -98 -127 -174 -127c-54 0 -98 32 -110 84c-38 -43 -84 -84 -144 -84c-63 0 -89 48 -89 107c0 95 58 177 132 230c73 53 152 75 239 86zM487 395v-2l-2 2c-82 -7 -159 -39 -219 -99c-54 -54 -101 -140 -101 -218c0 -26 7 -61 40 -61c37 0 95 56 117 87
c14 124 72 211 165 291z" />
    <glyph glyph-name="dotlessi" unicode="&#x131;" horiz-adv-x="280" 
d="M156 194l28 67c9 24 37 96 37 120c0 10 -6 20 -17 20c-31 0 -80 -82 -94 -109l-20 11c29 49 70 128 134 128c38 0 62 -33 62 -68c0 -48 -29 -108 -47 -153l-32 -81c-6 -17 -30 -77 -30 -95c0 -8 6 -17 15 -17c38 0 92 89 107 120l20 -10c-25 -52 -77 -140 -142 -140
c-41 0 -65 33 -65 72c0 42 28 96 44 135z" />
    <glyph glyph-name="lslash" unicode="&#x142;" horiz-adv-x="260" 
d="M352 666l-80 -255l104 55l-15 -48l-104 -54l-24 -77c-17 -56 -60 -187 -60 -241c0 -12 4 -29 19 -29c33 0 89 96 102 126l23 -11c-29 -55 -72 -145 -146 -145c-47 0 -70 35 -70 79c0 37 26 122 38 160l32 103l-98 -53l14 45l95 53l59 187c3 10 10 30 10 41
c0 36 -49 30 -72 32l6 22z" />
    <glyph glyph-name="oslash" unicode="&#xf8;" horiz-adv-x="420" 
d="M452 533l-58 -115c47 -35 63 -91 63 -147c0 -118 -99 -284 -230 -284c-14 0 -28 2 -42 6l-57 -114h-37l63 127c-43 26 -60 87 -60 135c0 116 98 290 227 290c14 0 28 -2 42 -5l52 107h37zM174 48l176 357c-8 4 -16 4 -26 4c-103 0 -158 -234 -158 -314c0 -16 3 -32 8 -47
zM375 378l-177 -360c9 -5 17 -9 28 -9c112 1 159 235 159 320c0 18 -1 33 -10 49z" />
    <glyph glyph-name="oe" unicode="&#x153;" horiz-adv-x="620" 
d="M328 409c-108 0 -165 -229 -165 -312c0 -43 15 -88 66 -88c112 0 165 237 165 318c0 42 -18 82 -66 82zM443 187c70 23 179 111 179 190c0 21 -16 32 -37 32c-81 0 -127 -159 -142 -222zM224 -13c-88 0 -133 75 -133 156c0 124 101 288 237 288c57 0 91 -25 119 -73
c43 37 93 73 153 73c40 0 77 -24 77 -68c0 -103 -160 -176 -243 -203c-9 -28 -15 -57 -15 -86c0 -31 15 -65 49 -65c64 0 113 78 146 121l19 -14c-43 -59 -95 -129 -176 -129c-54 0 -94 29 -106 82c-29 -45 -71 -82 -127 -82z" />
    <glyph glyph-name="germandbls" unicode="&#xdf;" horiz-adv-x="460" 
d="M322 369c0 11 12 13 21 14c83 12 109 115 109 186c0 36 -6 85 -52 85c-51 0 -71 -92 -95 -190l-105 -420c-27 -108 -74 -314 -221 -314c-33 0 -84 14 -84 55c0 16 10 29 26 29c22 0 29 -19 34 -36c5 -16 9 -26 29 -26c46 0 69 52 80 87c24 75 44 141 63 213l114 441
c16 62 61 183 163 183c78 0 120 -63 120 -136c0 -97 -63 -157 -155 -172v-2c77 -11 113 -63 113 -141c0 -94 -74 -238 -181 -238c-33 0 -67 14 -67 52c0 20 10 40 32 40c17 0 28 -12 28 -29s-9 -21 -9 -29c0 -6 4 -12 10 -12c27 0 58 50 68 69c25 49 47 129 47 184
c0 107 -88 81 -88 107z" />
    <glyph glyph-name="divide" unicode="&#xf7;" 
d="M102 248h443v-53h-443v53zM323 345c-27 0 -49 21 -49 48s21 50 49 50c27 0 49 -22 49 -49s-22 -49 -49 -49zM323 0c-27 0 -49 21 -49 48s21 50 49 50c27 0 49 -22 49 -49s-22 -49 -49 -49z" />
    <glyph glyph-name="threequarters" unicode="&#xbe;" horiz-adv-x="780" 
d="M824 410l-71 -243h13c18 0 33 -1 49 7c2 1 4 -1 4 -3l-8 -28h-64l-40 -143h-53l42 143h-174l6 19l286 248h10zM560 167h143l48 163l-2 2zM753 669l-478 -669h-41l478 669h41zM213 608l11 49c24 8 50 12 75 12c50 0 118 -12 118 -70c0 -52 -57 -75 -101 -93v-2
c43 0 66 -33 66 -70c0 -63 -59 -113 -116 -138s-123 -36 -186 -36l5 15c48 4 99 11 143 31c50 23 95 68 95 122c0 38 -29 54 -67 54c-28 0 -55 -7 -61 -7s-12 2 -12 7c0 12 24 12 33 13c53 6 154 27 154 90c0 30 -37 39 -64 39c-31 0 -64 -7 -93 -16z" />
    <glyph glyph-name="onequarter" unicode="&#xbc;" horiz-adv-x="780" 
d="M824 410l-71 -243h13c18 0 33 -1 49 7c2 1 4 -1 4 -3l-8 -28h-64l-40 -143h-53l42 143h-174l6 19l286 248h10zM560 167h143l48 163l-2 2zM763 669l-478 -669h-41l478 669h41zM360 666l-77 -266c-5 -19 -26 -86 -26 -102c0 -25 31 -23 67 -24l-4 -13c-34 0 -67 2 -101 2
c-33 0 -65 -2 -97 -2l4 13c15 1 51 1 64 13c12 11 20 43 24 59l63 221c2 9 8 29 8 36c0 17 -16 18 -30 18c-14 -1 -27 -1 -41 -1l3 13c50 3 99 14 143 33z" />
    <glyph glyph-name="onesuperior" unicode="&#xb9;" horiz-adv-x="312" 
d="M360 666l-77 -266c-5 -19 -26 -86 -26 -102c0 -25 31 -23 67 -24l-4 -13c-34 0 -67 2 -101 2c-33 0 -65 -2 -97 -2l4 13c15 1 51 1 64 13c12 11 20 43 24 59l63 221c2 9 8 29 8 36c0 17 -16 18 -30 18c-14 -1 -27 -1 -41 -1l3 13c50 3 99 14 143 33z" />
    <glyph glyph-name="multiply" unicode="&#xd7;" 
d="M286 222l-156 156l38 37l155 -156l156 156l38 -37l-156 -156l156 -156l-38 -37l-156 156l-155 -156l-38 37z" />
    <glyph glyph-name="registered" unicode="&#xae;" horiz-adv-x="720" 
d="M453 -13c-197 0 -326 149 -326 339c0 189 127 343 327 343c202 0 334 -150 334 -340c0 -197 -133 -342 -335 -342zM455 626c-163 0 -280 -122 -280 -296c0 -183 118 -300 286 -300c163 0 279 123 279 299c0 180 -117 297 -285 297zM407 325v-133c0 -21 1 -29 45 -29v-18
h-157v18c44 0 46 8 46 29v303c0 21 -2 29 -46 29v18h159c91 0 155 -16 155 -98c0 -59 -52 -101 -107 -103v-2c40 -5 63 -54 84 -99c20 -42 30 -78 69 -77v-18h-26c-22 0 -47 -4 -67 11c-50 38 -32 182 -155 169zM407 349h13c65 0 124 8 124 87c0 61 -33 83 -91 83
c-40 0 -46 0 -46 -41v-129z" />
    <glyph glyph-name="Thorn" unicode="&#xde;" horiz-adv-x="560" 
d="M176 638l6 22c36 -1 75 -3 129 -4c52 1 103 3 155 4l-6 -22c-28 -1 -67 0 -85 -25c-12 -15 -27 -63 -36 -95l-3 -12c18 -2 30 -1 41 -1c106 -2 247 -21 250 -156c-3 -159 -169 -197 -296 -197c-30 1 -59 3 -89 4l-7 -26c-4 -16 -19 -61 -19 -77c0 -38 52 -32 87 -33
l-7 -22c-44 1 -94 3 -143 4c-46 -1 -91 -3 -138 -4l6 22c88 -4 95 28 116 102l108 404c5 17 19 60 19 77c0 40 -64 34 -88 35zM315 429l-67 -248c22 -2 44 -3 66 -5c119 0 213 65 213 192c0 83 -67 115 -138 115c-13 0 -52 0 -63 -17c-4 -7 -9 -29 -11 -37z" />
    <glyph glyph-name="brokenbar" unicode="&#xa6;" horiz-adv-x="380" 
d="M257 0v267h53v-267h-53zM257 666h53v-267h-53v267z" />
    <glyph glyph-name="Eth" unicode="&#xd0;" horiz-adv-x="660" 
d="M118 122l57 212h-83l12 32h80l42 160c4 17 19 65 19 77c0 25 -27 35 -69 35h-19l6 22c44 -1 89 -4 133 -4c33 0 81 4 126 4c56 0 126 -15 190 -67c63 -52 94 -128 94 -208c0 -106 -45 -210 -121 -283c-84 -81 -174 -104 -281 -104c-65 0 -124 4 -182 4
c-42 0 -84 -3 -126 -4l6 22h18c71 1 79 34 98 102zM340 590l-60 -224h132l-12 -32h-129l-40 -149c-8 -28 -22 -77 -22 -106c0 -57 56 -59 99 -59c112 0 179 50 231 148c42 79 67 177 67 267c0 132 -75 203 -193 203c-57 0 -60 -2 -73 -48z" />
    <glyph glyph-name="onehalf" unicode="&#xbd;" horiz-adv-x="780" 
d="M876 94l-42 -96c-13 0 -25 2 -38 2c-73 0 -146 -2 -219 -2v8c30 27 59 55 89 82l125 114c26 27 48 55 48 92c0 43 -33 69 -78 69c-43 0 -86 -29 -86 -71c0 -21 8 -39 8 -43c0 -2 -2 -3 -4 -3c-12 0 -23 36 -23 57c0 61 54 97 116 97c69 0 122 -36 122 -102
c0 -68 -72 -114 -124 -152l-132 -101v-2h115c64 0 79 -6 109 51h14zM763 669l-478 -669h-41l478 669h41zM360 666l-77 -266c-5 -19 -26 -86 -26 -102c0 -25 31 -23 67 -24l-4 -13c-34 0 -67 2 -101 2c-33 0 -65 -2 -97 -2l4 13c15 1 51 1 64 13c12 11 20 43 24 59l63 221
c2 9 8 29 8 36c0 17 -16 18 -30 18c-14 -1 -27 -1 -41 -1l3 13c50 3 99 14 143 33z" />
    <glyph glyph-name="minus" unicode="&#x2212;" 
d="M102 248h443v-53h-443v53z" />
    <glyph glyph-name="ccedilla" unicode="&#xe7;" horiz-adv-x="360" 
d="M177 -69l18 56c-70 7 -104 65 -104 133c0 124 116 311 252 311c34 0 76 -18 76 -57c0 -21 -16 -42 -38 -42c-19 0 -34 17 -34 35c0 16 11 23 11 30c0 11 -14 12 -22 12c-100 0 -173 -259 -173 -329c0 -35 17 -71 56 -71c69 0 114 72 142 128l20 -12
c-33 -65 -85 -130 -161 -137l-11 -35c31 0 65 -18 65 -52c0 -45 -41 -67 -81 -67c-26 0 -81 11 -81 45c0 11 9 22 21 22c13 0 17 -8 21 -19c5 -18 10 -26 30 -26c25 0 48 17 48 44s-34 32 -55 31z" />
    <glyph glyph-name="eth" unicode="&#xf0;" horiz-adv-x="420" 
d="M327 409c-105 0 -164 -243 -164 -325c0 -45 21 -75 68 -75c110 0 157 242 157 326c0 36 -20 74 -61 74zM257 705l21 17c38 -29 71 -61 98 -97l107 54l18 -27l-105 -54c47 -72 72 -156 72 -251c0 -155 -82 -360 -238 -360c-87 0 -139 60 -139 146c0 116 96 298 231 298
c38 0 57 -21 73 -39c-1 60 -15 125 -42 184l-105 -54l-20 29l110 55c-22 38 -49 72 -81 99z" />
    <glyph glyph-name="plusminus" unicode="&#xb1;" 
d="M102 298h195v145h53v-145h195v-53h-195v-145h-53v145h-195v53zM102 53h443v-53h-443v53z" />
    <glyph glyph-name="Ccedilla" unicode="&#xc7;" horiz-adv-x="620" 
d="M317 -69l19 60c-128 15 -210 114 -210 250c0 205 166 428 383 428c65 0 105 -19 159 -52l35 36h10l-38 -186h-20c-6 95 -27 180 -140 180c-188 0 -289 -291 -289 -445c0 -110 50 -193 169 -193c133 0 183 97 238 200h21l-53 -211h-11l-12 52c-67 -47 -122 -63 -203 -63
c-5 0 -10 0 -15 2l-11 -36c31 0 65 -18 65 -52c0 -45 -41 -67 -81 -67c-26 0 -81 11 -81 45c0 11 9 22 21 22c13 0 17 -8 21 -19c5 -18 10 -26 30 -26c25 0 48 17 48 44s-34 32 -55 31z" />
    <glyph glyph-name="thorn" unicode="&#xfe;" horiz-adv-x="480" 
d="M369 666l-97 -332l2 -2c33 50 67 99 135 99c72 0 111 -61 111 -127c0 -125 -108 -317 -251 -317c-32 0 -66 22 -76 53h-2l-37 -135c-6 -22 -30 -102 -30 -124c0 -34 49 -32 68 -33l-7 -22c-36 1 -71 3 -107 4c-33 -1 -65 -3 -98 -4l6 22c17 1 39 2 52 15
c14 17 27 70 33 91l195 700c3 12 12 39 12 51c0 31 -42 29 -62 29l6 22zM396 409c-101 0 -183 -249 -183 -332c0 -29 16 -68 50 -68c101 0 185 250 185 333c0 30 -18 67 -52 67z" />
    <glyph glyph-name="copyright" unicode="&#xa9;" horiz-adv-x="720" 
d="M453 -13c-197 0 -326 149 -326 339c0 189 127 343 327 343c202 0 334 -150 334 -340c0 -197 -133 -342 -335 -342zM455 626c-163 0 -280 -122 -280 -296c0 -183 118 -300 286 -300c163 0 279 123 279 299c0 180 -117 297 -285 297zM604 510v-109h-30
c-4 63 -41 106 -105 106c-94 0 -135 -84 -135 -168c0 -89 47 -182 143 -182c51 0 89 29 115 72l23 -9c-25 -65 -100 -98 -165 -98c-119 0 -195 88 -195 204c0 125 83 211 207 211c46 0 97 -11 142 -27z" />
    <glyph glyph-name="logicalnot" unicode="&#xac;" 
d="M492 54v206h-390v53h443v-259h-53z" />
    <glyph glyph-name="twosuperior" unicode="&#xb2;" horiz-adv-x="312" 
d="M382 360l-42 -96c-13 0 -25 2 -38 2c-73 0 -146 -2 -219 -2v8c30 27 59 55 89 82l125 114c26 27 48 55 48 92c0 43 -33 69 -78 69c-43 0 -86 -29 -86 -71c0 -21 8 -39 8 -43c0 -2 -2 -3 -4 -3c-12 0 -23 36 -23 57c0 61 54 97 116 97c69 0 122 -36 122 -102
c0 -68 -72 -114 -124 -152l-132 -101v-2h115c64 0 79 -6 109 51h14z" />
    <glyph glyph-name="threesuperior" unicode="&#xb3;" horiz-adv-x="312" 
d="M213 605l11 49c24 8 50 12 75 12c50 0 118 -12 118 -70c0 -52 -57 -75 -101 -93v-2c43 0 66 -33 66 -70c0 -63 -59 -113 -116 -138s-123 -36 -186 -36l5 15c48 4 99 11 143 31c50 23 95 68 95 122c0 38 -29 54 -67 54c-28 0 -55 -7 -61 -7s-12 2 -12 7c0 12 24 12 33 13
c53 6 154 27 154 90c0 30 -37 39 -64 39c-31 0 -64 -7 -93 -16z" />
    <glyph glyph-name="trademark" unicode="&#x2122;" horiz-adv-x="800" 
d="M133 573v83h292v-83h-22c0 54 -21 60 -69 60h-27v-274c0 -24 23 -26 49 -27v-19h-154v19c27 1 49 3 49 27v274h-20c-51 0 -76 -1 -76 -60h-22zM863 621v-248c0 -35 5 -40 43 -41v-19h-142v19c38 1 43 6 43 41v245h-7l-120 -305h-8l-122 305h-7v-259c0 -24 22 -26 49 -27
v-19h-122v19c27 1 49 3 49 27v265c0 15 -17 13 -34 13v19h100l106 -253l101 253h109v-19c-25 0 -38 -1 -38 -16z" />
    <glyph glyph-name="degree" unicode="&#xb0;" horiz-adv-x="400" 
d="M445 544c0 -69 -57 -125 -125 -125c-69 0 -125 56 -125 125c-1 68 56 125 125 125c68 0 125 -57 125 -125zM412 544c0 50 -42 92 -93 92c-50 0 -91 -42 -91 -92c0 -51 41 -92 92 -92c50 0 92 41 92 92z" />
    <glyph glyph-name="mu" unicode="&#xb5;" horiz-adv-x="560" 
d="M277 241l-42 -132c-5 -15 -14 -43 -14 -59c0 -21 15 -33 36 -33c65 0 129 116 152 168l81 241h74l-38 -126c-21 -74 -56 -178 -56 -254c0 -10 3 -29 17 -29c33 0 81 96 90 126l22 -8c-20 -55 -62 -148 -130 -148c-47 0 -71 33 -67 76c2 20 3 41 5 61l-2 2
c-36 -59 -86 -139 -165 -139c-16 0 -31 4 -42 12l-23 -132c-6 -37 -11 -117 -65 -117c-26 0 -44 18 -38 42c84 312 93 339 103 371l18 59c13 44 32 92 36 136c1 10 7 43 -11 43c-37 0 -94 -104 -109 -134l-21 10c28 58 78 154 152 154c39 0 61 -39 61 -74
c0 -36 -13 -81 -24 -116z" />
    <glyph glyph-name="Aacute" unicode="&#xc1;" horiz-adv-x="640" 
d="M479 668l79 -540c3 -19 10 -73 20 -87c14 -19 51 -19 72 -21l-6 -22c-44 1 -89 3 -133 4c-43 -1 -86 -3 -129 -4l5 22c39 3 86 -1 86 49c0 18 -3 41 -6 60l-22 144h-194l-44 -83c-8 -16 -57 -110 -57 -139c0 -31 63 -30 81 -31l-6 -22c-38 1 -76 3 -114 4
c-34 -1 -68 -3 -102 -4l6 22c33 5 54 12 78 38c27 29 63 101 84 138l272 472h30zM268 303h172l-30 247h-2zM415 750l107 98c16 16 42 44 67 44c16 0 31 -15 31 -31c0 -30 -39 -45 -61 -56l-111 -55h-33z" />
    <glyph glyph-name="Acircumflex" unicode="&#xc2;" horiz-adv-x="640" 
d="M479 668l79 -540c3 -19 10 -73 20 -87c14 -19 51 -19 72 -21l-6 -22c-44 1 -89 3 -133 4c-43 -1 -86 -3 -129 -4l5 22c39 3 86 -1 86 49c0 18 -3 41 -6 60l-22 144h-194l-44 -83c-8 -16 -57 -110 -57 -139c0 -31 63 -30 81 -31l-6 -22c-38 1 -76 3 -114 4
c-34 -1 -68 -3 -102 -4l6 22c33 5 54 12 78 38c27 29 63 101 84 138l272 472h30zM268 303h172l-30 247h-2zM532 901l78 -142h-25l-83 82l-127 -82h-37l144 142h50z" />
    <glyph glyph-name="Adieresis" unicode="&#xc4;" horiz-adv-x="640" 
d="M479 668l79 -540c3 -19 10 -73 20 -87c14 -19 51 -19 72 -21l-6 -22c-44 1 -89 3 -133 4c-43 -1 -86 -3 -129 -4l5 22c39 3 86 -1 86 49c0 18 -3 41 -6 60l-22 144h-194l-44 -83c-8 -16 -57 -110 -57 -139c0 -31 63 -30 81 -31l-6 -22c-38 1 -76 3 -114 4
c-34 -1 -68 -3 -102 -4l6 22c33 5 54 12 78 38c27 29 63 101 84 138l272 472h30zM268 303h172l-30 247h-2zM405 775c-27 0 -49 21 -49 48s21 50 49 50c27 0 49 -22 49 -49s-22 -49 -49 -49zM569 775c-27 0 -49 21 -49 48s21 50 49 50c27 0 49 -22 49 -49s-22 -49 -49 -49z
" />
    <glyph glyph-name="Agrave" unicode="&#xc0;" horiz-adv-x="640" 
d="M479 668l79 -540c3 -19 10 -73 20 -87c14 -19 51 -19 72 -21l-6 -22c-44 1 -89 3 -133 4c-43 -1 -86 -3 -129 -4l5 22c39 3 86 -1 86 49c0 18 -3 41 -6 60l-22 144h-194l-44 -83c-8 -16 -57 -110 -57 -139c0 -31 63 -30 81 -31l-6 -22c-38 1 -76 3 -114 4
c-34 -1 -68 -3 -102 -4l6 22c33 5 54 12 78 38c27 29 63 101 84 138l272 472h30zM268 303h172l-30 247h-2zM579 751h-28l-115 72c-14 9 -37 21 -37 41c0 17 14 35 32 35c26 0 53 -39 68 -56z" />
    <glyph glyph-name="Aring" unicode="&#xc5;" horiz-adv-x="640" 
d="M479 668l79 -540c3 -19 10 -73 20 -87c14 -19 51 -19 72 -21l-6 -22c-44 1 -89 3 -133 4c-43 -1 -86 -3 -129 -4l5 22c39 3 86 -1 86 49c0 18 -3 41 -6 60l-22 144h-194l-44 -83c-8 -16 -57 -110 -57 -139c0 -31 63 -30 81 -31l-6 -22c-38 1 -76 3 -114 4
c-34 -1 -68 -3 -102 -4l6 22c33 5 54 12 78 38c27 29 63 101 84 138l272 472h30zM268 303h172l-30 247h-2zM484 701c-56 0 -104 44 -104 101c0 58 47 104 105 104s103 -47 103 -104s-48 -101 -104 -101zM484 734c37 0 68 31 68 68c0 39 -28 71 -68 71c-39 0 -68 -33 -68 -71
c0 -37 30 -68 68 -68z" />
    <glyph glyph-name="Atilde" unicode="&#xc3;" horiz-adv-x="640" 
d="M479 668l79 -540c3 -19 10 -73 20 -87c14 -19 51 -19 72 -21l-6 -22c-44 1 -89 3 -133 4c-43 -1 -86 -3 -129 -4l5 22c39 3 86 -1 86 49c0 18 -3 41 -6 60l-22 144h-194l-44 -83c-8 -16 -57 -110 -57 -139c0 -31 63 -30 81 -31l-6 -22c-38 1 -76 3 -114 4
c-34 -1 -68 -3 -102 -4l6 22c33 5 54 12 78 38c27 29 63 101 84 138l272 472h30zM268 303h172l-30 247h-2zM602 853l23 -3c-6 -38 -39 -84 -81 -84c-50 0 -99 42 -131 42c-24 0 -35 -17 -46 -35l-24 3c15 44 46 82 96 82c41 0 95 -40 122 -40c22 0 33 17 41 35z" />
    <glyph glyph-name="Eacute" unicode="&#xc9;" horiz-adv-x="560" 
d="M-4 -2l6 22c88 -4 95 28 115 102l108 404c4 16 17 60 17 75c0 37 -48 37 -75 37l6 22c42 -1 83 -3 125 -4c111 1 223 3 334 4l14 -152h-19c-29 104 -72 130 -145 130h-133l-72 -272h77c59 0 84 20 122 106h18l-52 -255h-20c0 35 14 95 -26 117c-12 7 -33 10 -54 10h-71
l-57 -212c-5 -17 -10 -35 -10 -53c0 -68 110 -59 150 -59c121 0 163 44 213 150h23l-46 -172c-136 1 -272 3 -408 4c-47 -1 -93 -3 -140 -4zM375 750l107 98c16 16 42 44 67 44c16 0 31 -15 31 -31c0 -30 -39 -45 -61 -56l-111 -55h-33z" />
    <glyph glyph-name="Ecircumflex" unicode="&#xca;" horiz-adv-x="560" 
d="M-4 -2l6 22c88 -4 95 28 115 102l108 404c4 16 17 60 17 75c0 37 -48 37 -75 37l6 22c42 -1 83 -3 125 -4c111 1 223 3 334 4l14 -152h-19c-29 104 -72 130 -145 130h-133l-72 -272h77c59 0 84 20 122 106h18l-52 -255h-20c0 35 14 95 -26 117c-12 7 -33 10 -54 10h-71
l-57 -212c-5 -17 -10 -35 -10 -53c0 -68 110 -59 150 -59c121 0 163 44 213 150h23l-46 -172c-136 1 -272 3 -408 4c-47 -1 -93 -3 -140 -4zM492 901l78 -142h-25l-83 82l-127 -82h-37l144 142h50z" />
    <glyph glyph-name="Edieresis" unicode="&#xcb;" horiz-adv-x="560" 
d="M-4 -2l6 22c88 -4 95 28 115 102l108 404c4 16 17 60 17 75c0 37 -48 37 -75 37l6 22c42 -1 83 -3 125 -4c111 1 223 3 334 4l14 -152h-19c-29 104 -72 130 -145 130h-133l-72 -272h77c59 0 84 20 122 106h18l-52 -255h-20c0 35 14 95 -26 117c-12 7 -33 10 -54 10h-71
l-57 -212c-5 -17 -10 -35 -10 -53c0 -68 110 -59 150 -59c121 0 163 44 213 150h23l-46 -172c-136 1 -272 3 -408 4c-47 -1 -93 -3 -140 -4zM365 775c-27 0 -49 21 -49 48s21 50 49 50c27 0 49 -22 49 -49s-22 -49 -49 -49zM529 775c-27 0 -49 21 -49 48s21 50 49 50
c27 0 49 -22 49 -49s-22 -49 -49 -49z" />
    <glyph glyph-name="Egrave" unicode="&#xc8;" horiz-adv-x="560" 
d="M-4 -2l6 22c88 -4 95 28 115 102l108 404c4 16 17 60 17 75c0 37 -48 37 -75 37l6 22c42 -1 83 -3 125 -4c111 1 223 3 334 4l14 -152h-19c-29 104 -72 130 -145 130h-133l-72 -272h77c59 0 84 20 122 106h18l-52 -255h-20c0 35 14 95 -26 117c-12 7 -33 10 -54 10h-71
l-57 -212c-5 -17 -10 -35 -10 -53c0 -68 110 -59 150 -59c121 0 163 44 213 150h23l-46 -172c-136 1 -272 3 -408 4c-47 -1 -93 -3 -140 -4zM539 751h-28l-115 72c-14 9 -37 21 -37 41c0 17 14 35 32 35c26 0 53 -39 68 -56z" />
    <glyph glyph-name="Iacute" unicode="&#xcd;" horiz-adv-x="340" 
d="M349 497l-106 -367c-4 -16 -19 -61 -19 -77c0 -38 52 -32 87 -33l-7 -22c-47 1 -94 3 -141 4c-46 -1 -91 -3 -137 -4l6 22c88 -4 95 28 116 102l116 404c4 16 17 59 17 75c0 41 -53 36 -89 37l6 22c43 -1 86 -3 129 -4c52 1 103 3 155 4l-6 -22c-28 -1 -67 0 -85 -25
c-15 -19 -35 -92 -42 -116zM295 750l107 98c16 16 42 44 67 44c16 0 31 -15 31 -31c0 -30 -39 -45 -61 -56l-111 -55h-33z" />
    <glyph glyph-name="Icircumflex" unicode="&#xce;" horiz-adv-x="340" 
d="M349 497l-106 -367c-4 -16 -19 -61 -19 -77c0 -38 52 -32 87 -33l-7 -22c-47 1 -94 3 -141 4c-46 -1 -91 -3 -137 -4l6 22c88 -4 95 28 116 102l116 404c4 16 17 59 17 75c0 41 -53 36 -89 37l6 22c43 -1 86 -3 129 -4c52 1 103 3 155 4l-6 -22c-28 -1 -67 0 -85 -25
c-15 -19 -35 -92 -42 -116zM402 901l78 -142h-25l-83 82l-127 -82h-37l144 142h50z" />
    <glyph glyph-name="Idieresis" unicode="&#xcf;" horiz-adv-x="340" 
d="M349 497l-106 -367c-4 -16 -19 -61 -19 -77c0 -38 52 -32 87 -33l-7 -22c-47 1 -94 3 -141 4c-46 -1 -91 -3 -137 -4l6 22c88 -4 95 28 116 102l116 404c4 16 17 59 17 75c0 41 -53 36 -89 37l6 22c43 -1 86 -3 129 -4c52 1 103 3 155 4l-6 -22c-28 -1 -67 0 -85 -25
c-15 -19 -35 -92 -42 -116zM295 775c-27 0 -49 21 -49 48s21 50 49 50c27 0 49 -22 49 -49s-22 -49 -49 -49zM459 775c-27 0 -49 21 -49 48s21 50 49 50c27 0 49 -22 49 -49s-22 -49 -49 -49z" />
    <glyph glyph-name="Igrave" unicode="&#xcc;" horiz-adv-x="340" 
d="M349 497l-106 -367c-4 -16 -19 -61 -19 -77c0 -38 52 -32 87 -33l-7 -22c-47 1 -94 3 -141 4c-46 -1 -91 -3 -137 -4l6 22c88 -4 95 28 116 102l116 404c4 16 17 59 17 75c0 41 -53 36 -89 37l6 22c43 -1 86 -3 129 -4c52 1 103 3 155 4l-6 -22c-28 -1 -67 0 -85 -25
c-15 -19 -35 -92 -42 -116zM429 751h-28l-115 72c-14 9 -37 21 -37 41c0 17 14 35 32 35c26 0 53 -39 68 -56z" />
    <glyph glyph-name="Ntilde" unicode="&#xd1;" horiz-adv-x="700" 
d="M197 260l83 312c-33 61 -33 63 -106 66l6 22c29 -1 58 -3 87 -4c25 1 49 3 74 4l266 -537l88 327c9 34 24 97 24 130c0 56 -41 55 -86 58l6 22c36 -1 71 -3 107 -4c37 1 75 3 112 4l-5 -22c-74 -1 -90 -47 -108 -110l-145 -546h-23l-277 558l-78 -290
c-11 -41 -36 -136 -36 -176c0 -53 47 -52 88 -54l-6 -22c-39 1 -79 3 -118 4c-38 -1 -77 -3 -115 -4l5 22c44 6 74 9 96 52c23 44 47 137 61 188zM652 853l23 -3c-6 -38 -39 -84 -81 -84c-50 0 -99 42 -131 42c-24 0 -35 -17 -46 -35l-24 3c15 44 46 82 96 82
c41 0 95 -40 122 -40c22 0 33 17 41 35z" />
    <glyph glyph-name="Oacute" unicode="&#xd3;" horiz-adv-x="700" 
d="M510 669c151 0 248 -111 248 -257c0 -203 -177 -425 -391 -425c-154 0 -241 106 -241 254c0 203 169 428 384 428zM523 647c-189 0 -297 -309 -297 -463c0 -86 39 -175 138 -175c193 0 294 305 294 462c0 78 -44 176 -135 176zM445 750l107 98c16 16 42 44 67 44
c16 0 31 -15 31 -31c0 -30 -39 -45 -61 -56l-111 -55h-33z" />
    <glyph glyph-name="Ocircumflex" unicode="&#xd4;" horiz-adv-x="700" 
d="M510 669c151 0 248 -111 248 -257c0 -203 -177 -425 -391 -425c-154 0 -241 106 -241 254c0 203 169 428 384 428zM523 647c-189 0 -297 -309 -297 -463c0 -86 39 -175 138 -175c193 0 294 305 294 462c0 78 -44 176 -135 176zM582 901l78 -142h-25l-83 82l-127 -82h-37
l144 142h50z" />
    <glyph glyph-name="Odieresis" unicode="&#xd6;" horiz-adv-x="700" 
d="M510 669c151 0 248 -111 248 -257c0 -203 -177 -425 -391 -425c-154 0 -241 106 -241 254c0 203 169 428 384 428zM523 647c-189 0 -297 -309 -297 -463c0 -86 39 -175 138 -175c193 0 294 305 294 462c0 78 -44 176 -135 176zM455 775c-27 0 -49 21 -49 48s21 50 49 50
c27 0 49 -22 49 -49s-22 -49 -49 -49zM619 775c-27 0 -49 21 -49 48s21 50 49 50c27 0 49 -22 49 -49s-22 -49 -49 -49z" />
    <glyph glyph-name="Ograve" unicode="&#xd2;" horiz-adv-x="700" 
d="M510 669c151 0 248 -111 248 -257c0 -203 -177 -425 -391 -425c-154 0 -241 106 -241 254c0 203 169 428 384 428zM523 647c-189 0 -297 -309 -297 -463c0 -86 39 -175 138 -175c193 0 294 305 294 462c0 78 -44 176 -135 176zM609 751h-28l-115 72c-14 9 -37 21 -37 41
c0 17 14 35 32 35c26 0 53 -39 68 -56z" />
    <glyph glyph-name="Otilde" unicode="&#xd5;" horiz-adv-x="700" 
d="M510 669c151 0 248 -111 248 -257c0 -203 -177 -425 -391 -425c-154 0 -241 106 -241 254c0 203 169 428 384 428zM523 647c-189 0 -297 -309 -297 -463c0 -86 39 -175 138 -175c193 0 294 305 294 462c0 78 -44 176 -135 176zM652 853l23 -3c-6 -38 -39 -84 -81 -84
c-50 0 -99 42 -131 42c-24 0 -35 -17 -46 -35l-24 3c15 44 46 82 96 82c41 0 95 -40 122 -40c22 0 33 17 41 35z" />
    <glyph glyph-name="Scaron" unicode="&#x160;" horiz-adv-x="480" 
d="M513 611l30 36h13l-36 -170h-17c-3 96 -40 170 -135 170c-59 0 -107 -41 -107 -101c0 -136 234 -190 234 -373c0 -113 -90 -186 -199 -186c-65 0 -139 27 -185 74l-32 -41h-13l33 186h20c8 -105 43 -197 164 -197c71 0 122 56 122 126c0 153 -229 201 -229 373
c0 102 85 161 180 161c60 0 110 -20 157 -58zM370 759l-77 143h25l83 -83l126 83h38l-144 -143h-51z" />
    <glyph glyph-name="Uacute" unicode="&#xda;" horiz-adv-x="680" 
d="M182 300l61 226c5 17 19 60 19 77c0 40 -64 34 -88 35l6 22c44 -1 88 -3 132 -4c50 1 100 3 150 4l-6 -22c-28 -1 -67 -1 -85 -26c-15 -19 -35 -92 -42 -116l-61 -229c-9 -38 -22 -75 -22 -114c0 -89 70 -136 152 -136c143 0 187 111 223 229c20 63 80 279 80 335
c0 53 -42 55 -82 57l6 22c36 -2 71 -3 107 -4c38 0 75 2 113 4l-6 -22c-81 0 -94 -51 -111 -118l-52 -186c-48 -168 -88 -347 -296 -347c-108 0 -229 47 -229 173c0 43 20 98 31 140zM465 750l107 98c16 16 42 44 67 44c16 0 31 -15 31 -31c0 -30 -39 -45 -61 -56l-111 -55
h-33z" />
    <glyph glyph-name="Ucircumflex" unicode="&#xdb;" horiz-adv-x="680" 
d="M182 300l61 226c5 17 19 60 19 77c0 40 -64 34 -88 35l6 22c44 -1 88 -3 132 -4c50 1 100 3 150 4l-6 -22c-28 -1 -67 -1 -85 -26c-15 -19 -35 -92 -42 -116l-61 -229c-9 -38 -22 -75 -22 -114c0 -89 70 -136 152 -136c143 0 187 111 223 229c20 63 80 279 80 335
c0 53 -42 55 -82 57l6 22c36 -2 71 -3 107 -4c38 0 75 2 113 4l-6 -22c-81 0 -94 -51 -111 -118l-52 -186c-48 -168 -88 -347 -296 -347c-108 0 -229 47 -229 173c0 43 20 98 31 140zM552 901l78 -142h-25l-83 82l-127 -82h-37l144 142h50z" />
    <glyph glyph-name="Udieresis" unicode="&#xdc;" horiz-adv-x="680" 
d="M182 300l61 226c5 17 19 60 19 77c0 40 -64 34 -88 35l6 22c44 -1 88 -3 132 -4c50 1 100 3 150 4l-6 -22c-28 -1 -67 -1 -85 -26c-15 -19 -35 -92 -42 -116l-61 -229c-9 -38 -22 -75 -22 -114c0 -89 70 -136 152 -136c143 0 187 111 223 229c20 63 80 279 80 335
c0 53 -42 55 -82 57l6 22c36 -2 71 -3 107 -4c38 0 75 2 113 4l-6 -22c-81 0 -94 -51 -111 -118l-52 -186c-48 -168 -88 -347 -296 -347c-108 0 -229 47 -229 173c0 43 20 98 31 140zM455 775c-27 0 -49 21 -49 48s21 50 49 50c27 0 49 -22 49 -49s-22 -49 -49 -49zM619 775
c-27 0 -49 21 -49 48s21 50 49 50c27 0 49 -22 49 -49s-22 -49 -49 -49z" />
    <glyph glyph-name="Ugrave" unicode="&#xd9;" horiz-adv-x="680" 
d="M182 300l61 226c5 17 19 60 19 77c0 40 -64 34 -88 35l6 22c44 -1 88 -3 132 -4c50 1 100 3 150 4l-6 -22c-28 -1 -67 -1 -85 -26c-15 -19 -35 -92 -42 -116l-61 -229c-9 -38 -22 -75 -22 -114c0 -89 70 -136 152 -136c143 0 187 111 223 229c20 63 80 279 80 335
c0 53 -42 55 -82 57l6 22c36 -2 71 -3 107 -4c38 0 75 2 113 4l-6 -22c-81 0 -94 -51 -111 -118l-52 -186c-48 -168 -88 -347 -296 -347c-108 0 -229 47 -229 173c0 43 20 98 31 140zM599 751h-28l-115 72c-14 9 -37 21 -37 41c0 17 14 35 32 35c26 0 53 -39 68 -56z" />
    <glyph glyph-name="Yacute" unicode="&#xdd;" horiz-adv-x="580" 
d="M267 122l47 177l-73 247c-5 19 -13 52 -25 69c-16 22 -41 22 -66 23l6 22c40 -1 80 -3 120 -4c42 1 84 3 126 4l-6 -22c-25 -1 -72 2 -72 -34c0 -7 1 -17 4 -28l73 -253c38 47 211 230 211 279c0 37 -49 35 -74 36l6 22c32 -1 63 -3 95 -4c34 1 67 3 101 4l-6 -22
c-42 3 -70 -41 -93 -70l-234 -284l-48 -180c-5 -18 -10 -39 -10 -49c0 -41 53 -34 88 -35l-5 -22c-51 1 -102 3 -153 4c-44 -1 -88 -3 -132 -4l5 22c88 -4 95 28 115 102zM415 750l107 98c16 16 42 44 67 44c16 0 31 -15 31 -31c0 -30 -39 -45 -61 -56l-111 -55h-33z" />
    <glyph glyph-name="Ydieresis" unicode="&#x178;" horiz-adv-x="580" 
d="M267 122l47 177l-73 247c-5 19 -13 52 -25 69c-16 22 -41 22 -66 23l6 22c40 -1 80 -3 120 -4c42 1 84 3 126 4l-6 -22c-25 -1 -72 2 -72 -34c0 -7 1 -17 4 -28l73 -253c38 47 211 230 211 279c0 37 -49 35 -74 36l6 22c32 -1 63 -3 95 -4c34 1 67 3 101 4l-6 -22
c-42 3 -70 -41 -93 -70l-234 -284l-48 -180c-5 -18 -10 -39 -10 -49c0 -41 53 -34 88 -35l-5 -22c-51 1 -102 3 -153 4c-44 -1 -88 -3 -132 -4l5 22c88 -4 95 28 115 102zM375 775c-27 0 -49 21 -49 48s21 50 49 50c27 0 49 -22 49 -49s-22 -49 -49 -49zM539 775
c-27 0 -49 21 -49 48s21 50 49 50c27 0 49 -22 49 -49s-22 -49 -49 -49z" />
    <glyph glyph-name="Zcaron" unicode="&#x17d;" horiz-adv-x="560" 
d="M676 660l-467 -640h117c137 0 204 12 276 146h20c-21 -56 -43 -112 -64 -168c-138 1 -276 3 -414 4c-22 -1 -45 -3 -67 -4l463 640h-87c-122 0 -174 -21 -248 -131h-20l61 153c119 -1 239 -3 358 -4c24 1 48 3 72 4zM410 759l-77 143h25l83 -83l126 83h38l-144 -143h-51z
" />
    <glyph glyph-name="aacute" unicode="&#xe1;" horiz-adv-x="500" 
d="M370 409c-100 0 -207 -251 -207 -332c0 -30 14 -68 49 -68c71 0 120 95 147 152c24 52 58 138 58 195c0 27 -18 53 -47 53zM438 377l15 41h71l-44 -119c-19 -51 -66 -199 -66 -258c0 -9 1 -24 13 -24c34 0 82 106 97 136l21 -9c-30 -58 -62 -157 -139 -157
c-36 0 -60 21 -60 57c0 20 6 39 9 57l-2 2c-31 -55 -80 -116 -149 -116c-67 0 -113 53 -113 118c0 129 131 326 271 326c37 0 63 -21 76 -54zM315 522l107 98c16 16 42 44 67 44c16 0 31 -15 31 -31c0 -30 -39 -45 -61 -56l-111 -55h-33z" />
    <glyph glyph-name="acircumflex" unicode="&#xe2;" horiz-adv-x="500" 
d="M370 409c-100 0 -207 -251 -207 -332c0 -30 14 -68 49 -68c71 0 120 95 147 152c24 52 58 138 58 195c0 27 -18 53 -47 53zM438 377l15 41h71l-44 -119c-19 -51 -66 -199 -66 -258c0 -9 1 -24 13 -24c34 0 82 106 97 136l21 -9c-30 -58 -62 -157 -139 -157
c-36 0 -60 21 -60 57c0 20 6 39 9 57l-2 2c-31 -55 -80 -116 -149 -116c-67 0 -113 53 -113 118c0 129 131 326 271 326c37 0 63 -21 76 -54zM462 673l78 -142h-25l-83 82l-127 -82h-37l144 142h50z" />
    <glyph glyph-name="adieresis" unicode="&#xe4;" horiz-adv-x="500" 
d="M370 409c-100 0 -207 -251 -207 -332c0 -30 14 -68 49 -68c71 0 120 95 147 152c24 52 58 138 58 195c0 27 -18 53 -47 53zM438 377l15 41h71l-44 -119c-19 -51 -66 -199 -66 -258c0 -9 1 -24 13 -24c34 0 82 106 97 136l21 -9c-30 -58 -62 -157 -139 -157
c-36 0 -60 21 -60 57c0 20 6 39 9 57l-2 2c-31 -55 -80 -116 -149 -116c-67 0 -113 53 -113 118c0 129 131 326 271 326c37 0 63 -21 76 -54zM335 547c-27 0 -49 21 -49 48s21 50 49 50c27 0 49 -22 49 -49s-22 -49 -49 -49zM499 547c-27 0 -49 21 -49 48s21 50 49 50
c27 0 49 -22 49 -49s-22 -49 -49 -49z" />
    <glyph glyph-name="agrave" unicode="&#xe0;" horiz-adv-x="500" 
d="M370 409c-100 0 -207 -251 -207 -332c0 -30 14 -68 49 -68c71 0 120 95 147 152c24 52 58 138 58 195c0 27 -18 53 -47 53zM438 377l15 41h71l-44 -119c-19 -51 -66 -199 -66 -258c0 -9 1 -24 13 -24c34 0 82 106 97 136l21 -9c-30 -58 -62 -157 -139 -157
c-36 0 -60 21 -60 57c0 20 6 39 9 57l-2 2c-31 -55 -80 -116 -149 -116c-67 0 -113 53 -113 118c0 129 131 326 271 326c37 0 63 -21 76 -54zM464 523h-28l-115 72c-14 9 -37 21 -37 41c0 17 14 35 32 35c26 0 53 -39 68 -56z" />
    <glyph glyph-name="aring" unicode="&#xe5;" horiz-adv-x="500" 
d="M370 409c-100 0 -207 -251 -207 -332c0 -30 14 -68 49 -68c71 0 120 95 147 152c24 52 58 138 58 195c0 27 -18 53 -47 53zM438 377l15 41h71l-44 -119c-19 -51 -66 -199 -66 -258c0 -9 1 -24 13 -24c34 0 82 106 97 136l21 -9c-30 -58 -62 -157 -139 -157
c-36 0 -60 21 -60 57c0 20 6 39 9 57l-2 2c-31 -55 -80 -116 -149 -116c-67 0 -113 53 -113 118c0 129 131 326 271 326c37 0 63 -21 76 -54zM414 473c-56 0 -104 44 -104 101c0 58 47 104 105 104s103 -47 103 -104s-48 -101 -104 -101zM414 506c37 0 68 31 68 68
c0 39 -28 71 -68 71c-39 0 -68 -33 -68 -71c0 -37 30 -68 68 -68z" />
    <glyph glyph-name="atilde" unicode="&#xe3;" horiz-adv-x="500" 
d="M370 409c-100 0 -207 -251 -207 -332c0 -30 14 -68 49 -68c71 0 120 95 147 152c24 52 58 138 58 195c0 27 -18 53 -47 53zM438 377l15 41h71l-44 -119c-19 -51 -66 -199 -66 -258c0 -9 1 -24 13 -24c34 0 82 106 97 136l21 -9c-30 -58 -62 -157 -139 -157
c-36 0 -60 21 -60 57c0 20 6 39 9 57l-2 2c-31 -55 -80 -116 -149 -116c-67 0 -113 53 -113 118c0 129 131 326 271 326c37 0 63 -21 76 -54zM532 625l23 -3c-6 -38 -39 -84 -81 -84c-50 0 -99 42 -131 42c-24 0 -35 -17 -46 -35l-24 3c15 44 46 82 96 82
c41 0 95 -40 122 -40c22 0 33 17 41 35z" />
    <glyph glyph-name="eacute" unicode="&#xe9;" horiz-adv-x="340" 
d="M349 129l18 -13c-41 -61 -98 -129 -178 -129c-70 0 -112 45 -112 114c0 126 120 330 260 330c41 0 72 -27 72 -69c0 -105 -147 -164 -227 -197l-16 -7c-9 -29 -17 -60 -17 -92c0 -31 15 -57 49 -57c67 0 115 72 151 120zM174 185c71 31 180 102 180 191
c0 20 -11 33 -31 33c-73 0 -133 -164 -149 -224zM235 522l107 98c16 16 42 44 67 44c16 0 31 -15 31 -31c0 -30 -39 -45 -61 -56l-111 -55h-33z" />
    <glyph glyph-name="ecircumflex" unicode="&#xea;" horiz-adv-x="340" 
d="M349 129l18 -13c-41 -61 -98 -129 -178 -129c-70 0 -112 45 -112 114c0 126 120 330 260 330c41 0 72 -27 72 -69c0 -105 -147 -164 -227 -197l-16 -7c-9 -29 -17 -60 -17 -92c0 -31 15 -57 49 -57c67 0 115 72 151 120zM174 185c71 31 180 102 180 191
c0 20 -11 33 -31 33c-73 0 -133 -164 -149 -224zM382 673l78 -142h-25l-83 82l-127 -82h-37l144 142h50z" />
    <glyph glyph-name="edieresis" unicode="&#xeb;" horiz-adv-x="340" 
d="M349 129l18 -13c-41 -61 -98 -129 -178 -129c-70 0 -112 45 -112 114c0 126 120 330 260 330c41 0 72 -27 72 -69c0 -105 -147 -164 -227 -197l-16 -7c-9 -29 -17 -60 -17 -92c0 -31 15 -57 49 -57c67 0 115 72 151 120zM174 185c71 31 180 102 180 191
c0 20 -11 33 -31 33c-73 0 -133 -164 -149 -224zM255 547c-27 0 -49 21 -49 48s21 50 49 50c27 0 49 -22 49 -49s-22 -49 -49 -49zM419 547c-27 0 -49 21 -49 48s21 50 49 50c27 0 49 -22 49 -49s-22 -49 -49 -49z" />
    <glyph glyph-name="egrave" unicode="&#xe8;" horiz-adv-x="340" 
d="M349 129l18 -13c-41 -61 -98 -129 -178 -129c-70 0 -112 45 -112 114c0 126 120 330 260 330c41 0 72 -27 72 -69c0 -105 -147 -164 -227 -197l-16 -7c-9 -29 -17 -60 -17 -92c0 -31 15 -57 49 -57c67 0 115 72 151 120zM174 185c71 31 180 102 180 191
c0 20 -11 33 -31 33c-73 0 -133 -164 -149 -224zM384 523h-28l-115 72c-14 9 -37 21 -37 41c0 17 14 35 32 35c26 0 53 -39 68 -56z" />
    <glyph glyph-name="iacute" unicode="&#xed;" horiz-adv-x="280" 
d="M156 194l28 67c9 24 37 96 37 120c0 10 -6 20 -17 20c-31 0 -80 -82 -94 -109l-20 11c29 49 70 128 134 128c38 0 62 -33 62 -68c0 -48 -29 -108 -47 -153l-32 -81c-6 -17 -30 -77 -30 -95c0 -8 6 -17 15 -17c38 0 92 89 107 120l20 -10c-25 -52 -77 -140 -142 -140
c-41 0 -65 33 -65 72c0 42 28 96 44 135zM205 522l107 98c16 16 42 44 67 44c16 0 31 -15 31 -31c0 -30 -39 -45 -61 -56l-111 -55h-33z" />
    <glyph glyph-name="icircumflex" unicode="&#xee;" horiz-adv-x="280" 
d="M156 194l28 67c9 24 37 96 37 120c0 10 -6 20 -17 20c-31 0 -80 -82 -94 -109l-20 11c29 49 70 128 134 128c38 0 62 -33 62 -68c0 -48 -29 -108 -47 -153l-32 -81c-6 -17 -30 -77 -30 -95c0 -8 6 -17 15 -17c38 0 92 89 107 120l20 -10c-25 -52 -77 -140 -142 -140
c-41 0 -65 33 -65 72c0 42 28 96 44 135zM312 673l78 -142h-25l-83 82l-127 -82h-37l144 142h50z" />
    <glyph glyph-name="idieresis" unicode="&#xef;" horiz-adv-x="280" 
d="M156 194l28 67c9 24 37 96 37 120c0 10 -6 20 -17 20c-31 0 -80 -82 -94 -109l-20 11c29 49 70 128 134 128c38 0 62 -33 62 -68c0 -48 -29 -108 -47 -153l-32 -81c-6 -17 -30 -77 -30 -95c0 -8 6 -17 15 -17c38 0 92 89 107 120l20 -10c-25 -52 -77 -140 -142 -140
c-41 0 -65 33 -65 72c0 42 28 96 44 135zM195 547c-27 0 -49 21 -49 48s21 50 49 50c27 0 49 -22 49 -49s-22 -49 -49 -49zM359 547c-27 0 -49 21 -49 48s21 50 49 50c27 0 49 -22 49 -49s-22 -49 -49 -49z" />
    <glyph glyph-name="igrave" unicode="&#xec;" horiz-adv-x="280" 
d="M156 194l28 67c9 24 37 96 37 120c0 10 -6 20 -17 20c-31 0 -80 -82 -94 -109l-20 11c29 49 70 128 134 128c38 0 62 -33 62 -68c0 -48 -29 -108 -47 -153l-32 -81c-6 -17 -30 -77 -30 -95c0 -8 6 -17 15 -17c38 0 92 89 107 120l20 -10c-25 -52 -77 -140 -142 -140
c-41 0 -65 33 -65 72c0 42 28 96 44 135zM334 523h-28l-115 72c-14 9 -37 21 -37 41c0 17 14 35 32 35c26 0 53 -39 68 -56z" />
    <glyph glyph-name="ntilde" unicode="&#xf1;" horiz-adv-x="560" 
d="M210 31l-9 -31h-75l22 63c23 70 76 237 76 306c0 11 -1 32 -19 32c-40 0 -83 -103 -99 -133l-20 7c26 58 63 156 141 156c41 0 61 -31 61 -69c0 -21 -5 -52 -8 -74l-3 -18l2 -2c34 66 92 163 178 163c45 0 78 -37 78 -81c0 -45 -18 -105 -34 -147l-18 -48
c-7 -20 -34 -88 -34 -108c0 -11 7 -30 21 -30c40 0 88 94 102 126l21 -10c-26 -55 -74 -146 -143 -146c-43 0 -66 31 -66 71c0 41 24 102 37 141l18 49c12 31 36 85 36 119c0 18 -14 34 -34 34c-54 0 -112 -88 -135 -129c-41 -72 -72 -162 -96 -241zM542 625l23 -3
c-6 -38 -39 -84 -81 -84c-50 0 -99 42 -131 42c-24 0 -35 -17 -46 -35l-24 3c15 44 46 82 96 82c41 0 95 -40 122 -40c22 0 33 17 41 35z" />
    <glyph glyph-name="oacute" unicode="&#xf3;" horiz-adv-x="420" 
d="M230 -13c-87 0 -139 60 -139 146c0 116 96 298 231 298c93 0 138 -78 138 -162c0 -117 -100 -282 -230 -282zM231 9c110 0 157 242 157 326c0 36 -20 74 -61 74c-105 0 -164 -243 -164 -325c0 -45 21 -75 68 -75zM275 522l107 98c16 16 42 44 67 44c16 0 31 -15 31 -31
c0 -30 -39 -45 -61 -56l-111 -55h-33z" />
    <glyph glyph-name="ocircumflex" unicode="&#xf4;" horiz-adv-x="420" 
d="M230 -13c-87 0 -139 60 -139 146c0 116 96 298 231 298c93 0 138 -78 138 -162c0 -117 -100 -282 -230 -282zM231 9c110 0 157 242 157 326c0 36 -20 74 -61 74c-105 0 -164 -243 -164 -325c0 -45 21 -75 68 -75zM422 673l78 -142h-25l-83 82l-127 -82h-37l144 142h50z
" />
    <glyph glyph-name="odieresis" unicode="&#xf6;" horiz-adv-x="420" 
d="M230 -13c-87 0 -139 60 -139 146c0 116 96 298 231 298c93 0 138 -78 138 -162c0 -117 -100 -282 -230 -282zM231 9c110 0 157 242 157 326c0 36 -20 74 -61 74c-105 0 -164 -243 -164 -325c0 -45 21 -75 68 -75zM295 547c-27 0 -49 21 -49 48s21 50 49 50
c27 0 49 -22 49 -49s-22 -49 -49 -49zM459 547c-27 0 -49 21 -49 48s21 50 49 50c27 0 49 -22 49 -49s-22 -49 -49 -49z" />
    <glyph glyph-name="ograve" unicode="&#xf2;" horiz-adv-x="420" 
d="M230 -13c-87 0 -139 60 -139 146c0 116 96 298 231 298c93 0 138 -78 138 -162c0 -117 -100 -282 -230 -282zM231 9c110 0 157 242 157 326c0 36 -20 74 -61 74c-105 0 -164 -243 -164 -325c0 -45 21 -75 68 -75zM424 523h-28l-115 72c-14 9 -37 21 -37 41
c0 17 14 35 32 35c26 0 53 -39 68 -56z" />
    <glyph glyph-name="otilde" unicode="&#xf5;" horiz-adv-x="420" 
d="M230 -13c-87 0 -139 60 -139 146c0 116 96 298 231 298c93 0 138 -78 138 -162c0 -117 -100 -282 -230 -282zM231 9c110 0 157 242 157 326c0 36 -20 74 -61 74c-105 0 -164 -243 -164 -325c0 -45 21 -75 68 -75zM492 625l23 -3c-6 -38 -39 -84 -81 -84
c-50 0 -99 42 -131 42c-24 0 -35 -17 -46 -35l-24 3c15 44 46 82 96 82c41 0 95 -40 122 -40c22 0 33 17 41 35z" />
    <glyph glyph-name="scaron" unicode="&#x161;" horiz-adv-x="340" 
d="M149 313c0 77 66 118 138 118c37 0 97 -16 97 -63c0 -15 -10 -26 -25 -26c-51 0 0 67 -71 67c-34 0 -67 -24 -67 -61c0 -70 114 -131 116 -230c2 -87 -72 -131 -153 -131c-49 0 -121 20 -121 81c0 19 6 37 26 37c16 0 30 -13 30 -30c0 -9 -3 -18 -3 -27
c0 -30 38 -39 62 -39c47 0 87 25 87 75c0 70 -116 143 -116 229zM270 531l-77 143h25l83 -83l126 83h38l-144 -143h-51z" />
    <glyph glyph-name="uacute" unicode="&#xfa;" horiz-adv-x="560" 
d="M277 241l-42 -132c-5 -15 -14 -43 -14 -59c0 -21 15 -33 36 -33c65 0 129 116 152 168l81 241h74l-38 -126c-21 -74 -56 -178 -56 -254c0 -10 3 -29 17 -29c33 0 81 96 90 126l22 -8c-20 -55 -62 -148 -130 -148c-47 0 -71 33 -67 76c2 20 3 41 5 61l-2 2
c-36 -59 -86 -139 -165 -139c-47 0 -84 34 -84 83c0 34 9 61 19 93l18 59c13 44 32 92 36 136c1 10 7 43 -11 43c-37 0 -94 -104 -109 -134l-21 10c28 58 78 154 152 154c39 0 61 -39 61 -74c0 -36 -13 -81 -24 -116zM345 522l107 98c16 16 42 44 67 44c16 0 31 -15 31 -31
c0 -30 -39 -45 -61 -56l-111 -55h-33z" />
    <glyph glyph-name="ucircumflex" unicode="&#xfb;" horiz-adv-x="560" 
d="M277 241l-42 -132c-5 -15 -14 -43 -14 -59c0 -21 15 -33 36 -33c65 0 129 116 152 168l81 241h74l-38 -126c-21 -74 -56 -178 -56 -254c0 -10 3 -29 17 -29c33 0 81 96 90 126l22 -8c-20 -55 -62 -148 -130 -148c-47 0 -71 33 -67 76c2 20 3 41 5 61l-2 2
c-36 -59 -86 -139 -165 -139c-47 0 -84 34 -84 83c0 34 9 61 19 93l18 59c13 44 32 92 36 136c1 10 7 43 -11 43c-37 0 -94 -104 -109 -134l-21 10c28 58 78 154 152 154c39 0 61 -39 61 -74c0 -36 -13 -81 -24 -116zM452 673l78 -142h-25l-83 82l-127 -82h-37l144 142h50z
" />
    <glyph glyph-name="udieresis" unicode="&#xfc;" horiz-adv-x="560" 
d="M277 241l-42 -132c-5 -15 -14 -43 -14 -59c0 -21 15 -33 36 -33c65 0 129 116 152 168l81 241h74l-38 -126c-21 -74 -56 -178 -56 -254c0 -10 3 -29 17 -29c33 0 81 96 90 126l22 -8c-20 -55 -62 -148 -130 -148c-47 0 -71 33 -67 76c2 20 3 41 5 61l-2 2
c-36 -59 -86 -139 -165 -139c-47 0 -84 34 -84 83c0 34 9 61 19 93l18 59c13 44 32 92 36 136c1 10 7 43 -11 43c-37 0 -94 -104 -109 -134l-21 10c28 58 78 154 152 154c39 0 61 -39 61 -74c0 -36 -13 -81 -24 -116zM340 547c-27 0 -49 21 -49 48s21 50 49 50
c27 0 49 -22 49 -49s-22 -49 -49 -49zM504 547c-27 0 -49 21 -49 48s21 50 49 50c27 0 49 -22 49 -49s-22 -49 -49 -49z" />
    <glyph glyph-name="ugrave" unicode="&#xf9;" horiz-adv-x="560" 
d="M277 241l-42 -132c-5 -15 -14 -43 -14 -59c0 -21 15 -33 36 -33c65 0 129 116 152 168l81 241h74l-38 -126c-21 -74 -56 -178 -56 -254c0 -10 3 -29 17 -29c33 0 81 96 90 126l22 -8c-20 -55 -62 -148 -130 -148c-47 0 -71 33 -67 76c2 20 3 41 5 61l-2 2
c-36 -59 -86 -139 -165 -139c-47 0 -84 34 -84 83c0 34 9 61 19 93l18 59c13 44 32 92 36 136c1 10 7 43 -11 43c-37 0 -94 -104 -109 -134l-21 10c28 58 78 154 152 154c39 0 61 -39 61 -74c0 -36 -13 -81 -24 -116zM454 523h-28l-115 72c-14 9 -37 21 -37 41
c0 17 14 35 32 35c26 0 53 -39 68 -56z" />
    <glyph glyph-name="yacute" unicode="&#xfd;" horiz-adv-x="380" 
d="M99 284c1 -13 1 -26 2 -39h-22c-1 15 -1 29 -2 44c0 44 18 142 77 142c52 0 91 -112 102 -152c24 -81 32 -166 35 -250h2c36 70 74 168 74 248s-47 90 -47 123c0 18 15 31 32 31c46 0 45 -67 45 -99c0 -125 -50 -263 -113 -369c-45 -76 -158 -233 -256 -233
c-20 0 -40 11 -40 28c0 33 33 38 58 37c52 -2 75 3 113 36c44 46 68 97 68 161c0 66 -16 180 -34 244c-5 20 -40 135 -65 135c-24 0 -29 -73 -29 -87zM255 522l107 98c16 16 42 44 67 44c16 0 31 -15 31 -31c0 -30 -39 -45 -61 -56l-111 -55h-33z" />
    <glyph glyph-name="ydieresis" unicode="&#xff;" horiz-adv-x="380" 
d="M99 284c1 -13 1 -26 2 -39h-22c-1 15 -1 29 -2 44c0 44 18 142 77 142c52 0 91 -112 102 -152c24 -81 32 -166 35 -250h2c36 70 74 168 74 248s-47 90 -47 123c0 18 15 31 32 31c46 0 45 -67 45 -99c0 -125 -50 -263 -113 -369c-45 -76 -158 -233 -256 -233
c-20 0 -40 11 -40 28c0 33 33 38 58 37c52 -2 75 3 113 36c44 46 68 97 68 161c0 66 -16 180 -34 244c-5 20 -40 135 -65 135c-24 0 -29 -73 -29 -87zM195 547c-27 0 -49 21 -49 48s21 50 49 50c27 0 49 -22 49 -49s-22 -49 -49 -49zM359 547c-27 0 -49 21 -49 48
s21 50 49 50c27 0 49 -22 49 -49s-22 -49 -49 -49z" />
    <glyph glyph-name="zcaron" unicode="&#x17e;" horiz-adv-x="360" 
d="M300 366c25 0 33 20 42 41c4 10 8 24 22 24c9 0 16 -5 16 -14c0 -12 -15 -31 -21 -39l-225 -297c24 4 47 8 70 8c26 0 44 -4 69 -10c12 -2 25 -6 38 -6c36 0 56 20 58 55c0 4 1 15 6 15c15 0 19 -39 19 -49c0 -59 -32 -107 -96 -107c-37 0 -65 17 -91 34
c-25 17 -46 34 -70 34c-27 0 -41 -15 -49 -40c-4 -12 -8 -28 -24 -28c-9 0 -16 6 -16 14c0 26 35 63 50 82l204 264l-2 2c-22 -6 -47 -12 -73 -12c-27 0 -50 10 -74 10c-25 0 -35 -26 -34 -47c1 -5 2 -14 -5 -14c-14 0 -20 40 -20 49c0 49 43 88 92 88c57 0 77 -57 114 -57z
M240 531l-77 143h25l83 -83l126 83h38l-144 -143h-51z" />
    </font>
</defs>
</svg>
