<svg xmlns="http://www.w3.org/2000/svg" width="563.252" height="85.773" viewBox="0 0 563.252 85.773">
  <g id="c_c-colour" data-name="c&amp;c-colour" transform="translate(0 85.5)">
    <g id="Group">
      <path id="Path_1" data-name="Path 1" d="M22.437-81.212C12.43-81.212,4.6-72.571,4.6-62.751c0,10.939,8.2,19.019,17.838,19.019a17.333,17.333,0,0,0,14.731-7.645h5.159A21.555,21.555,0,0,1,22.749-39.568C9.634-39.568,0-49.636,0-62.814A22.481,22.481,0,0,1,6.9-79.1a21.392,21.392,0,0,1,15.6-6.4A22.065,22.065,0,0,1,42.7-73.193H37.479C33.874-78.166,29.275-81.212,22.437-81.212Z" fill="#86bdb2"/>
      <path id="Path_2" data-name="Path 2" d="M75.706-43.731c9.944,0,17.9-8.267,17.9-19.143a18.4,18.4,0,0,0-18.212-18.4,17.088,17.088,0,0,0-11.125,4.1,19.4,19.4,0,0,0-6.775,14.42C57.494-51.811,65.574-43.731,75.706-43.731ZM59.856-79.1a21.492,21.492,0,0,1,15.6-6.4,21.768,21.768,0,0,1,15.849,6.464A22.161,22.161,0,0,1,98.08-62.813a22.465,22.465,0,0,1-5.841,15.788,22.073,22.073,0,0,1-16.845,7.457c-12.679,0-22.437-10.067-22.437-23.245A22.617,22.617,0,0,1,59.856-79.1Z" fill="#86bdb2"/>
      <path id="Path_3" data-name="Path 3" d="M124.311-80.465l-8.266,22.188H132.7ZM104.67-40.438l17.155-44.191h5.221l17.092,44.191h-4.661L134.193-54.3h-19.64L109.27-40.438Z" fill="#86bdb2"/>
      <path id="Path_4" data-name="Path 4" d="M155.513-53.055c.124,5.532,3.419,8.95,8.08,8.95,5.221,0,8.391-3.542,8.391-8.95,0-6.4-4.227-7.4-10.38-9.448-6.215-2.112-9.137-5.159-9.137-10.939,0-6.836,4.662-12,11.81-12,6.527,0,10.69,4.165,11.125,11.686h-4.1c-.435-4.848-2.984-7.521-7.023-7.521a7.212,7.212,0,0,0-7.459,7.583,6.082,6.082,0,0,0,2.61,5.282c2.113,1.555,5.284,2.115,8.827,3.481,5.593,2.176,8.08,5.346,8.08,11.064,0,8.453-4.973,14.295-12.8,14.295-7.148,0-12.12-5.407-12.245-13.487Z" fill="#86bdb2"/>
      <path id="Path_5" data-name="Path 5" d="M193.863-40.438v-39.84h-8.827v-4.351h22v4.351h-8.826v39.84Z" fill="#86bdb2"/>
      <path id="Path_6" data-name="Path 6" d="M238.552-75.244a5.988,5.988,0,0,0-5.843-6.153c-3.356,0-6.091,2.3-6.091,6.4,0,3.045,1.74,5.1,5.1,7.769C236.314-69.029,238.552-71.7,238.552-75.244ZM230.1-62.627c-4.413,2.176-6.712,5.594-6.712,9.758,0,5.471,3.729,8.951,8.515,8.951,3.978,0,7.085-2.673,9.945-7.769Zm1.554,23.059a13.069,13.069,0,0,1-12.865-13.3,14.04,14.04,0,0,1,8.39-12.617c-3.543-3.17-5.1-5.531-5.1-9.572A10.5,10.5,0,0,1,232.9-85.437a10.485,10.485,0,0,1,10.194,10.379c0,4.413-2.921,8.267-8.454,10.691l8.952,8.266,5.22-13.736h4.724L246.88-52.992l9.882,9.074-2.734,3.231-9.012-8.141C242.218-42.737,237.37-39.568,231.652-39.568Z" fill="#007dc5"/>
      <path id="Path_7" data-name="Path 7" d="M289.767-81.212c-10.007,0-17.839,8.641-17.839,18.461,0,10.939,8.2,19.019,17.839,19.019a17.33,17.33,0,0,0,14.73-7.645h5.16a21.555,21.555,0,0,1-19.579,11.809c-13.114,0-22.748-10.068-22.748-23.246a22.48,22.48,0,0,1,6.9-16.284,21.4,21.4,0,0,1,15.6-6.4,22.066,22.066,0,0,1,20.2,12.307h-5.221C301.2-78.166,296.605-81.212,289.767-81.212Z" fill="#86bdb2"/>
      <path id="Path_8" data-name="Path 8" d="M342.973-43.731c9.944,0,17.9-8.267,17.9-19.143a18.4,18.4,0,0,0-18.212-18.4,17.085,17.085,0,0,0-11.124,4.1,19.4,19.4,0,0,0-6.776,14.42C324.761-51.811,332.842-43.731,342.973-43.731ZM327.123-79.1a21.492,21.492,0,0,1,15.6-6.4,21.767,21.767,0,0,1,15.849,6.464,22.163,22.163,0,0,1,6.776,16.223,22.47,22.47,0,0,1-5.842,15.788,22.077,22.077,0,0,1-16.846,7.457c-12.679,0-22.437-10.067-22.437-23.245A22.621,22.621,0,0,1,327.123-79.1Z" fill="#86bdb2"/>
      <path id="Path_9" data-name="Path 9" d="M381.261-84.629v27.97c0,2.983.061,5.468,1.118,7.706a9.324,9.324,0,0,0,8.64,5.345c6.9,0,9.82-4.723,9.82-13.984V-84.629h4.29v28.093c0,11.374-4.476,17.031-13.8,17.031-10.068,0-14.419-5.532-14.419-17.031V-84.629Z" fill="#86bdb2"/>
      <path id="Path_10" data-name="Path 10" d="M447.767-84.629h4.288v44.191h-5.221l-24.24-38.969.5,38.969H418.8V-84.629h5.222l24.239,38.908Z" fill="#86bdb2"/>
      <path id="Path_11" data-name="Path 11" d="M471.7-40.438v-39.84H462.87v-4.351h22v4.351h-8.825v39.84Z" fill="#86bdb2"/>
      <path id="Path_12" data-name="Path 12" d="M499.169-40.438H494.88V-84.629h11.872c4.164,0,7.519.372,10.628,2.548a14.128,14.128,0,0,1,5.718,11.5c0,6.712-4.475,12.43-10.691,12.865L523.1-40.438H517.94L504.825-61.756h4.164c5.719,0,9.448-3.73,9.448-8.765a9.81,9.81,0,0,0-3.17-7.583c-2.424-2.174-5.532-2.174-9.7-2.174h-6.4Z" fill="#86bdb2"/>
      <path id="Path_13" data-name="Path 13" d="M549.08-40.438h-4.289V-56.722L530.682-84.629h4.973l11.311,22.935L558.4-84.629h4.849L549.08-56.66Z" fill="#86bdb2"/>
      <path id="Path_14" data-name="Path 14" d="M131.341-.152V-21.678h2.12v9.658h10.233v-9.658h2.12V-.152h-2.12V-9.961H133.461V-.152Z" fill="#86bdb2"/>
      <path id="Path_15" data-name="Path 15" d="M162.86-1.756c4.845,0,8.72-4.026,8.72-9.324a8.961,8.961,0,0,0-8.871-8.963,8.327,8.327,0,0,0-5.419,2,9.447,9.447,0,0,0-3.3,7.023A8.921,8.921,0,0,0,162.86-1.756Zm-7.72-17.227a10.468,10.468,0,0,1,7.6-3.119,10.6,10.6,0,0,1,7.721,3.149,10.8,10.8,0,0,1,3.3,7.9,10.945,10.945,0,0,1-2.847,7.691A10.753,10.753,0,0,1,162.709.273c-6.176,0-10.93-4.9-10.93-11.324A11.018,11.018,0,0,1,155.14-18.983Z" fill="#86bdb2"/>
      <path id="Path_16" data-name="Path 16" d="M181.085-.152V-19.559h-4.3v-2.119H187.5v2.119h-4.3V-.152Z" fill="#86bdb2"/>
      <path id="Path_17" data-name="Path 17" d="M203.884-12.02V-9.9h-9.052v7.66h9.052V-.152H192.712V-21.678h11.172v2.119h-9.052v7.539Z" fill="#86bdb2"/>
      <path id="Path_18" data-name="Path 18" d="M210.939-.152V-21.678h2.119V-2.241h7.569V-.152Z" fill="#86bdb2"/>
      <path id="Path_19" data-name="Path 19" d="M247.847-20.012a8.911,8.911,0,0,0-8.689,8.991,8.926,8.926,0,0,0,8.689,9.265,8.443,8.443,0,0,0,7.176-3.725h2.512A10.5,10.5,0,0,1,248,.272a10.937,10.937,0,0,1-11.081-11.323,10.947,10.947,0,0,1,3.361-7.932,10.418,10.418,0,0,1,7.6-3.119,10.747,10.747,0,0,1,9.84,6h-2.543A8.516,8.516,0,0,0,247.847-20.012Z" fill="#86bdb2"/>
      <path id="Path_20" data-name="Path 20" d="M273.8-1.756c4.844,0,8.72-4.026,8.72-9.324a8.962,8.962,0,0,0-8.872-8.963,8.326,8.326,0,0,0-5.419,2,9.451,9.451,0,0,0-3.3,7.023A8.92,8.92,0,0,0,273.8-1.756Zm-7.72-17.227a10.467,10.467,0,0,1,7.6-3.119,10.6,10.6,0,0,1,7.72,3.149,10.8,10.8,0,0,1,3.3,7.9,10.939,10.939,0,0,1-2.846,7.691A10.755,10.755,0,0,1,273.645.273c-6.175,0-10.929-4.9-10.929-11.324A11.018,11.018,0,0,1,266.077-18.983Z" fill="#86bdb2"/>
      <path id="Path_21" data-name="Path 21" d="M290.663-.152V-21.678h2.118V-2.241h7.57V-.152Z" fill="#86bdb2"/>
      <path id="Path_22" data-name="Path 22" d="M306.165-.152V-21.678h2.118V-2.241h7.57V-.152Z" fill="#86bdb2"/>
      <path id="Path_23" data-name="Path 23" d="M332.839-12.02V-9.9h-9.052v7.66h9.052V-.152H321.667V-21.678h11.172v2.119h-9.052v7.539Z" fill="#86bdb2"/>
      <path id="Path_24" data-name="Path 24" d="M349.734-20.012a8.911,8.911,0,0,0-8.689,8.991,8.926,8.926,0,0,0,8.689,9.265,8.443,8.443,0,0,0,7.176-3.725h2.513A10.5,10.5,0,0,1,349.886.272,10.937,10.937,0,0,1,338.8-11.051a10.947,10.947,0,0,1,3.361-7.932,10.418,10.418,0,0,1,7.6-3.119,10.747,10.747,0,0,1,9.84,6h-2.543A8.516,8.516,0,0,0,349.734-20.012Z" fill="#86bdb2"/>
      <path id="Path_25" data-name="Path 25" d="M368.175-.152V-19.559h-4.3v-2.119h10.718v2.119h-4.3V-.152Z" fill="#86bdb2"/>
      <path id="Path_26" data-name="Path 26" d="M379.772-21.678h2.118V-.152h-2.118Z" fill="#86bdb2"/>
      <path id="Path_27" data-name="Path 27" d="M398.907-1.756c4.844,0,8.72-4.026,8.72-9.324a8.962,8.962,0,0,0-8.872-8.963,8.331,8.331,0,0,0-5.42,2,9.453,9.453,0,0,0-3.3,7.023A8.92,8.92,0,0,0,398.907-1.756Zm-7.72-17.227a10.466,10.466,0,0,1,7.6-3.119,10.6,10.6,0,0,1,7.721,3.149,10.8,10.8,0,0,1,3.3,7.9,10.948,10.948,0,0,1-2.846,7.691A10.755,10.755,0,0,1,398.755.273c-6.176,0-10.929-4.9-10.929-11.324A11.014,11.014,0,0,1,391.187-18.983Z" fill="#86bdb2"/>
      <path id="Path_28" data-name="Path 28" d="M429.821-21.678h2.089V-.152h-2.543L417.559-19.134,417.8-.152h-2.089V-21.678h2.543L430.063-2.725Z" fill="#86bdb2"/>
    </g>
  </g>
</svg>
