<svg id="download" xmlns="http://www.w3.org/2000/svg" width="20" height="20" viewBox="0 0 20 20">
  <g id="Group_18" data-name="Group 18" transform="translate(0 12.227)">
    <g id="Group_17" data-name="Group 17">
      <path id="Path_43" data-name="Path 43" d="M18.438,313v5.43a.782.782,0,0,1-.781.781H2.344a.782.782,0,0,1-.781-.781V313H0v5.43a2.346,2.346,0,0,0,2.344,2.344H17.656A2.346,2.346,0,0,0,20,318.43V313Z" transform="translate(0 -313)" fill="#49484d"/>
    </g>
  </g>
  <g id="Group_20" data-name="Group 20" transform="translate(5.145)">
    <g id="Group_19" data-name="Group 19">
      <path id="Path_44" data-name="Path 44" d="M140.321,9.208l-2.969,2.969V0H135.79V12.176l-2.969-2.969-1.1,1.1,4.855,4.855,4.855-4.855Z" transform="translate(-131.716)" fill="#49484d"/>
    </g>
  </g>
</svg>
