<svg version="1.1" id="Layer_1" xmlns="http://www.w3.org/2000/svg" xmlns:xlink="http://www.w3.org/1999/xlink" x="0px" y="0px" width="117px" height="27.5px" viewBox="0 0 83.88 21.38" enable-background="new 0 0 83.88 21.38" xml:space="preserve">
<g>
    <path fill-rule="evenodd" clip-rule="evenodd" fill="#FFFFFF" d="M6.48,1C5.32,1.81,4.43,2.61,4.43,4.16
        c0,0.78,0.46,1.82,1.36,1.82c0.58,0,1.14-0.43,1.14-1.07c0-0.58-0.42-1.12-1.02-1.12c-0.28,0-0.46,0.1-0.66,0.27
        C5.19,2.71,5.8,2.18,6.74,1.35L6.48,1 M3.05,1C1.88,1.81,1,2.61,1,4.16c0,0.78,0.46,1.82,1.36,1.82c0.58,0,1.14-0.43,1.14-1.07
        c0-0.58-0.42-1.12-1.02-1.12c-0.28,0-0.46,0.1-0.66,0.27C1.76,2.71,2.36,2.18,3.31,1.35L3.05,1L3.05,1z"></path>
    <path fill-rule="evenodd" clip-rule="evenodd" fill="#EC2226" d="M11.54,9.26c0-0.51,0.04-1.11,0.24-1.53
        c0.34-0.68,1.26-1.07,1.97-1.07c2.21,0,2.87,2.13,2.87,4.03c0,1.98-0.62,4.11-2.91,4.11c-1.42,0-2.16-0.76-2.16-2.15V9.26 M11.54,1
        L8.33,1.66v0.41c0.46,0.06,1.06,0.02,1.3,0.54c0.2,0.43,0.2,1.69,0.2,2.21v10.4h0.28l0.96-1.2c0.72,0.87,1.99,1.32,3.05,1.32
        c2.59,0,4.5-2.13,4.5-4.73C18.62,8.1,16.83,6,14.27,6c-1.1,0-1.97,0.35-2.73,1.16V1L11.54,1z"></path>
    <path fill-rule="evenodd" clip-rule="evenodd" fill="#EC2226" d="M27.71,13.16c-0.6,0.83-1.5,1.53-2.53,1.53
        c-2.15,0-3.15-2.19-3.15-4.15l0.08-0.99h5.76c0.2,0,0.5,0.08,0.5-0.18c0-2.23-1.86-3.37-3.83-3.37c-2.61,0-4.52,2.33-4.52,4.91
        c0,2.64,2.05,4.44,4.54,4.44c1.5,0,2.63-0.56,3.57-1.76L27.71,13.16 M22.21,8.99c0.24-1.34,0.84-2.52,2.35-2.52
        c1.26,0,1.95,0.83,1.95,2.11c0,0.52-0.66,0.41-0.99,0.41H22.21L22.21,8.99z"></path>
    <path fill-rule="evenodd" clip-rule="evenodd" fill="#FFFFFF" d="M30.68,14.6c0.6,0.5,1.44,0.74,2.21,0.74
        c1.55,0,2.95-1.03,2.95-2.73c0-1.86-1.26-2.4-2.65-3.14c-0.77-0.43-1.87-0.81-1.87-1.88c0-0.74,0.62-1.14,1.28-1.14
        c1.26,0,1.71,1.09,2.07,2.13h0.4l0.04-2.58h-0.24l-0.4,0.5C33.91,6.18,33.15,6,32.53,6c-1.38,0-2.49,1.05-2.49,2.48
        c0,1.55,1.24,2.23,2.41,2.85c0.87,0.46,2.03,0.93,2.03,2.11c0,0.99-0.8,1.45-1.69,1.45c-1.49,0-2.17-1.3-2.49-2.62h-0.4l0.08,2.95
        h0.2L30.68,14.6L30.68,14.6z"></path>
    <path fill-rule="evenodd" clip-rule="evenodd" fill="#FFFFFF" d="M39.93,10.15c0-0.85,0-1.57,0.42-2.32
        c0.42-0.74,1.18-1.17,2.03-1.17c2.19,0,2.77,2.13,2.77,4c0,1.86-0.64,4.03-2.81,4.03c-0.73,0-1.51-0.27-1.97-0.83
        c-0.44-0.54-0.44-1.55-0.44-2.25V10.15 M39.69,6c-0.92,0.23-1.91,0.49-2.91,0.64v0.41c0.64,0,1.18-0.08,1.34,0.66
        c0.1,0.47,0.1,1.92,0.1,2.5v8.09c0,1.36,0.12,1.88-1.38,1.98v0.41c0.8-0.02,1.6-0.06,2.41-0.08c0.74,0.02,1.48,0.06,2.23,0.08
        v-0.41c-1.69-0.08-1.54-0.62-1.54-2.11v-4c0.86,0.81,1.71,1.18,2.89,1.18c2.53,0,4.33-2.11,4.33-4.63C47.16,8.04,45.35,6,42.7,6
        c-1.31,0-2.23,0.62-2.97,1.71h-0.04V6L39.69,6z"></path>
    <path fill-rule="evenodd" clip-rule="evenodd" fill="#FFFFFF" d="M53.14,6c-2.45,0-4.82,1.92-4.82,4.56c0,2.72,2.21,4.79,4.82,4.79
        c2.63,0,4.84-1.92,4.84-4.71C57.97,7.98,55.62,6,53.14,6 M53.06,6.47c2.37,0,2.91,2.31,2.91,4.29c0,1.84-0.54,4.11-2.73,4.11
        c-2.35,0-2.91-2.27-2.91-4.23C50.33,8.84,50.87,6.47,53.06,6.47L53.06,6.47z"></path>
    <path fill-rule="evenodd" clip-rule="evenodd" fill="#FFFFFF" d="M61.96,1l-3.23,0.66v0.41c0.48,0.06,1.04,0.06,1.3,0.54
        C60.26,3,60.26,4.1,60.26,4.57v8.18c0,1.36,0.1,1.86-1.41,1.96v0.42c0.79-0.02,1.53-0.06,2.27-0.08c0.74,0.02,1.5,0.06,2.25,0.08
        v-0.42c-1.59-0.1-1.41-0.72-1.41-2.08v-1.28l0.4-0.41l3.81,4.19c0.42-0.02,0.82-0.06,1.24-0.08c0.4,0.02,0.82,0.06,1.22,0.08v-0.42
        c-0.72-0.12-0.86-0.43-1.39-0.93L63.41,9.9l1.85-2.13c0.7-0.78,0.9-1.14,1.99-1.18V6.18c-0.56,0.02-1.14,0.06-1.71,0.08
        c-0.58-0.02-1.19-0.06-1.77-0.08v0.41c0.32,0,1.07,0.02,1.07,0.52c0,0.45-1.21,1.75-1.53,2.1l-1.34,1.47V1L61.96,1z"></path>
    <path fill-rule="evenodd" clip-rule="evenodd" fill="#FFFFFF" d="M76.47,13.16c-0.6,0.83-1.51,1.53-2.53,1.53
        c-2.15,0-3.15-2.19-3.15-4.15l0.08-0.99h5.76c0.2,0,0.5,0.08,0.5-0.18C77.13,7.13,75.26,6,73.3,6c-2.61,0-4.52,2.33-4.52,4.91
        c0,2.64,2.05,4.44,4.54,4.44c1.51,0,2.63-0.56,3.57-1.76L76.47,13.16 M70.97,8.99c0.24-1.34,0.84-2.52,2.35-2.52
        c1.26,0,1.95,0.83,1.95,2.11c0,0.52-0.66,0.41-0.98,0.41H70.97L70.97,8.99z"></path>
    <path fill-rule="evenodd" clip-rule="evenodd" fill="#FFFFFF" d="M77.92,5.98c1.16-0.81,2.04-1.61,2.04-3.16
        C79.96,2.03,79.5,1,78.6,1c-0.58,0-1.14,0.43-1.14,1.07c0,0.58,0.42,1.11,1.02,1.11c0.28,0,0.46-0.1,0.66-0.27
        c0.06,1.34-0.54,1.88-1.49,2.71L77.92,5.98 M81.35,5.98c1.16-0.81,2.04-1.61,2.04-3.16C83.4,2.03,82.93,1,82.03,1
        c-0.58,0-1.14,0.43-1.14,1.07c0,0.58,0.42,1.11,1.02,1.11c0.28,0,0.46-0.1,0.66-0.27c0.06,1.34-0.54,1.88-1.48,2.71L81.35,5.98
        L81.35,5.98z"></path>
    <polygon fill-rule="evenodd" clip-rule="evenodd" fill="#FFFFFF" points="44.5,20.58 44.79,20.58 44.79,19.29 46.11,19.29 
        46.11,20.58 46.4,20.58 46.4,17.87 46.11,17.87 46.11,19.03 44.79,19.03 44.79,17.87 44.5,17.87 44.5,20.58     "></polygon>
    <path fill-rule="evenodd" clip-rule="evenodd" fill="#FFFFFF" d="M50.57,19.22c0,0.87,0.42,1.4,1.04,1.4c0.63,0,1.04-0.53,1.04-1.4
        c0-0.87-0.42-1.4-1.04-1.4C50.99,17.82,50.57,18.35,50.57,19.22 M50.87,19.22c0-0.73,0.29-1.14,0.75-1.14s0.75,0.41,0.75,1.14
        c0,0.73-0.29,1.14-0.75,1.14S50.87,19.95,50.87,19.22L50.87,19.22z"></path>
    <polygon fill-rule="evenodd" clip-rule="evenodd" fill="#FFFFFF" points="57.33,20.58 57.63,20.58 57.63,18.13 58.4,18.13 
        58.4,17.87 56.56,17.87 56.56,18.13 57.33,18.13 57.33,20.58  "></polygon>
    <polygon fill-rule="evenodd" clip-rule="evenodd" fill="#FFFFFF" points="62.48,20.58 64.1,20.58 64.1,20.32 62.78,20.32 
        62.78,19.28 63.67,19.28 63.67,19.03 62.78,19.03 62.78,18.12 64.04,18.12 64.04,17.87 62.48,17.87 62.48,20.58     "></polygon>
    <polygon fill-rule="evenodd" clip-rule="evenodd" fill="#FFFFFF" points="68.23,20.58 69.71,20.58 69.71,20.32 68.53,20.32 
        68.53,17.87 68.23,17.87 68.23,20.58     "></polygon>
    <path fill-rule="evenodd" clip-rule="evenodd" fill="#FFFFFF" d="M73.53,19.9c0.15,0.48,0.46,0.72,0.93,0.72
        c0.5,0,0.82-0.3,0.82-0.75c0-0.42-0.21-0.61-0.67-0.78c-0.25-0.09-0.45-0.16-0.56-0.25c-0.11-0.1-0.17-0.2-0.17-0.33
        c0-0.27,0.18-0.44,0.46-0.44c0.29,0,0.5,0.17,0.59,0.49l0.26-0.08c-0.12-0.43-0.42-0.66-0.82-0.66c-0.47,0-0.78,0.29-0.78,0.72
        c0,0.35,0.2,0.54,0.61,0.7c0.23,0.09,0.44,0.15,0.61,0.27c0.12,0.08,0.18,0.21,0.18,0.38c0,0.28-0.21,0.47-0.55,0.47
        c-0.3,0-0.55-0.21-0.64-0.56L73.53,19.9L73.53,19.9z"></path>
</g>
</svg>