<svg xmlns="http://www.w3.org/2000/svg" width="23" height="22.892" viewBox="0 0 23 22.892">
  <g id="meeting" transform="translate(0 -0.696)">
    <path id="Path_36" data-name="Path 36" d="M115.891,6.17a2.737,2.737,0,1,0-2.737-2.737A2.74,2.74,0,0,0,115.891,6.17Z" transform="translate(-104.391)" fill="#ccc"/>
    <path id="Path_37" data-name="Path 37" d="M141.234,81.634a.324.324,0,0,0-.24-.1h-.671a.324.324,0,0,0-.24.1.312.312,0,0,0-.041.367l.359.541-.168,1.417.331.88a.1.1,0,0,0,.19,0l.331-.88-.168-1.417.359-.541A.311.311,0,0,0,141.234,81.634Z" transform="translate(-129.159 -74.578)" fill="#ccc"/>
    <path id="Path_38" data-name="Path 38" d="M89.425,88.085h8.43a.39.39,0,0,0,.39-.39V84.183a2.391,2.391,0,0,0-1.651-2.261l-.77-.236a.277.277,0,0,0-.342.17L93.64,86.912,91.8,81.855a.276.276,0,0,0-.341-.17l-.764.234a2.393,2.393,0,0,0-1.657,2.263v3.512a.39.39,0,0,0,.39.39Z" transform="translate(-82.14 -74.706)" fill="#ccc"/>
    <path id="Path_39" data-name="Path 39" d="M2.737,24.237A2.737,2.737,0,1,0,0,21.5,2.74,2.74,0,0,0,2.737,24.237Z" transform="translate(0 -16.668)" fill="#ccc"/>
    <path id="Path_40" data-name="Path 40" d="M10.471,105.785H8.291v-4.306a2.479,2.479,0,1,0-4.958,0v5.85a2.38,2.38,0,0,0,2.38,2.38H8.542v3.9a.673.673,0,0,0,.673.673h2.612a.673.673,0,0,0,.673-.673v-5.794A2.028,2.028,0,0,0,10.471,105.785Z" transform="translate(-3.075 -90.691)" fill="#ccc"/>
    <path id="Path_41" data-name="Path 41" d="M229.046,24.237a2.737,2.737,0,1,0-2.737-2.737A2.74,2.74,0,0,0,229.046,24.237Z" transform="translate(-208.783 -16.668)" fill="#ccc"/>
    <path id="Path_42" data-name="Path 42" d="M181.993,99a2.479,2.479,0,0,0-2.479,2.479v4.306h-2.18a2.028,2.028,0,0,0-2.028,2.028v5.794a.673.673,0,0,0,.673.673h2.612a.673.673,0,0,0,.673-.673v-3.9h2.829a2.38,2.38,0,0,0,2.38-2.38v-5.85A2.479,2.479,0,0,0,181.993,99Z" transform="translate(-161.73 -90.691)" fill="#ccc"/>
  </g>
</svg>
