<svg xmlns="http://www.w3.org/2000/svg" width="26" height="22.724" viewBox="0 0 26 22.724">
  <g id="pets" transform="translate(0 0)">
    <path id="Path_31" data-name="Path 31" d="M78.572,184.865a6.331,6.331,0,0,0-10.66,0l-2.819,4.4a4.007,4.007,0,0,0,4.986,5.831l.053-.024a7.877,7.877,0,0,1,6.272.024,3.985,3.985,0,0,0,1.608.34,4.036,4.036,0,0,0,.9-.1,4.008,4.008,0,0,0,2.482-6.07Zm0,0" transform="translate(-61.186 -172.71)" fill="#ccc"/>
    <path id="Path_32" data-name="Path 32" d="M4.666,106.021a3.073,3.073,0,0,0,1.794-1.9,3.97,3.97,0,0,0-.07-2.738A3.973,3.973,0,0,0,4.606,99.3,3.073,3.073,0,0,0,2,99.092a3.519,3.519,0,0,0-1.723,4.641,3.712,3.712,0,0,0,3.339,2.483,2.911,2.911,0,0,0,1.05-.195Zm0,0" transform="translate(0 -93.872)" fill="#ccc"/>
    <path id="Path_33" data-name="Path 33" d="M128.232,8.7a4.116,4.116,0,0,0,3.819-4.351,3.852,3.852,0,1,0-7.638,0A4.116,4.116,0,0,0,128.232,8.7Zm0,0" transform="translate(-118.096)" fill="#ccc"/>
    <path id="Path_34" data-name="Path 34" d="M286.495,47.981h0a3.113,3.113,0,0,0,.984.159,3.958,3.958,0,0,0,3.6-2.836,4.267,4.267,0,0,0-.061-2.944,3.228,3.228,0,0,0-4.786-1.591,4.268,4.268,0,0,0-1.811,2.322,3.775,3.775,0,0,0,2.071,4.89Zm0,0" transform="translate(-269.763 -38.208)" fill="#ccc"/>
    <path id="Path_35" data-name="Path 35" d="M382.379,171.632h0a3.742,3.742,0,0,0-4.418,5.969,2.986,2.986,0,0,0,1.793.579,3.861,3.861,0,0,0,3.049-1.615A3.52,3.52,0,0,0,382.379,171.632Zm0,0" transform="translate(-357.605 -162.368)" fill="#ccc"/>
  </g>
</svg>
