<svg xmlns="http://www.w3.org/2000/svg" width="26.758" height="16.96" viewBox="0 0 26.758 16.96">
  <g id="pool" transform="translate(0 -5.748)">
    <g id="Group_5" data-name="Group 5" transform="translate(0 5.748)">
      <path id="Path_29" data-name="Path 29" d="M23.741,21.485a1.475,1.475,0,0,1-2.221,0,4.8,4.8,0,0,0-7.212-.031,1.475,1.475,0,0,1-2.2,0,4.8,4.8,0,0,0-7.185,0,1.476,1.476,0,0,1-1.1.494h0a1.474,1.474,0,0,1-1.1-.494A4.776,4.776,0,0,0,0,19.932v2.91a2.013,2.013,0,0,1,.621.471,4.271,4.271,0,0,0,6.39,0,2,2,0,0,1,3,0,4.269,4.269,0,0,0,6.389,0,2,2,0,0,1,3.013.012,4.271,4.271,0,0,0,6.436,0,2.05,2.05,0,0,1,.908-.592V19.9A4.771,4.771,0,0,0,23.741,21.485Z" transform="translate(0 -7.827)" fill="#ccc"/>
      <circle id="Ellipse_1" data-name="Ellipse 1" cx="3.45" cy="3.45" r="3.45" transform="translate(17.328 4.026)" fill="#ccc"/>
      <path id="Path_30" data-name="Path 30" d="M13.646,18.758a.561.561,0,0,0,.809,0,5.748,5.748,0,0,1,3.366-1.848,3.231,3.231,0,0,0-.128-1.618c-.1-.282-1.2-3.967-1.2-3.967a2.139,2.139,0,0,1,.333-1.45,4,4,0,0,1,2.793-1.344,1.4,1.4,0,1,0-.413-2.766,6.541,6.541,0,0,0-4.689,2.53,4.884,4.884,0,0,0-.746,3.674l.3,1.2a3.284,3.284,0,0,0-.54.131L7.888,15.293A3.263,3.263,0,0,0,5.72,18.141a5.708,5.708,0,0,1,7.926.617Z" transform="translate(-0.844 -5.748)" fill="#ccc"/>
    </g>
  </g>
</svg>
