<svg xmlns="http://www.w3.org/2000/svg" width="25.758" height="21.633" viewBox="0 0 25.758 21.633">
  <g id="spa" transform="translate(0 -41)">
    <path id="Path_23" data-name="Path 23" d="M189.472,58.148l.569-.652a12.114,12.114,0,0,0,0-15.858L189.472,41l-.569.639a12.114,12.114,0,0,0,0,15.858Z" transform="translate(-176.592)" fill="#ccc"/>
    <path id="Path_24" data-name="Path 24" d="M21.165,365.235c-3.178,2.135-5.792,2.216-8.286,2.393a15.855,15.855,0,0,1-8.289-2.392c-2.774.554-4.591,1.379-4.591,2.3,0,1.667,5.794,3.019,12.879,3.019s12.879-1.351,12.879-3.019C25.758,366.614,23.941,365.789,21.165,365.235Z" transform="translate(0 -307.923)" fill="#ccc"/>
    <path id="Path_25" data-name="Path 25" d="M343.3,140.953A13.678,13.678,0,0,1,338.108,152a12.142,12.142,0,0,0,8.689-10.747l.059-.864-.864.059A12.043,12.043,0,0,0,343.3,140.953Z" transform="translate(-321.098 -94.385)" fill="#ccc"/>
    <path id="Path_26" data-name="Path 26" d="M8.749,152a13.679,13.679,0,0,1-5.188-11.043,12.045,12.045,0,0,0-2.7-.509L0,140.385l.059.864A12.142,12.142,0,0,0,8.749,152Z" transform="translate(0 -94.385)" fill="#ccc"/>
    <path id="Path_27" data-name="Path 27" d="M319.1,80.771a12.114,12.114,0,0,0,4.03-13.335l-.276-.821-.776.385a11.874,11.874,0,0,0-2.253,1.473A13.674,13.674,0,0,1,319.1,80.771Z" transform="translate(-303.045 -24.326)" fill="#ccc"/>
    <path id="Path_28" data-name="Path 28" d="M105.151,80.773a13.673,13.673,0,0,1-.726-12.3A11.869,11.869,0,0,0,102.173,67l-.776-.385-.276.821A12.117,12.117,0,0,0,105.151,80.773Z" transform="translate(-95.446 -24.327)" fill="#ccc"/>
  </g>
</svg>
