<svg xmlns="http://www.w3.org/2000/svg" width="25.5" height="22.898" viewBox="0 0 25.5 22.898">
  <g id="wedding-rings" transform="translate(0 -26.111)">
    <path id="Path_21" data-name="Path 21" d="M8.521,46.637a6.533,6.533,0,1,1,5.35-2.292,5.022,5.022,0,0,0,2.363.794,8.9,8.9,0,0,0-.225-10.358,8.929,8.929,0,0,0-3.558-2.817,8.784,8.784,0,0,0-2.429-.67c1.693-1.246,2.341-2.291,2.341-3.2a1.979,1.979,0,0,0-3.469-1.3,1.979,1.979,0,0,0-3.469,1.3c0,.911.648,1.956,2.341,3.2a8.894,8.894,0,1,0,3.119,17.492,10.447,10.447,0,0,1-2.365-2.149Z" fill="#ccc"/>
    <path id="Path_22" data-name="Path 22" d="M163.712,128.715a8.913,8.913,0,0,0-1.992.223,10.449,10.449,0,0,1,2.365,2.149,6.533,6.533,0,1,1-5.35,2.292,5.022,5.022,0,0,0-2.363-.794,8.895,8.895,0,0,0,.225,10.358,8.929,8.929,0,0,0,3.558,2.818,8.894,8.894,0,1,0,3.558-17.047Z" transform="translate(-147.105 -97.493)" fill="#ccc"/>
  </g>
</svg>
